<svg width="41" height="48" viewBox="0 0 41 48" fill="none" xmlns="http://www.w3.org/2000/svg">
<path fill-rule="evenodd" clip-rule="evenodd" d="M20.942 0.119388L21.1208 0.195984C25.8471 1.70052 30.9386 4.19928 33.9946 8.25364C34.7631 9.27323 35.4189 10.4192 35.8326 11.6304C35.9832 12.0714 36.144 12.636 36.1823 13.1054L36.1826 13.1094L37.642 35.4524L41 39.2149L24.9681 48L23.1452 29.3371L31.0155 23.3131L30.8153 18.9834L21.1222 22.581L20.9154 22.6598L20.5063 22.807L20.0302 22.6483L19.8666 22.5768L10.1945 18.9836L9.99432 23.3133L17.8548 29.3372L16.0422 48L0 39.215L3.35813 35.4524L4.8175 13.1094L4.81782 13.1054C4.85609 12.636 5.01695 12.0714 5.16756 11.6304C5.5812 10.4192 6.23701 9.27323 7.00554 8.25365C10.0636 4.19652 15.16 1.69714 19.889 0.19295L20.0684 0.124623C20.1654 0.0821147 20.2654 0.0464444 20.3675 0.0180786L20.4326 0H20.5001C20.6242 0 20.7193 0.00373341 20.8358 0.0619462C20.8745 0.0812828 20.9027 0.101614 20.9421 0.119388H20.942ZM19.5573 20.4432V2.28092C15.5686 3.64999 11.3341 5.81331 8.6972 9.1511C8.017 10.0121 7.42217 10.9827 7.03371 12.012C6.90582 12.3508 6.73303 12.8715 6.7005 13.2376L5.17305 35.7298V36.2162L4.84119 36.5795L2.9502 38.7008L14.4037 44.9442L15.8429 30.1961L8.65069 24.6607L8.07791 24.2203V23.4973L8.3414 18.2402L8.43126 16.3538L10.2104 16.9717L19.5573 20.4432V20.4432ZM25.1657 30.1982L26.5224 44.942L37.9755 38.6989L36.1129 36.5827L35.7686 36.2229V35.7291L34.2993 13.2341C34.2656 12.868 34.0939 12.3509 33.9664 12.0132C33.5779 10.9838 32.9831 10.0132 32.303 9.1521C29.6661 5.81377 25.4318 3.65016 21.4428 2.28095V20.4434L30.7995 16.9717L32.5472 16.3648L32.7263 18.1998L32.9709 23.4983V24.2165L32.4097 24.6593L25.1657 30.1983V30.1982Z" fill="#A7A7A7"/>
</svg>
