<svg width="29" height="61" viewBox="0 0 29 61" fill="none" xmlns="http://www.w3.org/2000/svg">
<path fill-rule="evenodd" clip-rule="evenodd" d="M14.3757 8.89126C13.662 8.37359 13.0089 5.96343 11.5634 8.58449C9.99889 11.4214 8.9571 13.7871 7.92164 16.9075C7.66701 17.6749 7.05379 20.0625 7.05379 20.8197C7.05379 21.4918 8.08473 22.4688 8.25865 23.1137C7.91158 22.9488 6.10615 22.4954 5.9573 23.8693L6.36497 29.1176C6.84203 32.5326 7.6893 36.3554 9.3411 39.2925C9.51988 39.6104 9.98748 40.2224 9.98878 40.5323L9.42446 43.7205C9.25546 44.6052 8.90744 46.3314 8.90744 47.1542C8.90744 47.5746 9.25776 47.9098 9.66074 47.98H9.96768C10.3332 47.9146 10.6815 47.6038 10.8029 46.9202L11.7409 41.6094C11.9456 40.4873 12.0336 40.7759 13.8203 39.5389C15.8557 38.1298 18.4742 35.2964 19.9001 33.1708C20.5251 32.2391 22.9025 28.6922 22.9025 27.885C22.9025 27.1196 21.9849 26.885 21.4512 26.5691L21.2342 26.4169C21.9949 26.4169 23.1838 26.2947 23.472 25.5126L24.1268 23.0411C24.497 21.4965 25.1619 17.6486 24.69 15.8384C24.5526 15.3112 24.2485 15.157 23.7366 15.0389L23.8425 14.9603C24.8946 14.238 24.8492 14.7671 25.6036 12.9417C26.4807 10.8194 27.1607 9.24379 27.5624 6.89802C27.9695 4.52058 28 4.42351 28 2.00934C28 1.27996 27.208 1.05827 26.2921 1H24.3854C21.6319 1 18.7846 2.03978 16.705 3.58133C16.4456 3.77367 16.351 3.88429 16.0972 4.08063C15.4856 4.55365 14.1192 5.89911 14.19 6.77078C14.2455 7.45356 14.3757 8.11949 14.3757 8.89126ZM8.63626 20.6951C8.7282 20.8789 8.92594 21.1451 9.02367 21.2865C9.32974 21.7294 9.64027 22.1863 9.78178 22.711L10.6657 25.9883L7.60805 24.5358C7.60229 24.5339 7.5962 24.5319 7.58976 24.53L7.93313 28.9504C8.37593 32.1017 9.15019 35.7446 10.7185 38.5332C10.8862 38.8314 11.0739 39.0946 11.2299 39.3707C11.6717 39.0123 12.2347 38.7321 12.9168 38.2599C14.8665 36.91 17.2685 34.2726 18.5868 32.3074C19.12 31.5125 19.646 30.7127 20.1486 29.8985C20.3799 29.5239 20.8712 28.7466 21.1547 28.1634C20.9698 28.0737 20.7694 27.984 20.6422 27.9088L20.5899 27.8778L16.2797 24.8561H21.2341C21.4012 24.8561 21.7951 24.8406 22.0369 24.7775L22.597 22.6634C22.9286 21.2717 23.4642 18.0967 23.223 16.5231L20.0871 15.7998L22.9197 13.6945L22.9441 13.6777C23.2276 13.4831 23.4902 13.3571 23.7674 13.1969C23.903 12.9679 24.0578 12.5602 24.1444 12.3508C24.9506 10.4 25.6483 8.7371 26.0079 6.63723C26.138 5.87733 26.2919 5.09031 26.364 4.32307C26.4177 3.7508 26.4242 3.16003 26.4241 2.57745C26.3562 2.57001 26.2911 2.56465 26.2385 2.5609H24.3853C22.0414 2.5609 19.5168 3.44687 17.6499 4.83083C17.4495 4.97931 17.2672 5.15637 17.0677 5.31064C16.7523 5.55461 15.9447 6.34252 15.7715 6.76341C15.8362 7.47977 15.9522 8.15773 15.9522 8.89128V11.9696L13.4439 10.1503C13.2035 9.97594 13.0106 9.76614 12.8333 9.53992C11.4237 12.1223 10.3497 14.591 9.41937 17.3947C9.19975 18.0566 8.69693 19.9098 8.63626 20.6951Z" fill="#A7A7A7"/>
<path fill-rule="evenodd" clip-rule="evenodd" d="M4.08016 46.8787H5.63739V45.5874C5.63739 45.5705 5.6381 45.5537 5.63945 45.537C5.40557 45.4785 5.23117 45.2678 5.23117 45.0187C5.23117 44.7247 5.47413 44.4841 5.77109 44.4841H14.0863C14.3833 44.4841 14.6263 44.7247 14.6263 45.0187C14.6263 45.2678 14.4519 45.4785 14.218 45.537C14.2193 45.5537 14.22 45.5705 14.22 45.5874V46.8787H15.7773C17.4714 46.8787 18.8575 48.2509 18.8575 49.9281V56.9505C18.8575 58.6277 17.4714 60 15.7773 60H4.08018C2.38608 60 1 58.6277 1 56.9505V49.9281C1 48.2509 2.38605 46.8787 4.08016 46.8787ZM12.6435 46.0449H7.21392V48.4395H4.08016C3.25623 48.4395 2.5765 49.1124 2.5765 49.9281V56.9505C2.5765 57.7662 3.25623 58.4392 4.08016 58.4392H15.7772C16.6012 58.4392 17.2809 57.7662 17.2809 56.9505V49.9281C17.2809 49.1124 16.6012 48.4395 15.7772 48.4395H12.6435V46.0449ZM6.12295 51.0041H13.7344C14.168 51.0041 14.5227 51.3553 14.5227 51.7845C14.5227 52.2138 14.168 52.565 13.7344 52.565H6.12295C5.68941 52.565 5.33468 52.2138 5.33468 51.7845C5.33468 51.3553 5.68941 51.0041 6.12295 51.0041ZM6.12295 53.984H13.7344C14.168 53.984 14.5227 54.3352 14.5227 54.7644C14.5227 55.1936 14.168 55.5448 13.7344 55.5448H6.12295C5.68941 55.5448 5.33468 55.1936 5.33468 54.7644C5.33468 54.3352 5.68941 53.984 6.12295 53.984Z" fill="#A7A7A7"/>
<path fill-rule="evenodd" clip-rule="evenodd" d="M14.3757 8.89126C13.662 8.37359 13.0089 5.96343 11.5634 8.58449C9.99889 11.4214 8.9571 13.7871 7.92164 16.9075C7.66701 17.6749 7.05379 20.0625 7.05379 20.8197C7.05379 21.4918 8.08473 22.4688 8.25865 23.1137C7.91158 22.9488 6.10615 22.4954 5.9573 23.8693L6.36497 29.1176C6.84203 32.5326 7.6893 36.3554 9.3411 39.2925C9.51988 39.6104 9.98748 40.2224 9.98878 40.5323L9.42446 43.7205C9.25546 44.6052 8.90744 46.3314 8.90744 47.1542C8.90744 47.5746 9.25776 47.9098 9.66074 47.98H9.96768C10.3332 47.9146 10.6815 47.6038 10.8029 46.9202L11.7409 41.6094C11.9456 40.4873 12.0336 40.7759 13.8203 39.5389C15.8557 38.1298 18.4742 35.2964 19.9001 33.1708C20.5251 32.2391 22.9025 28.6922 22.9025 27.885C22.9025 27.1196 21.9849 26.885 21.4512 26.5691L21.2342 26.4169C21.9949 26.4169 23.1838 26.2947 23.472 25.5126L24.1268 23.0411C24.497 21.4965 25.1619 17.6486 24.69 15.8384C24.5526 15.3112 24.2485 15.157 23.7366 15.0389L23.8425 14.9603C24.8946 14.238 24.8492 14.7671 25.6036 12.9417C26.4807 10.8194 27.1607 9.24379 27.5624 6.89802C27.9695 4.52058 28 4.42351 28 2.00934C28 1.27996 27.208 1.05827 26.2921 1H24.3854C21.6319 1 18.7846 2.03978 16.705 3.58133C16.4456 3.77367 16.351 3.88429 16.0972 4.08063C15.4856 4.55365 14.1192 5.89911 14.19 6.77078C14.2455 7.45356 14.3757 8.11949 14.3757 8.89126ZM8.63626 20.6951C8.7282 20.8789 8.92594 21.1451 9.02367 21.2865C9.32974 21.7294 9.64027 22.1863 9.78178 22.711L10.6657 25.9883L7.60805 24.5358C7.60229 24.5339 7.5962 24.5319 7.58976 24.53L7.93313 28.9504C8.37593 32.1017 9.15019 35.7446 10.7185 38.5332C10.8862 38.8314 11.0739 39.0946 11.2299 39.3707C11.6717 39.0123 12.2347 38.7321 12.9168 38.2599C14.8665 36.91 17.2685 34.2726 18.5868 32.3074C19.12 31.5125 19.646 30.7127 20.1486 29.8985C20.3799 29.5239 20.8712 28.7466 21.1547 28.1634C20.9698 28.0737 20.7694 27.984 20.6422 27.9088L20.5899 27.8778L16.2797 24.8561H21.2341C21.4012 24.8561 21.7951 24.8406 22.0369 24.7775L22.597 22.6634C22.9286 21.2717 23.4642 18.0967 23.223 16.5231L20.0871 15.7998L22.9197 13.6945L22.9441 13.6777C23.2276 13.4831 23.4902 13.3571 23.7674 13.1969C23.903 12.9679 24.0578 12.5602 24.1444 12.3508C24.9506 10.4 25.6483 8.7371 26.0079 6.63723C26.138 5.87733 26.2919 5.09031 26.364 4.32307C26.4177 3.7508 26.4242 3.16003 26.4241 2.57745C26.3562 2.57001 26.2911 2.56465 26.2385 2.5609H24.3853C22.0414 2.5609 19.5168 3.44687 17.6499 4.83083C17.4495 4.97931 17.2672 5.15637 17.0677 5.31064C16.7523 5.55461 15.9447 6.34252 15.7715 6.76341C15.8362 7.47977 15.9522 8.15773 15.9522 8.89128V11.9696L13.4439 10.1503C13.2035 9.97594 13.0106 9.76614 12.8333 9.53992C11.4237 12.1223 10.3497 14.591 9.41937 17.3947C9.19975 18.0566 8.69693 19.9098 8.63626 20.6951Z" stroke="#A7A7A7" stroke-width="0.5"/>
<path fill-rule="evenodd" clip-rule="evenodd" d="M4.08016 46.8787H5.63739V45.5874C5.63739 45.5705 5.6381 45.5537 5.63945 45.537C5.40557 45.4785 5.23117 45.2678 5.23117 45.0187C5.23117 44.7247 5.47413 44.4841 5.77109 44.4841H14.0863C14.3833 44.4841 14.6263 44.7247 14.6263 45.0187C14.6263 45.2678 14.4519 45.4785 14.218 45.537C14.2193 45.5537 14.22 45.5705 14.22 45.5874V46.8787H15.7773C17.4714 46.8787 18.8575 48.2509 18.8575 49.9281V56.9505C18.8575 58.6277 17.4714 60 15.7773 60H4.08018C2.38608 60 1 58.6277 1 56.9505V49.9281C1 48.2509 2.38605 46.8787 4.08016 46.8787ZM12.6435 46.0449H7.21392V48.4395H4.08016C3.25623 48.4395 2.5765 49.1124 2.5765 49.9281V56.9505C2.5765 57.7662 3.25623 58.4392 4.08016 58.4392H15.7772C16.6012 58.4392 17.2809 57.7662 17.2809 56.9505V49.9281C17.2809 49.1124 16.6012 48.4395 15.7772 48.4395H12.6435V46.0449ZM6.12295 51.0041H13.7344C14.168 51.0041 14.5227 51.3553 14.5227 51.7845C14.5227 52.2138 14.168 52.565 13.7344 52.565H6.12295C5.68941 52.565 5.33468 52.2138 5.33468 51.7845C5.33468 51.3553 5.68941 51.0041 6.12295 51.0041ZM6.12295 53.984H13.7344C14.168 53.984 14.5227 54.3352 14.5227 54.7644C14.5227 55.1936 14.168 55.5448 13.7344 55.5448H6.12295C5.68941 55.5448 5.33468 55.1936 5.33468 54.7644C5.33468 54.3352 5.68941 53.984 6.12295 53.984Z" stroke="#A7A7A7" stroke-width="0.5"/>
</svg>
