<svg width="33" height="44" viewBox="0 0 33 44" fill="none" xmlns="http://www.w3.org/2000/svg">
<path fill-rule="evenodd" clip-rule="evenodd" d="M10.5537 15.4157L14.663 19.6376L22.4463 11.641C23.0837 10.9861 24.1334 10.9853 24.7752 11.6357C25.4171 12.2861 25.4179 13.3512 24.7804 14.0061L15.9422 23.0867C15.9073 23.13 15.8699 23.1721 15.8301 23.2124C15.1882 23.8628 14.1386 23.862 13.5011 23.2071L8.21956 17.7808C7.58216 17.1259 7.58288 16.0608 8.22478 15.4104C8.86665 14.76 9.91625 14.7608 10.5537 15.4157L10.5537 15.4157ZM16.342 43.9633C6.35032 39.0555 0 28.7592 0 17.4674V4.17331L0.203034 4.07183C11.0606 -1.35728 21.9394 -1.35728 32.7969 4.07183L33 4.17331V17.4674C33 28.7592 26.6497 39.0555 16.658 43.9633L16.5832 44H16.4168L16.342 43.9633ZM16.5 41.2731C25.1511 36.605 30.5699 27.4458 30.5699 17.4674V5.73559C21.1667 1.38678 11.8333 1.38673 2.43005 5.73559V17.4674C2.43005 27.4458 7.8488 36.605 16.5 41.2731H16.5Z" fill="#A7A7A7"/>
</svg>
