<svg width="33" height="44" viewBox="0 0 33 44" fill="none" xmlns="http://www.w3.org/2000/svg">
<path fill-rule="evenodd" clip-rule="evenodd" d="M0 17.4674C0 28.7592 6.35032 39.0555 16.342 43.9633L16.4168 44H16.5832L16.658 43.9633C26.6497 39.0555 33 28.7592 33 17.4674V4.17332L32.7969 4.07183C21.9394 -1.35728 11.0606 -1.35728 0.203034 4.07183L0 4.17332V17.4674ZM30.5699 17.4674C30.5699 27.4458 25.1511 36.605 16.5 41.2731C7.84883 36.605 2.43005 27.4458 2.43005 17.4674V5.73559C11.8333 1.38673 21.1667 1.38678 30.5699 5.73559V17.4674ZM18.987 14.436C19.5683 13.8547 20.5107 13.8547 21.092 14.436C21.6733 15.0173 21.6733 15.9597 21.092 16.541L18.369 19.264L21.092 21.987C21.6733 22.5683 21.6733 23.5107 21.092 24.092C20.5107 24.6733 19.5683 24.6733 18.987 24.092L16.264 21.369L13.541 24.092C12.9597 24.6733 12.0173 24.6733 11.436 24.092C10.8547 23.5107 10.8547 22.5683 11.436 21.987L14.159 19.264L11.436 16.541C10.8547 15.9597 10.8547 15.0173 11.436 14.436C12.0173 13.8547 12.9597 13.8547 13.541 14.436L16.264 17.159L18.987 14.436Z" fill="#A7A7A7"/>
</svg>
