<svg width="30" height="43" viewBox="0 0 30 43" fill="none" xmlns="http://www.w3.org/2000/svg">
<path d="M10.82 28.72L8.83986 29.0011L9.08389 30.72H10.82V28.72ZM9.44 19L8.02578 17.5858L7.31944 18.2921L7.45986 19.2811L9.44 19ZM9.74 18.7L9.66006 16.7016L8.87872 16.7328L8.32578 17.2858L9.74 18.7ZM18.8 10L17.5586 11.5681L17.5791 11.5843L17.6 11.6L18.8 10ZM5.72 13L4.24145 14.3468L5.65252 15.8959L7.13421 14.4142L5.72 13ZM0.2 6.94L-1.28112 5.59602L-2.503 6.94258L-1.27855 8.2868L0.2 6.94ZM25.46 3.76L24.1796 5.29644L25.46 3.76ZM17.6 25.06L17.202 23.1L15.8725 23.3699L15.6317 24.7051L17.6 25.06ZM16.94 28.72V30.72H18.6116L18.9083 29.0749L16.94 28.72ZM8.84 43H6.84V45H8.84V43ZM8.84 33.4V31.4H6.84V33.4H8.84ZM18.56 33.4H20.56V31.4H18.56V33.4ZM18.56 43V45H20.56V43H18.56ZM12.8001 28.4389L11.4201 18.7189L7.45986 19.2811L8.83986 29.0011L12.8001 28.4389ZM10.8542 20.4142L11.1542 20.1142L8.32578 17.2858L8.02578 17.5858L10.8542 20.4142ZM9.81994 20.6984C13.4235 20.5543 16.4071 20.0018 18.5536 18.8611C20.836 17.6482 22.24 15.7071 22.24 13.12H18.24C18.24 13.9729 17.894 14.6818 16.6764 15.3289C15.3229 16.0482 13.0565 16.5657 9.66006 16.7016L9.81994 20.6984ZM22.24 13.12C22.24 11.2265 21.5358 9.55184 20 8.4L17.6 11.6C17.9842 11.8882 18.24 12.2935 18.24 13.12H22.24ZM20.0414 8.43191C18.6025 7.29277 16.7389 6.86 14.72 6.86V10.86C16.2211 10.86 17.0775 11.1872 17.5586 11.5681L20.0414 8.43191ZM14.72 6.86C10.8438 6.86 7.35878 8.53279 4.30579 11.5858L7.13421 14.4142C9.60122 11.9472 12.1162 10.86 14.72 10.86V6.86ZM7.19855 11.6532L1.67855 5.5932L-1.27855 8.2868L4.24145 14.3468L7.19855 11.6532ZM1.68112 8.28398C5.21859 4.38555 9.57899 2.46 14.9 2.46V-1.54C8.46101 -1.54 3.02142 0.854447 -1.28112 5.59602L1.68112 8.28398ZM14.9 2.46C18.966 2.46 21.99 3.47174 24.1796 5.29644L26.7404 2.22356C23.65 -0.351749 19.634 -1.54 14.9 -1.54V2.46ZM24.1796 5.29644C26.2914 7.05621 27.42 9.53255 27.42 13H31.42C31.42 8.54745 29.9087 4.86379 26.7404 2.22355L24.1796 5.29644ZM27.42 13C27.42 15.7782 26.5868 17.8635 25.0366 19.4451C23.4426 21.0715 20.911 22.3469 17.202 23.1L17.998 27.02C22.169 26.1731 25.5474 24.6385 27.8934 22.2449C30.2832 19.8065 31.42 16.6618 31.42 13H27.42ZM15.6317 24.7051L14.9717 28.3651L18.9083 29.0749L19.5683 25.4149L15.6317 24.7051ZM16.94 26.72H10.82V30.72H16.94V26.72ZM10.84 43V33.4H6.84V43H10.84ZM8.84 35.4H18.56V31.4H8.84V35.4ZM16.56 33.4V43H20.56V33.4H16.56ZM18.56 41H8.84V45H18.56V41Z" fill="#A7A7A7"/>
</svg>
