<svg width="17" height="21" viewBox="0 0 17 21" fill="none" xmlns="http://www.w3.org/2000/svg">
<path fill-rule="evenodd" clip-rule="evenodd" d="M9.6103 5.92799C10.2651 5.6765 11.4409 5.35931 11.8533 5.32759C12.0255 5.31174 12.5058 5.33666 12.8048 5.37291C13.7609 5.48845 14.6898 5.93252 15.4511 6.63486C15.5961 6.7708 15.9722 7.20806 16.0198 7.29869C16.0787 7.41197 16.0266 7.48674 15.7955 7.62494C15.5372 7.77674 15.2517 8.03502 14.853 8.47455C14.5516 8.80533 14.3794 9.12025 14.2005 9.66627C13.9444 10.4434 13.8901 10.9441 13.9852 11.6102C14.0826 12.2989 14.137 12.4847 14.384 12.9809C14.7669 13.7512 15.4058 14.4128 16.1149 14.773C16.5295 14.9837 16.6224 15.0834 16.5318 15.2216C16.5114 15.251 16.4706 15.3666 16.4412 15.4753C16.2644 16.1346 15.5961 17.4056 14.9527 18.3096C14.384 19.1071 13.7813 19.712 13.2534 20.0224C12.8275 20.2717 12.5737 20.3442 12.1365 20.3419C11.6403 20.3419 11.2506 20.2467 10.4712 19.9363C9.94788 19.7302 9.79382 19.6826 9.51061 19.6531C9.386 19.6395 9.21382 19.6146 9.12546 19.5965C8.89663 19.5489 8.71085 19.5557 8.39819 19.6192C8.24866 19.6509 8.0085 19.7007 7.86577 19.7302C7.67546 19.7687 7.50327 19.8276 7.23139 19.9431C6.76467 20.1403 6.58569 20.2037 6.30702 20.2739C5.81991 20.3963 5.52084 20.4076 5.17873 20.3215C4.8978 20.2513 4.47412 20.0451 4.22944 19.8616C4.0142 19.703 3.57014 19.2521 3.32998 18.9508C3.0853 18.6427 2.48717 17.8067 2.17678 17.3377C1.84147 16.8279 1.66475 16.4699 1.29318 15.541C1.02357 14.8636 0.982793 14.7413 0.851387 14.227C0.774356 13.9166 0.688262 13.579 0.66334 13.4816C0.636153 13.3819 0.615762 13.255 0.615762 13.1961C0.615762 13.1395 0.595371 13.0013 0.570449 12.8903C0.375605 11.9931 0.375605 10.5181 0.570449 9.74783C0.649746 9.4397 0.851387 8.85517 0.98959 8.54025C1.556 7.23525 2.32858 6.38564 3.43647 5.84416C3.78311 5.6765 4.0278 5.5972 4.46733 5.51791C4.6735 5.48166 4.94764 5.42728 5.07678 5.40009C5.29428 5.35478 5.33506 5.35252 5.58655 5.37517C5.761 5.39103 5.96717 5.42955 6.14842 5.47939C6.30702 5.52244 6.53131 5.58135 6.64686 5.60853C6.76241 5.63572 7.0728 5.7422 7.33335 5.84416C8.05608 6.12963 8.43217 6.24517 8.62475 6.24517C8.62928 6.24517 8.63368 6.24518 8.63795 6.24519C8.79182 6.24542 8.79247 6.24542 9.6103 5.92799ZM10.4192 1.33999C10.9834 0.96163 11.5883 0.710146 12.0709 0.646709C12.4945 0.592335 12.5104 0.605928 12.5104 0.966162C12.5104 1.73194 12.3677 2.39124 12.0663 3.01882C11.833 3.50819 11.6336 3.77327 11.0038 4.41671C10.596 4.83585 10.1089 5.09413 9.36573 5.29124C9.10971 5.35921 9.08932 5.36147 8.77213 5.34788C8.48667 5.33655 8.43909 5.32976 8.40737 5.29124C8.38018 5.25726 8.36885 5.1689 8.35753 4.91288C8.34167 4.53452 8.36885 4.34648 8.51159 3.87523C8.8469 2.7696 9.4201 2.00608 10.4192 1.33999Z" fill="#BED1E6"/>
</svg>
