<svg width="25" height="23" viewBox="0 0 25 23" fill="none" xmlns="http://www.w3.org/2000/svg">
<path fill-rule="evenodd" clip-rule="evenodd" d="M20.4638 23H20.951C21.3838 22.9716 21.8185 22.8664 22.2065 22.6703C23.3851 22.0747 24.2554 21.0006 24.2554 19.6353V12.1026C24.2554 11.8821 24.0332 11.6996 23.8412 11.6348C23.5568 11.5388 23.3024 11.6423 23.1334 11.8848C22.9935 12.0855 23.0501 12.5181 23.0501 12.7554L23.0513 19.2347C23.0515 20.534 22.2513 21.6539 20.9046 21.7707C19.9419 21.8542 19.075 21.3544 18.6351 20.4985C18.4868 20.2102 18.3799 19.8606 18.3799 19.5349V13.7598C18.3799 13.5714 18.5207 13.2689 18.6509 13.133C18.8535 12.9215 19.1769 12.8315 19.4633 12.855C19.8083 12.8832 20.1031 13.0684 20.2558 13.3831C20.3924 13.6649 20.3631 15.7175 20.3618 16.1092C20.3589 16.9668 20.3403 17.8246 20.3383 18.6817C20.3377 18.9466 20.3075 19.2593 20.4477 19.496C20.7454 19.9983 21.5939 19.84 21.5939 19.1834V13.81C21.5939 13.1033 21.2867 12.4786 20.7156 12.0604C20.2027 11.6849 19.5281 11.5217 18.9022 11.6446C18.5862 11.7067 18.292 11.8403 18.0422 12.0445C17.3142 12.6394 17.1243 13.2252 17.1243 14.1615V19.2336C17.1243 20.6592 17.776 21.9244 19.0436 22.606C19.4775 22.8394 19.9731 22.968 20.4638 23ZM2.81215 10.6463C2.81215 11.1866 3.17924 11.5 3.6156 11.5H14.8645C15.9168 11.5 16.0194 9.84282 14.7138 9.84282H3.76626C3.24644 9.84282 2.81215 10.1118 2.81215 10.6463ZM2.81215 14.8647C2.81215 15.4202 3.15101 15.7686 3.51519 15.7686H14.9649C15.3291 15.7686 15.668 15.4202 15.668 14.8647C15.668 14.551 15.2785 14.1616 14.9649 14.1616H3.51519C3.2016 14.1616 2.81215 14.551 2.81215 14.8647ZM2.81215 6.27734C2.81215 6.87498 3.09418 7.23151 3.76626 7.23151H9.3405C10.702 7.23151 10.5536 5.5743 9.49116 5.5743H3.6156C3.22301 5.5743 2.81215 5.90746 2.81215 6.27734ZM2.41042 0H15.9694C17.2952 0 18.3799 1.08466 18.3799 2.41042V10.2201C17.923 10.3419 17.4962 10.5537 17.1245 10.8492V2.41042C17.1245 1.77512 16.6047 1.25536 15.9694 1.25536H2.41042C1.77512 1.25536 1.25536 1.77512 1.25536 2.41042V20.5393C1.25536 21.1746 1.77512 21.6943 2.41042 21.6943H15.9694C16.0348 21.6943 16.0987 21.6887 16.1611 21.6782C16.3515 22.0715 16.5906 22.4385 16.8769 22.7712C16.5964 22.8861 16.29 22.9497 15.9694 22.9497H2.41042C1.08466 22.9497 0 21.865 0 20.5393V2.41042C0 1.08466 1.08466 0 2.41042 0Z" fill="#878787"/>
</svg>
