<svg width="22" height="23" viewBox="0 0 22 23" fill="none" xmlns="http://www.w3.org/2000/svg">
<path fill-rule="evenodd" clip-rule="evenodd" d="M9.03422 2.21292V20.4335C9.03422 20.8591 8.95057 21.3239 8.62884 21.6186C8.26206 21.9525 7.35478 22.09 6.89149 22.1554C6.84001 22.1685 6.62123 22.2143 6.58263 22.2733C6.53758 22.3584 6.52472 22.4697 6.52472 22.5679C6.52472 22.6661 6.53115 22.7709 6.54402 22.8691C6.55045 22.9083 6.55045 22.9542 6.56332 23C7.29044 22.9542 8.02398 22.9149 8.7511 22.8887C9.50395 22.856 10.2568 22.8363 11.0097 22.8363C11.7625 22.8363 12.5154 22.856 13.2682 22.8887C14.0018 22.9214 14.7289 22.9542 15.4624 23C15.4689 22.9542 15.4689 22.9149 15.4753 22.8691C15.4817 22.7709 15.4946 22.6661 15.4946 22.5679C15.4946 22.3322 15.3723 22.234 15.16 22.1947C14.7996 22.1423 14.4007 22.0703 14.0468 21.959C13.8152 21.8804 13.5706 21.7757 13.3776 21.612C13.2103 21.468 13.088 21.2912 13.0366 21.0752C12.9915 20.8722 12.9786 20.6496 12.9786 20.4401V2.21947H16.2796C16.8394 2.21947 17.425 2.2653 17.9655 2.42243C18.4288 2.55337 18.8535 2.76288 19.2331 3.07059C19.6192 3.37831 19.9345 3.77114 20.1919 4.1967C20.282 4.34728 21.1635 5.29007 21.3758 5.29007C21.511 5.29007 21.6461 5.25733 21.7748 5.2115C21.852 5.18531 21.9228 5.15912 22 5.13293C21.8584 4.70083 21.7297 4.26217 21.6268 3.81697C21.5238 3.38486 21.4338 2.9462 21.363 2.50754C21.26 2.02306 21.1764 1.52548 21.1313 1.0279C21.112 0.779106 21.0798 0.425562 20.9962 0.183319C20.919 0.0458298 20.8032 0 20.6423 0C20.1468 0 19.6063 0.058924 19.1109 0.104754C18.21 0.189866 17.2899 0.209508 16.3826 0.209508H5.6303C4.71015 0.209508 3.78356 0.189866 2.86985 0.104754C2.38725 0.058924 1.85317 0 1.37058 0C1.22258 0 1.08745 0.0327356 1.02311 0.176772C0.933021 0.425562 0.894414 0.779106 0.86224 1.04099C0.810763 1.53202 0.733548 2.02306 0.649898 2.50754C0.572682 2.95275 0.482597 3.3914 0.366774 3.82351C0.250951 4.26217 0.128693 4.70083 0 5.13948C0.0707809 5.16567 0.141562 5.19186 0.212343 5.2115C0.34747 5.25078 0.495467 5.29007 0.630594 5.29007C0.817198 5.29007 1.69874 4.32764 1.78239 4.1967C2.03978 3.77114 2.35507 3.38486 2.74115 3.07059C3.11436 2.76943 3.54548 2.55992 4.00877 2.42243C4.55572 2.2653 5.16057 2.21947 5.72682 2.21947H9.02779L9.03422 2.21292Z" fill="#7D7D7D"/>
</svg>
