<?xml version="1.0" encoding="UTF-8"?>
<!DOCTYPE svg PUBLIC "-//W3C//DTD SVG 1.1//EN" "http://www.w3.org/Graphics/SVG/1.1/DTD/svg11.dtd">
<!-- Creator: CorelDRAW -->
<svg xmlns="http://www.w3.org/2000/svg" xml:space="preserve" width="23.8214mm" height="23.8214mm" version="1.1" style="shape-rendering:geometricPrecision; text-rendering:geometricPrecision; image-rendering:optimizeQuality; fill-rule:evenodd; clip-rule:evenodd"
viewBox="0 0 86.76 86.76"
 xmlns:xlink="http://www.w3.org/1999/xlink"
 xmlns:xodm="http://www.corel.com/coreldraw/odm/2003">
 <defs>
  <style type="text/css">
   <![CDATA[
    .fil0 {fill:#42210B}
   ]]>
  </style>
 </defs>
 <g id="Слой_x0020_1">
  <metadata id="CorelCorpID_0Corel-Layer"/>
  <path class="fil0" d="M43.38 20.63c4.47,0 8.09,3.62 8.09,8.09 0,4.47 -3.62,8.09 -8.09,8.09 -4.47,0 -8.09,-3.62 -8.09,-8.09 0,-4.47 3.62,-8.09 8.09,-8.09zm-27.06 48.21c6.78,-7.2 16.39,-11.69 27.06,-11.69 10.67,0 20.28,4.5 27.06,11.69 -6.78,7.2 -16.39,11.69 -27.06,11.69 -10.67,0 -20.28,-4.5 -27.06,-11.69zm58.02 -4.92c-7.87,-8.02 -18.84,-13 -30.97,-13 -12.13,0 -23.09,4.98 -30.97,13 -3.91,-5.88 -6.19,-12.94 -6.19,-20.53 0,-20.52 16.63,-37.15 37.15,-37.15 20.52,0 37.15,16.63 37.15,37.15 0,7.59 -2.28,14.65 -6.19,20.53zm0 9.85c1.51,-1.53 2.9,-3.18 4.16,-4.92 5.19,-7.15 8.25,-15.95 8.25,-25.46 0,-23.96 -19.42,-43.38 -43.38,-43.38 -23.96,0 -43.38,19.42 -43.38,43.38 0,9.51 3.06,18.31 8.25,25.46 1.27,1.74 2.66,3.39 4.16,4.92 7.87,8.02 18.84,13 30.97,13 12.13,0 23.09,-4.98 30.97,-13zm-30.97 -30.61c7.97,0 14.43,-6.46 14.43,-14.43 0,-7.97 -6.46,-14.43 -14.43,-14.43 -7.97,0 -14.43,6.46 -14.43,14.43 0,7.97 6.46,14.43 14.43,14.43z"/>
 </g>
</svg>
