<?xml version="1.0" encoding="UTF-8"?>
<!DOCTYPE svg PUBLIC "-//W3C//DTD SVG 1.1//EN" "http://www.w3.org/Graphics/SVG/1.1/DTD/svg11.dtd">
<!-- Creator: CorelDRAW -->
<svg xmlns="http://www.w3.org/2000/svg" xml:space="preserve" width="21.4201mm" height="21.2313mm" version="1.1" style="shape-rendering:geometricPrecision; text-rendering:geometricPrecision; image-rendering:optimizeQuality; fill-rule:evenodd; clip-rule:evenodd"
viewBox="0 0 48.39 47.96"
 xmlns:xlink="http://www.w3.org/1999/xlink"
 xmlns:xodm="http://www.corel.com/coreldraw/odm/2003">
 <defs>
  <style type="text/css">
   <![CDATA[
    .fil0 {fill:#42210B}
   ]]>
  </style>
 </defs>
 <g id="Слой_x0020_1">
  <metadata id="CorelCorpID_0Corel-Layer"/>
  <path class="fil0" d="M0.38 42.62l-0.32 1.56c-0.19,0.93 0.04,1.89 0.64,2.62 0.6,0.74 1.49,1.16 2.44,1.16 0.23,0 0.45,-0.02 0.68,-0.07l1.51 -0.33 -4.94 -4.95zm17.5 1.65l-13.78 -13.71c-0.43,0.77 -0.75,1.6 -0.93,2.47l-1.22 5.97 7.53 7.53 5.89 -1.28c0.89,-0.19 1.74,-0.52 2.51,-0.97zm-2.94 -8.23l5.8 5.77 21.55 -21.54 -5.8 -5.77 -21.55 21.54zm-2.66 -2.65l21.55 -21.54 -5.75 -5.72 -21.54 21.54 5.74 5.71zm18.46 -29.91l14.21 14.14 1.84 -1.84c2.14,-2.14 2.14,-5.62 -0,-7.76l-6.41 -6.41c-1.07,-1.07 -2.48,-1.61 -3.89,-1.61 -1.41,0 -2.81,0.53 -3.88,1.61l-1.87 1.87z"/>
 </g>
</svg>
