<?xml version="1.0" encoding="UTF-8"?>
<!DOCTYPE svg PUBLIC "-//W3C//DTD SVG 1.1//EN" "http://www.w3.org/Graphics/SVG/1.1/DTD/svg11.dtd">
<!-- Creator: CorelDRAW -->
<svg xmlns="http://www.w3.org/2000/svg" xml:space="preserve" width="20.2502mm" height="28.952mm" version="1.1" style="shape-rendering:geometricPrecision; text-rendering:geometricPrecision; image-rendering:optimizeQuality; fill-rule:evenodd; clip-rule:evenodd"
viewBox="0 0 58.88 84.18"
 xmlns:xlink="http://www.w3.org/1999/xlink"
 xmlns:xodm="http://www.corel.com/coreldraw/odm/2003">
 <defs>
  <style type="text/css">
   <![CDATA[
    .fil0 {fill:#42210B;fill-rule:nonzero}
   ]]>
  </style>
 </defs>
 <g id="Слой_x0020_1">
  <metadata id="CorelCorpID_0Corel-Layer"/>
  <path class="fil0" d="M20.93 18.21l16.45 0 0 -5.27c0,-1 -0.82,-1.82 -1.82,-1.82l-12.8 0c-1.01,0 -1.83,0.82 -1.83,1.83l0 5.26zm-1.12 23.16c-0.94,-0.95 -2.48,-0.95 -3.42,-0.02 -0.95,0.94 -0.95,2.48 -0.02,3.42l7.59 7.66 1.13 1.14c0.91,0.44 2.03,0.28 2.78,-0.47l1.78 -1.8 15.19 -15.34c0.94,-0.95 0.93,-2.49 -0.02,-3.42 -0.95,-0.94 -2.49,-0.93 -3.42,0.02l-15.15 15.31 -6.43 -6.5zm-9.59 -24.84c-3.12,0 -5.67,2.55 -5.67,5.67l0 51.76c0,3.12 2.55,5.67 5.67,5.67l38.44 0c3.12,0 5.67,-2.55 5.67,-5.67l0 -51.76c0,-3.12 -2.55,-5.67 -5.67,-5.67l-3.89 0 0 -4.55 3.89 0c5.62,0 10.22,4.6 10.22,10.22l0 51.76c0,5.62 -4.6,10.22 -10.22,10.22l-38.44 0c-5.62,0 -10.22,-4.6 -10.22,-10.22l0 -51.76c0,-5.62 4.6,-10.22 10.22,-10.22l2.91 0 0 4.55 -2.91 0zm11.62 -9.43c-0,-0.05 -0,-0.1 -0,-0.15 0,-3.83 3.11,-6.94 6.94,-6.94 3.83,0 6.94,3.11 6.94,6.94 0,0.05 -0,0.1 -0,0.15l1.77 0c2.13,0 3.88,1.75 3.88,3.88l0 11.68 -24.85 0 0 -11.68c0,-2.13 1.74,-3.88 3.88,-3.88l1.44 0zm4.55 0l4.78 0c0,-0.05 0,-0.1 0,-0.15 0,-1.32 -1.07,-2.39 -2.39,-2.39 -1.32,0 -2.39,1.07 -2.39,2.39 0,0.05 0,0.1 0,0.15zm15.1 62.6l-24.12 0c-1.33,0 -2.42,1.09 -2.42,2.42 0,1.33 1.09,2.42 2.42,2.42l24.12 0c1.33,0 2.42,-1.09 2.42,-2.42 0,-1.33 -1.09,-2.42 -2.42,-2.42zm-24.12 -4.05l24.12 0c1.33,0 2.42,-1.09 2.42,-2.42 0,-1.33 -1.09,-2.42 -2.42,-2.42l-24.12 0c-1.33,0 -2.42,1.09 -2.42,2.42 0,1.33 1.09,2.42 2.42,2.42z"/>
 </g>
</svg>
