<?xml version="1.0" encoding="UTF-8"?>
<!DOCTYPE svg PUBLIC "-//W3C//DTD SVG 1.1//EN" "http://www.w3.org/Graphics/SVG/1.1/DTD/svg11.dtd">
<!-- Creator: CorelDRAW -->
<svg xmlns="http://www.w3.org/2000/svg" xml:space="preserve" width="20.401mm" height="22.4158mm" version="1.1" style="shape-rendering:geometricPrecision; text-rendering:geometricPrecision; image-rendering:optimizeQuality; fill-rule:evenodd; clip-rule:evenodd"
viewBox="0 0 46.63 51.24"
 xmlns:xlink="http://www.w3.org/1999/xlink"
 xmlns:xodm="http://www.corel.com/coreldraw/odm/2003">
 <defs>
  <style type="text/css">
   <![CDATA[
    .fil0 {fill:#42210B}
   ]]>
  </style>
 </defs>
 <g id="Слой_x0020_1">
  <metadata id="CorelCorpID_0Corel-Layer"/>
  <path class="fil0" d="M-0 23.32c0,6.69 2.82,12.71 7.33,16.97 -0.87,4.36 -1.4,6.47 -2.6,10.96 4.02,-2.91 5.39,-3.87 9.16,-6.59 2.88,1.28 6.07,1.99 9.43,1.99 12.88,0 23.32,-10.44 23.32,-23.32 0,-12.88 -10.44,-23.32 -23.32,-23.32 -12.88,0 -23.32,10.44 -23.32,23.32zm22.05 10.05l-10.57 0c-1.11,0 -2.03,-0.91 -2.03,-2.03 0,-1.11 0.91,-2.03 2.03,-2.03l10.57 0c1.11,0 2.03,0.91 2.03,2.03 0,1.11 -0.91,2.03 -2.03,2.03zm14.01 -8.26l-24.58 0c-1.12,0 -2.03,-0.91 -2.03,-2.03 0,-1.11 0.91,-2.03 2.03,-2.03l24.58 0c1.12,0 2.03,0.91 2.03,2.03 0,1.11 -0.91,2.03 -2.03,2.03zm0 -8.43l-24.58 0c-1.12,0 -2.03,-0.91 -2.03,-2.03 0,-1.11 0.91,-2.03 2.03,-2.03l24.58 0c1.12,0 2.03,0.91 2.03,2.03 0,1.11 -0.91,2.03 -2.03,2.03z"/>
 </g>
</svg>
