<svg id="Layer_1" data-name="Layer 1" xmlns="http://www.w3.org/2000/svg" viewBox="0 0 738.08 547.96"><path d="M863.72,597.78l-20.17,11.65C860.89,657.65,841.9,713,796,739.48s-103.3,15.33-136.4-23.77l-20.17,11.65c39.69,50,111.18,65,168.11,32.08S887.24,657.16,863.72,597.78Z" transform="translate(-134.81 -229)"/><path d="M687.92,552.39c45.89-26.51,103.3-15.33,136.4,23.77l20.18-11.65c-39.7-50-111.19-65-168.12-32.08S596.69,634.7,620.2,694.09l20.18-11.66C623,634.22,642,578.91,687.92,552.39Z" transform="translate(-134.81 -229)"/><polygon points="13.38 387.68 375.44 387.68 192.14 199.82 13.38 387.68"/><path d="M595.94,451.88l-92.23,99.91,61.49,61.48s15.37-46.11,38.42-69.17,53.8-38.42,53.8-38.42Z" transform="translate(-134.81 -229)"/><path d="M476.81,501.83,588.25,390.39l88.39,88.39h73V229H134.81V536.42l188.3-188.3Zm0-219.31a27.18,27.18,0,1,1-27.17,27.18A27.18,27.18,0,0,1,476.81,282.52Z" transform="translate(-134.81 -229)"/><path d="M745.05,646.54c-16.48,14.77-44.83,4.76-49.31-9.83l-15.26,15.48s23.27,30.57,46.33,30.41,30.68-7.9,30.68-7.9l38.7,38.15,7.43-7.53,7.51-7.51L772.7,659.38s7.69-7.68,7.69-30.74-30.74-46.11-30.74-46.11L734.28,597.9S765,628.64,745.05,646.54Z" transform="translate(-134.81 -229)"/></svg>