<svg id="Layer_1" data-name="Layer 1" xmlns="http://www.w3.org/2000/svg" viewBox="0 0 620.05 491.37"><defs><style>.cls-1{fill:#fff;}</style></defs><path d="M213.57,663.45V235.6L768,234V661.84ZM223,245V654l535.59-1.55v-409Z" transform="translate(-213.57 -234)"/><path d="M658.72,347.49a25.39,25.39,0,1,1,25.39-25.39A25.42,25.42,0,0,1,658.72,347.49Zm0-44.49a19.1,19.1,0,1,0,19.1,19.1A19.12,19.12,0,0,0,658.72,303Z" transform="translate(-213.57 -234)"/><polyline class="cls-1" points="4.72 368.09 239.88 132.93 378.3 271.35 444.36 205.28 548.96 309.89"/><polygon points="8.05 371.42 1.38 364.75 239.88 126.25 378.3 264.68 444.36 198.61 552.3 306.55 545.63 313.22 444.36 211.96 378.3 278.02 239.88 139.6 8.05 371.42"/><line class="cls-1" x1="394.81" y1="254.83" x2="344.48" y2="305.17"/><rect x="547.62" y="509.28" width="71.18" height="9.44" transform="translate(-406.2 328.94) rotate(-45)"/><polygon points="568.14 9.58 568.14 442.63 17.87 442.63 17.87 452.06 577.58 452.06 577.58 9.58 568.14 9.58"/><polygon points="588.59 28.44 588.59 461.48 38.32 461.48 38.32 470.92 598.03 470.92 598.03 28.44 588.59 28.44"/><polygon points="610.62 48.88 610.62 481.93 60.34 481.93 60.34 491.37 620.05 491.37 620.05 48.88 610.62 48.88"/></svg>