<svg xmlns="http://www.w3.org/2000/svg" width="1000" height="1000" viewBox="0 0 1000 1000">
  <defs>
    <style>
      .cls-1 {
        fill-rule: evenodd;
      }
    </style>
  </defs>
  <path id="_9" data-name="9" class="cls-1" d="M703.974,776H293.425A68.446,68.446,0,0,1,225,707.534V296.712C225,258.9,256.085,225,293.876,225h275.5v34.438h-275.5c-18.895,0-34.664,18.365-34.664,37.273V707.534a34.226,34.226,0,0,0,34.213,34.235H703.974c18.895,0,37.588-15.734,37.588-34.642v-275.5H776v275.5C776,744.939,741.765,776,703.974,776ZM499.492,610.093c-5,5.007-11.266,7.51-17.724,8.768l-149.8,74.1c-16.859,7.827-30.362-7.293-24.15-24.166l74.046-149.9c1.257-6.463,3.76-12.73,8.761-17.736L656.739,234.871a34.2,34.2,0,0,1,48.384,0l60.479,60.52a34.251,34.251,0,0,1,0,48.416Zm-158.907,38c-3.913,7.893,3.645,16,12.075,12.085l92.5-56.031-48.584-48.615Zm86.332-110.617,36.288,36.313,12.1,12.1L668.835,392.224l-60.911-60.087-193.1,193.23ZM729.315,307.5l-36.288-36.314a17.1,17.1,0,0,0-24.191,0l-35.421,35.444,59.611,61.388L729.315,331.7A17.124,17.124,0,0,0,729.315,307.5Z"/>
</svg>
