<svg xmlns="http://www.w3.org/2000/svg" width="1000" height="1000" viewBox="0 0 1000 1000">
  <defs>
    <style>
      .cls-1 {
        fill-rule: evenodd;
      }
    </style>
  </defs>
  <path id="_4_" data-name="4 " class="cls-1" d="M513.366,733.324c-59.693,45.913-145.954,41.867-200.812-12.382a149.173,149.173,0,0,1-12.519-198.58l-0.929-.918,255.537-252.7c44.567-44.071,116.828-44.074,161.394,0a111.972,111.972,0,0,1,0,159.6L473.948,667.74a76.686,76.686,0,0,1-107.595,0,74.646,74.646,0,0,1,0-106.4l215.188-212.8,26.9,26.6-215.189,212.8a37.318,37.318,0,0,0,0,53.2,38.337,38.337,0,0,0,53.8,0l242.087-239.4a74.647,74.647,0,0,0,0-106.4,76.689,76.689,0,0,0-107.6,0l-242.087,239.4a111.973,111.973,0,0,0,0,159.6c44.566,44.07,116.825,44.07,161.393,0l268.984-266,26.9,26.6-282.435,279.3Z"/>
</svg>
