<svg id="Layer_1" data-name="Layer 1" xmlns="http://www.w3.org/2000/svg" viewBox="0 0 656 656"><defs><style>.cls-1{fill:#fefefe;}</style></defs><path class="cls-1" d="M697.17,803.88q-272.7,0-545.42.12c-4.58,0-5.76-.76-5.75-5.62q.25-197.5.14-395c3.33.14,2.76,2.92,3,4.83,6.14,44.63,25.29,83.12,55,116.57a233.31,233.31,0,0,0,39.51,35.16c4.64,3.29,6.37,7.06,6.34,12.59-.15,31.85-.07,63.69-.07,95.54,0,1.53.06,3.06,0,4.58-.2,4.31,1.52,5.09,5,2.82,5.85-3.81,11.89-7.31,17.81-11,24.8-15.46,50.18-30,74.45-46.28,11.06-7.4,21.92-8.43,34.56-6.92,49,5.9,96.47-1.37,142.15-19.91,26-10.57,50.16-24.62,71.49-43,45.28-38.95,74.55-87.11,80-147.39,5-54.92-10.24-104.69-44.39-148-46.16-58.55-107.78-89.73-180.95-99.31-61-8-119.18,1.79-173.74,30.26-47.28,24.67-84.25,60.12-108.09,108.38-9.84,19.92-15.65,41.11-18.94,63-.34,2.28.55,5.49-3.18,6.13q0-104-.12-208c0-4.29.61-5.45,5.27-5.45q322.83.23,645.67,0c4,0,5,.84,5,5q-.18,323.16,0,646.33c0,4-1,4.66-4.74,4.64-32.92-.18-65.85-.11-98.78-.11-1.84-2.44-1.76-5.3-1.76-8.14,0-33.38.09-66.75-.09-100.12,0-6.08,2.17-10,7.09-13.59,44.79-32.85,76.34-75.16,89.37-129.71,13.55-56.74,4-110-27.28-159.21-12.32-19.39-26.69-37.13-44.92-51.64-1.75,2.16-1,4.42-.95,6.47.06,11.77.38,23.59-1.65,35.23-1.08,6.2.66,10.92,4.44,15.63A169.51,169.51,0,0,1,750,447a176.73,176.73,0,0,1,10.62,49.69c3.26,50.63-14.29,93.45-47.38,130.86A199.5,199.5,0,0,1,666,666.49c-5.51,3.31-7.92,7.13-7.78,13.65.37,17.22.13,34.46.11,51.69a30.27,30.27,0,0,1-.37,6.52c-.67,3-2.46,4-5.3,2.72a40.57,40.57,0,0,1-6.15-3.72c-17.06-11.37-34.22-22.6-51.13-34.19-5.58-3.83-11-5.3-17.79-3.93a200.59,200.59,0,0,1-44.83,4.19C485,702.2,440.14,690.3,399.58,664.25a18.53,18.53,0,0,0-11.69-2.86c-15,.76-30.05,0-46.73.45,5.24,4.9,9.7,8.74,14.29,12.39q65.57,52.13,149,59.95c23.49,2.24,47,2.3,70.43-1.23a23.75,23.75,0,0,1,17.32,3.54c33,20.87,66.54,40.85,99.65,61.54C694.1,799.46,697.17,800.32,697.17,803.88Z" transform="translate(-146 -148)"/><path d="M146.14,361.48c2-9.86,3.61-19.83,6.11-29.56,14.26-55.55,46.69-98.47,93.07-131,54.53-38.31,115.85-54.5,182-51.08,73.28,3.8,137.44,30,189.1,83.32,32.31,33.33,53.17,73,59.52,119.15,8.82,64.14-9.17,121-51.38,169.74-42.38,48.89-96.83,76.8-160.12,88.23a286.13,286.13,0,0,1-95.54,1.33,15.31,15.31,0,0,0-11.06,2.37q-52.53,32.69-105.32,65c-1.07.66-2.16,1.28-4.24,2.51v-6.3c0-34.45-.09-68.91.12-103.37,0-4.6-1.27-7.35-5.07-10.1-45.35-32.84-77.12-75.33-91.26-130.07-2.41-9.3-3.94-18.81-5.88-28.22Z" transform="translate(-146 -148)"/><path d="M697.17,803.88c-11.4-8.28-23.76-15-35.72-22.45q-36.59-22.63-73.26-45.14c-2.57-1.58-4.88-2.68-8.4-2.18-57.22,8.18-112.6,1.77-165.64-21.87a265.05,265.05,0,0,1-76.51-51.38c1.32-2,3.23-.9,4.73-.89,16.56.18,33.13.89,49.65-.89,2.46-.27,4.14.9,6,2.09,41.23,27.18,86.87,39.71,135.92,40.29A210.85,210.85,0,0,0,580.58,697a15.14,15.14,0,0,1,12.78,2.37c19.34,13.3,39,26.17,58.52,39.19,1.39.93,2.83,1.79,5.21,3.29V723.49c0-15.92.15-31.85-.12-47.76-.07-4.29,1.34-6.49,5-8.7,40.4-24.32,71.6-57,87.35-102,20.3-58,10.57-112.15-25.37-161.57-5.32-7.32-9.32-13.64-7.27-23.29,3-14.05,1.46-28.49,1.33-43.71,24.12,20,43.28,43,57.72,70,41.34,77,30.46,169.87-27.65,237.27a251.73,251.73,0,0,1-45.83,41.66c-2.81,2-3.87,3.93-3.85,7.37.13,37.07.08,74.14.08,111.21Z" transform="translate(-146 -148)"/><path class="cls-1" d="M289.64,619.16c0-23-.13-44.58.11-66.16.05-4.27-1.34-6.43-5-8.64-44.62-27-77.66-63.83-91.26-115-16.11-60.65-1.46-115,39.49-161.79,37-42.31,84.69-65.78,139.9-73.81,68.07-9.9,131.06,3.46,186.77,44.78,38.12,28.28,64,65.29,73.51,112.5,10,49.14-.61,94.17-29.45,134.6C569.23,534,521,561.42,463.58,573.5a242.07,242.07,0,0,1-100.46.2c-3.23-.68-5.74.44-8.44,2.26-20,13.48-40.15,26.79-60.24,40.15C293.22,616.91,292,617.67,289.64,619.16Z" transform="translate(-146 -148)"/><path d="M575.61,384.44c.1,17.27-13,30.71-30.19,30.85-17.49.15-31.34-13.28-31.43-30.48a31.22,31.22,0,0,1,31.09-31.11A30.61,30.61,0,0,1,575.61,384.44Z" transform="translate(-146 -148)"/><path d="M422.44,415.3a30.88,30.88,0,0,1-31.27-30.8c.06-16.6,14.17-30.7,30.84-30.81a31.25,31.25,0,0,1,31.2,31A30.79,30.79,0,0,1,422.44,415.3Z" transform="translate(-146 -148)"/><path d="M299.59,415.3A30.33,30.33,0,0,1,268.76,385a30.84,30.84,0,0,1,30.73-31.3c16.67,0,30.86,13.94,31.06,30.55A30.74,30.74,0,0,1,299.59,415.3Z" transform="translate(-146 -148)"/></svg>