<svg xmlns="http://www.w3.org/2000/svg" width="1000" height="1000" viewBox="0 0 1000 1000">
  <defs>
    <style>
      .cls-1 {
        fill-rule: evenodd;
      }
    </style>
  </defs>
  <path id="_1" data-name="1" class="cls-1" d="M708.412,376.561a15.908,15.908,0,0,1-16.013-15.8V250.186H276.028V360.763a16.016,16.016,0,0,1-32.029,0V234.391a15.906,15.906,0,0,1,16.013-15.8h448.4a15.908,15.908,0,0,1,16.017,15.8V360.763A15.909,15.909,0,0,1,708.412,376.561Zm-293.037,131.1L468.2,570.823V345a16.016,16.016,0,0,1,32.03,0V570.222l52.321-62.558a16.181,16.181,0,0,1,22.735,0,15.833,15.833,0,0,1,0,22.531L496.14,624.832a18.706,18.706,0,0,1-24.356,0L392.64,530.2a15.833,15.833,0,0,1,0-22.531A16.181,16.181,0,0,1,415.375,507.664Z"/>
</svg>
