<svg id="Layer_1" data-name="Layer 1" xmlns="http://www.w3.org/2000/svg" viewBox="0 0 713.98 576.24"><path d="M637.7,788.24c-120.64,0-218.8-98.16-218.8-218.8s98.16-218.8,218.8-218.8,218.8,98.16,218.8,218.8S758.35,788.24,637.7,788.24Zm0-397.45c-98.51,0-178.65,80.14-178.65,178.65S539.19,748.09,637.7,748.09,816.36,668,816.36,569.44,736.21,390.79,637.7,390.79Z" transform="translate(-142.53 -212)"/><polyline points="169.89 150.19 110.41 150.19 110.41 80.3 0 190.71 110.41 301.12 110.41 220.82 170.63 220.82 170.63 140.52"/><polyline points="489.78 150.19 549.26 150.19 549.26 80.3 659.67 190.71 632.35 200.75 489.04 160.6 489.04 140.52"/><path d="M633.11,660.4,551.29,558.12a17.74,17.74,0,0,1,2.77-24.93h0A17.75,17.75,0,0,1,579,536l49.21,61.53a4,4,0,0,0,6.65-.52l55.61-97.33a17.74,17.74,0,0,1,24.2-6.59h0a17.73,17.73,0,0,1,6.6,24.19L639.75,659.88A4,4,0,0,1,633.11,660.4Z" transform="translate(-142.53 -212)"/><path d="M418.9,569.44c0-5.46.43-10.81.82-16.17H333.24V252.15h281v99.79a218.39,218.39,0,0,1,23.42-1.3c5.65,0,11.19.42,16.73.85V212H293.09V593.42H420.28A220.9,220.9,0,0,1,418.9,569.44Z" transform="translate(-142.53 -212)"/></svg>