<svg xmlns="http://www.w3.org/2000/svg" width="1000" height="1000" viewBox="0 0 1000 1000">
  <defs>
    <style>
      .cls-1 {
        fill: #fff;
        fill-rule: evenodd;
      }
    </style>
  </defs>
  <path id="_6" data-name="6" class="cls-1" d="M816.5,922.005h-633A105.5,105.5,0,0,1,78,816.5v-633A105.5,105.5,0,0,1,183.5,78h633A105.5,105.5,0,0,1,922,183.5v633A105.5,105.5,0,0,1,816.5,922.005Zm0-52.751A52.752,52.752,0,0,0,869.251,816.5V605.472L711,447.219,485.852,672.366,680.189,869.254H816.5ZM130.75,816.5a52.752,52.752,0,0,0,52.75,52.751H605.531L340.3,604.047,130.75,791.711V816.5Zm738.5-633A52.755,52.755,0,0,0,816.5,130.751h-633A52.754,52.754,0,0,0,130.75,183.5V719.873l211-193.5L448.784,634.813,711,368.126,869.251,529.748V183.5ZM289,394.5A105.5,105.5,0,1,1,394.5,289,105.5,105.5,0,0,1,289,394.5Zm0-158.247A52.75,52.75,0,1,0,341.75,289,52.752,52.752,0,0,0,289,236.253Z"/>
</svg>
