<svg xmlns="http://www.w3.org/2000/svg" width="1000" height="1000" viewBox="0 0 1000 1000">
  <defs>
    <style>
      .cls-1 {
        fill-rule: evenodd;
      }
    </style>
  </defs>
  <path id="_4" data-name="4" class="cls-1" d="M770.77,345.254V788.5a98.485,98.485,0,0,1-98.462,98.5H327.694a98.486,98.486,0,0,1-98.462-98.5V345.254A49.241,49.241,0,0,1,180,296V246.75A49.239,49.239,0,0,1,229.232,197.5H376.923V148.255A49.239,49.239,0,0,1,426.154,99H573.847a49.238,49.238,0,0,1,49.23,49.251V197.5H770.77A49.24,49.24,0,0,1,820,246.75V296A49.242,49.242,0,0,1,770.77,345.254ZM278.464,788.5a49.241,49.241,0,0,0,49.23,49.251H672.308A49.242,49.242,0,0,0,721.539,788.5V345.254H278.464V788.5ZM573.847,172.878a24.618,24.618,0,0,0-24.616-24.623H450.77a24.618,24.618,0,0,0-24.616,24.623V197.5H573.847V172.878ZM746.154,246.75H253.848a24.627,24.627,0,0,0,0,49.253H746.154A24.627,24.627,0,0,0,746.154,246.75Zm-369.231,197a24.623,24.623,0,0,1,24.616,24.629v295.5a24.615,24.615,0,1,1-49.23,0v-295.5A24.622,24.622,0,0,1,376.923,443.75Zm123.077,0a24.622,24.622,0,0,1,24.615,24.629v295.5a24.615,24.615,0,1,1-49.23,0v-295.5A24.622,24.622,0,0,1,500,443.75Zm123.077,0a24.622,24.622,0,0,1,24.616,24.629v295.5a24.616,24.616,0,1,1-49.231,0v-295.5A24.622,24.622,0,0,1,623.077,443.75Z"/>
</svg>
