<svg xmlns="http://www.w3.org/2000/svg" width="1000" height="1000" viewBox="0 0 1000 1000">
  <defs>
    <style>
      .cls-1 {
        fill-rule: evenodd;
      }
    </style>
  </defs>
  <path id="_2" data-name="2" class="cls-1" d="M713.254,310.649L598.746,423.6a65.107,65.107,0,0,1-62.35,16.326L690.352,288.057a31.642,31.642,0,0,0,0-45.182l-22.9-22.588a32.7,32.7,0,0,0-45.8,0L467.691,372.151a63.022,63.022,0,0,1,16.547-61.5L598.746,197.7a65.409,65.409,0,0,1,91.606,0l22.9,22.592A63.283,63.283,0,0,1,713.254,310.649ZM535.767,373.018a15.821,15.821,0,0,1,0,22.592l-80.154,79.066a16.355,16.355,0,0,1-22.9,0,15.82,15.82,0,0,1,0-22.59l80.154-79.068A16.354,16.354,0,0,1,535.767,373.018Zm-257.64,231.3,22.9,22.588a32.7,32.7,0,0,0,45.8,0l153.96-151.864a63.02,63.02,0,0,1-16.55,61.5L369.73,649.5a65.405,65.405,0,0,1-91.6,0l-22.9-22.594a63.285,63.285,0,0,1,0-90.36L369.73,423.6a65.12,65.12,0,0,1,62.353-16.323L278.127,559.14A31.636,31.636,0,0,0,278.127,604.322Z"/>
</svg>
