<svg id="Layer_1" data-name="Layer 1" xmlns="http://www.w3.org/2000/svg" viewBox="0 0 721.33 721.33"><defs><style>.cls-1{fill:#fff;}</style></defs><path d="M829.67,904.33H108.33V183H829.67ZM325.22,537c-1.56.65-3.8,1.48-6,2.49-45.74,21.28-72,56.61-74.32,107.37-1.45,31.35-1.2,62.88.13,94.25,2.61,61.65,55.09,113.21,116.68,114q107.22,1.38,214.48,0c61.6-.8,114.06-52.29,116.7-114,1.35-31.61,1.56-63.38.1-95C690.76,597.58,665.88,563,622.7,541.3c-3.56-1.79-7.28-3.24-11.28-5,1.27-2,2.24-3.62,3.3-5.18,49.75-72.58,50.84-170.57,2.71-244.25C551.74,186.28,419.15,173.5,340.31,262.15c-58.83,66.16-69.08,143.26-39.6,225.75C306.76,504.84,316.79,520.37,325.22,537Z" transform="translate(-108.33 -183)"/><path d="M325.22,537c-8.43-16.65-18.46-32.18-24.51-49.12-29.48-82.49-19.23-159.59,39.6-225.75,78.84-88.65,211.43-75.87,277.12,24.71,48.13,73.68,47,171.67-2.71,244.25-1.06,1.56-2,3.18-3.3,5.18,4,1.77,7.72,3.22,11.28,5C665.88,563,690.76,597.58,693,646.19c1.46,31.59,1.25,63.36-.1,95-2.64,61.69-55.1,113.18-116.7,114q-107.22,1.38-214.48,0c-61.59-.8-114.07-52.36-116.68-114-1.33-31.37-1.58-62.9-.13-94.25,2.34-50.76,28.58-86.09,74.32-107.37C321.42,538.5,323.66,537.67,325.22,537ZM469,813.74v1c27.1,0,54.21.19,81.32-.12a135.12,135.12,0,0,0,25-2.51c41.85-8.38,79.45-44.3,77.55-94.31-.64-16.77-.66-33.61,0-50.37,2-49.5-33.68-82.62-70.2-93-4.91-1.4-8.34-.7-12.44,2.32-28.54,21-60.46,32.86-96.07,33.9-39.59,1.16-75-10.95-106.89-34.06-2.41-1.75-6.33-3.42-8.86-2.7C322.6,584,297,605.4,287.93,642.43c-3.12,12.79-2.31,26.64-2.52,40-.25,17-1.33,34.25.8,51,5.39,42.58,41.79,77.13,85.66,79.87C404.11,815.36,436.58,813.74,469,813.74ZM612,408.89c-.6-41.45-11.42-77.85-35.81-109.65-52.08-67.91-143.29-74.15-202.36-13.95-64.75,66-63.46,181.56,2.73,246,53,51.6,132.22,51.66,184.93-.22C596,497.14,610.92,454.92,612,408.89Z" transform="translate(-108.33 -183)"/><path class="cls-1" d="M469,813.74c-32.37,0-64.84,1.62-97.08-.4-43.87-2.74-80.27-37.29-85.66-79.87-2.13-16.77-1-34-.8-51,.21-13.38-.6-27.23,2.52-40,9-37,34.67-58.41,70.41-68.54,2.53-.72,6.45,1,8.86,2.7,31.92,23.11,67.3,35.22,106.89,34.06,35.61-1,67.53-12.85,96.07-33.9,4.1-3,7.53-3.72,12.44-2.32,36.52,10.39,72.15,43.51,70.2,93-.66,16.76-.64,33.6,0,50.37,1.9,50-35.7,85.93-77.55,94.31a135.12,135.12,0,0,1-25,2.51c-27.11.31-54.22.12-81.32.12Z" transform="translate(-108.33 -183)"/><path class="cls-1" d="M612,408.89c-1.12,46-16,88.25-50.51,122.22-52.71,51.88-131.95,51.82-184.93.22-66.19-64.48-67.48-180.06-2.73-246,59.07-60.2,150.28-54,202.36,13.95C600.62,331,611.44,367.44,612,408.89Z" transform="translate(-108.33 -183)"/></svg>