<svg id="Layer_1" data-name="Layer 1" xmlns="http://www.w3.org/2000/svg" viewBox="0 0 117.14 86.21"><defs><style>.cls-1{fill:none;}.cls-1,.cls-2{stroke:#000;stroke-miterlimit:10;stroke-width:5px;}.cls-2{fill:#fff;}</style></defs><path class="cls-1" d="M262.86,205.07V171.75a7.65,7.65,0,0,1,1.83-4.95l25.47-30.12a8.67,8.67,0,0,1,13.07,0L328.7,166.8a7.71,7.71,0,0,1,1.83,4.95v33.32a8.16,8.16,0,0,1-8.37,7.92H271.22A8.15,8.15,0,0,1,262.86,205.07Z" transform="translate(-260.36 -129.28)"/><path class="cls-1" d="M322.8,213H369a6,6,0,0,0,6-6V170.45H328.6" transform="translate(-260.36 -129.28)"/><path class="cls-1" d="M317,151.11h23.2a3.86,3.86,0,0,0,3.86-3.86v-3.87a3.87,3.87,0,0,0-3.86-3.87h0a3.86,3.86,0,0,1-3.87-3.86h0a3.87,3.87,0,0,1,3.87-3.87h5.72a3.89,3.89,0,0,1,3.17,1.65l25.91,37" transform="translate(-260.36 -129.28)"/><circle class="cls-2" cx="35.37" cy="16.03" r="2.73"/></svg>