<svg xmlns="http://www.w3.org/2000/svg" width="1000" height="1000" viewBox="0 0 1000 1000">
  <defs>
    <style>
      .cls-1 {
        fill-rule: evenodd;
      }
    </style>
  </defs>
  <path id="_9" data-name="9" class="cls-1" d="M801.5,902h-603A100.506,100.506,0,0,1,98,801.5V349.253L500,98,902,349.253V801.5A100.505,100.505,0,0,1,801.5,902Zm-603-50.251h603a50.139,50.139,0,0,0,11.172-1.346L581.858,619.6,500,675.877,418.141,619.6,187.328,850.407A50.111,50.111,0,0,0,198.5,851.753ZM148.251,801.5a49.573,49.573,0,0,0,2.388,14.536L376.03,590.645l-227.779-156.6V801.5ZM500,616.99L148.251,374.375,499.505,156.557,851.752,374.375ZM851.752,434.046l-227.784,156.6L849.359,816.036a49.708,49.708,0,0,0,2.393-14.536V434.046Z"/>
</svg>
