<svg xmlns="http://www.w3.org/2000/svg" width="1000" height="1000" viewBox="0 0 1000 1000">
  <defs>
    <style>
      .cls-1 {
        fill-rule: evenodd;
      }
    </style>
  </defs>
  <path id="_8_copy_5" data-name="8 copy 5" class="cls-1" d="M781.251,807h-538.5A89.8,89.8,0,0,1,153,717.157V312.849A89.8,89.8,0,0,1,242.751,223h538.5A89.8,89.8,0,0,1,871,312.849V717.157A89.8,89.8,0,0,1,781.251,807Zm44.875-494.155a44.9,44.9,0,0,0-44.875-44.924h-538.5a44.9,44.9,0,0,0-44.876,44.924V717.157a44.9,44.9,0,0,0,44.876,44.923h538.5a44.9,44.9,0,0,0,44.875-44.923V312.849Z"/>
  <path id="_8_copy_3" data-name="8 copy 3" class="cls-1" d="M736.375,515h-89.75a44.9,44.9,0,0,1-44.875-44.924V380.235a44.9,44.9,0,0,1,44.875-44.926h89.75a44.9,44.9,0,0,1,44.875,44.926v89.842A44.9,44.9,0,0,1,736.375,515Zm0-112.308a22.449,22.449,0,0,0-22.437-22.458H669.062a22.449,22.449,0,0,0-22.437,22.458v44.924a22.447,22.447,0,0,0,22.437,22.46h44.876a22.447,22.447,0,0,0,22.437-22.46V402.693Z"/>
  <path id="_8_copy_4" data-name="8 copy 4" class="cls-1" d="M736.375,728h-89.75a44.9,44.9,0,0,1-44.875-44.924V593.235a44.9,44.9,0,0,1,44.875-44.926h89.75a44.9,44.9,0,0,1,44.875,44.926v89.842A44.9,44.9,0,0,1,736.375,728Zm0-112.308a22.449,22.449,0,0,0-22.437-22.458H669.062a22.449,22.449,0,0,0-22.437,22.458v44.924a22.447,22.447,0,0,0,22.437,22.46h44.876a22.447,22.447,0,0,0,22.437-22.46V615.693Z"/>
  <path id="_8_copy" data-name="8 copy" class="cls-1" d="M534.437,492.849H265.188a22.462,22.462,0,0,1,0-44.924H534.437A22.462,22.462,0,0,1,534.437,492.849Z"/>
  <path id="_8_copy_6" data-name="8 copy 6" class="cls-1" d="M534.437,590.849H265.188a22.462,22.462,0,0,1,0-44.924H534.437A22.462,22.462,0,0,1,534.437,590.849Z"/>
  <path id="_8_copy_7" data-name="8 copy 7" class="cls-1" d="M534.437,688.849H265.188a22.462,22.462,0,0,1,0-44.924H534.437A22.462,22.462,0,0,1,534.437,688.849Z"/>
  <path id="_8_copy_2" data-name="8 copy 2" class="cls-1" d="M534.437,394.849H265.188a22.462,22.462,0,0,1,0-44.924H534.437A22.462,22.462,0,0,1,534.437,394.849Z"/>
</svg>
