<svg id="Layer_1" data-name="Layer 1" xmlns="http://www.w3.org/2000/svg" viewBox="0 0 550.98 552"><path d="M298.31,542.82C296.41,532,301.79,344.52,470.57,340a3.07,3.07,0,0,1,3.35,2.94v18.7a2.93,2.93,0,0,0,5,2.07l38.87-38.87a2.93,2.93,0,0,0,0-4.14l-38.87-38.87a2.93,2.93,0,0,0-5,2.08v28.7a2.9,2.9,0,0,1-2.57,2.88c-128,4.8-205.36,96.68-200.53,227.24C270.89,544.41,298.31,542.82,298.31,542.82Z" transform="translate(-241.73 -281)"/><path d="M789.77,513.75h-28.7a2.91,2.91,0,0,1-2.88-2.58c-4.8-128-96.68-205.36-227.24-200.52-1.65.06-.06,27.49-.06,27.49,10.87-1.91,198.3,3.48,202.79,172.25a3.08,3.08,0,0,1-2.94,3.36H712a2.93,2.93,0,0,0-2.07,5l38.87,38.86a2.92,2.92,0,0,0,4.14,0l38.87-38.86A2.93,2.93,0,0,0,789.77,513.75Z" transform="translate(-241.73 -281)"/><path d="M736.13,571.18C738,582.05,732.65,769.48,563.88,774a3.08,3.08,0,0,1-3.36-2.94v-18.7a2.93,2.93,0,0,0-5-2.07l-38.86,38.87a2.92,2.92,0,0,0,0,4.14l38.86,38.87a2.93,2.93,0,0,0,5-2.08v-28.7a2.91,2.91,0,0,1,2.57-2.88c128-4.8,205.37-96.68,200.53-227.24C763.56,569.59,736.13,571.18,736.13,571.18Z" transform="translate(-241.73 -281)"/><path d="M300.76,603.61a3.08,3.08,0,0,1,2.94-3.36h18.7a2.93,2.93,0,0,0,2.07-5l-38.86-38.86a2.93,2.93,0,0,0-4.15,0L242.6,595.25a2.93,2.93,0,0,0,2.07,5h28.71a2.9,2.9,0,0,1,2.87,2.58c4.8,128,96.68,205.36,227.24,200.52,1.66-.06.07-27.49.07-27.49C492.69,777.77,305.26,772.38,300.76,603.61Z" transform="translate(-241.73 -281)"/><rect x="190.02" y="204.99" width="170.94" height="13.94"/><rect x="190.02" y="247.68" width="170.94" height="13.94"/><rect x="190.02" y="290.38" width="170.94" height="13.94"/><rect x="190.02" y="333.07" width="170.94" height="13.94"/><path d="M605.22,447.19h-176a20.1,20.1,0,0,0-20.08,20.07V646.74a20.1,20.1,0,0,0,20.08,20.07h176a20.09,20.09,0,0,0,20.07-20.07V467.26A20.09,20.09,0,0,0,605.22,447.19Zm13.1,199.55a13.12,13.12,0,0,1-13.1,13.1h-176a13.12,13.12,0,0,1-13.11-13.1V467.26a13.12,13.12,0,0,1,13.11-13.1h176a13.12,13.12,0,0,1,13.1,13.1Z" transform="translate(-241.73 -281)"/></svg>