<svg id="Layer_1" data-name="Layer 1" xmlns="http://www.w3.org/2000/svg" viewBox="0 0 532.83 710"><defs><style>.cls-1{fill:#e6e6e6;}.cls-2{fill:#b7b7b7;}.cls-3{fill:#d1d1d1;}.cls-4{fill:#6f6f6f;}</style></defs><path class="cls-1" d="M590.43,107H353.49A94.5,94.5,0,0,0,259,201.49v521A94.5,94.5,0,0,0,353.49,817h300A94.5,94.5,0,0,0,748,722.51V269.25a21.33,21.33,0,0,0-6-14.82L605.77,113.5A21.35,21.35,0,0,0,590.43,107Z" transform="translate(-216.1 -107)"/><path class="cls-2" d="M630.07,259c-19.88-3.7-32.55-18.43-32.8-39.89-.43-35.41-.15-70.83-.06-106.25,0-1.6,1.16-3.19,1.78-4.79q23.93,24.07,47.85,48.14,48.84,48.93,97.75,97.78c1.41,1.41,2.89,2.74,4.34,4.12l-.87,1.82,0,0Z" transform="translate(-216.1 -107)"/><path class="cls-3" d="M630.07,259l118,1V370c-1.48-.54-2.57-.61-3.15-1.19q-22.1-22-44.08-44.1c-6.71-6.7-13.5-13.32-20.23-20-12.77-12.65-25.59-25.25-38.24-38C638.79,263.11,635.48,259.46,630.07,259Z" transform="translate(-216.1 -107)"/><path class="cls-4" d="M672.11,416.53a46.16,46.16,0,0,1,.86-6.34c0-1.07.11-2.14.17-3.22-3.58-10.88-9.46-15-21.83-14.94q-181.17,0-362.35.07c-18,0-36-.13-54-.19-12.57,1.73-18.87,8.82-18.88,21.52q0,92.51,0,185c0,14.82,7.63,22.43,22.45,22.49l53.48.2,2,0c2.5,0,5-.12,7.5-.12q174,0,348,0c10.12,0,18.41-2.77,22.71-12.84.23-1.07.46-2.13.7-3.2l0-2.94a44.5,44.5,0,0,1-.87-6.34Q672,506.1,672.11,416.53Zm-152,54.13c0-8.81,3.17-12.37,11.9-12.48,17.16-.22,34.32-.19,51.48,0,7.6.08,11.7,3.82,11.52,9.62s-4.88,10-12,10.08c-12.66.14-25.33.16-38,0-3.67-.05-5.11,1.08-4.91,4.84a125.56,125.56,0,0,1,0,14c-.24,4.06,1.09,5.61,5.32,5.5,9.83-.25,19.66-.12,29.49,0a27.07,27.07,0,0,1,6.42.72c5,1.29,8.76,6.07,8.44,10.46s-4.65,8.42-10.19,8.58c-10,.27-20,.08-30,.18-10.62.1-9.33-1.37-9.42,9.19-.06,7,.06,14,0,21-.11,7.23-3.44,11.05-9.41,11.07-6.63,0-10.48-3.91-10.54-11.21-.11-13.83,0-27.67,0-41.5C520.09,497.32,520.06,484,520.1,470.66Zm-118.17-1.08c0-6.54,3-10.93,9.12-11,16.29-.16,32.86-1.2,48.82,1.3,24.29,3.81,40.3,26.73,39.05,52.43-.95,19.53-8.23,35.86-26.26,45.22a53.44,53.44,0,0,1-20.44,5.6c-12.94.9-26,.43-39,.3-8-.07-11.25-3.41-11.3-11.34-.09-13.83,0-27.67,0-41.51C401.91,496.92,401.85,483.25,401.93,469.58Zm51.85,95.28H411.32v-.44h42.46ZM299.27,470.6c.05-10.19,3.71-13.82,13.92-13.84,11.16,0,22.34-.38,33.46.25,22.34,1.27,36.26,16.87,35.64,39.22-.58,20.89-13.83,34.95-34.8,36.43-7.79.55-15.64.35-23.47.25-3.45,0-4.79,1.26-4.7,4.67.12,5,.14,10-.08,15-.3,6.88-3.67,10.65-9.29,10.8-6.05.16-10.4-3.89-10.54-10.84-.26-14.15-.07-28.31-.07-42.46h-.08C299.26,496.91,299.21,483.75,299.27,470.6ZM652.78,619.83H295.33v-.44H652.78Z" transform="translate(-216.1 -107)"/><path class="cls-4" d="M424.73,544.76c10.28-.11,20.84.76,30.78-1.27,16-3.24,24.73-19.2,22.8-38.21-1.64-16.16-12.86-27.19-29-28.31-3.8-.26-7.65,0-11.47,0v-.14c-4,0-8,.07-12,0-2.76-.07-3.86,1.13-3.86,3.86,0,20.14,0,40.27.13,60.41C422.15,542.33,423.84,544.76,424.73,544.76Z" transform="translate(-216.1 -107)"/><path class="cls-4" d="M319.36,494.93c0,5,.05,10,0,15,0,2.65,1,4,3.79,4,7.49-.1,15,.25,22.48-.21A18.26,18.26,0,0,0,363,495.24c0-10.5-7.35-18.62-17.81-19.14-7.15-.36-14.33,0-21.49-.17-3.29-.07-4.43,1.41-4.36,4.51C319.43,485.27,319.36,490.1,319.36,494.93Z" transform="translate(-216.1 -107)"/></svg>