<svg id="Layer_1" data-name="Layer 1" xmlns="http://www.w3.org/2000/svg" viewBox="0 0 565.49 565.32"><path d="M777.5,363.8c-22.12-20.27-45.34-43.4-73.08-72.78-16.56-17.55-38.77-27-64.22-27.32-73.59-.94-148.37-.73-220.68-.52l-54.22.14h-2.87c-53.64-.08-77.45.28-88,.61-27,.83-44.48,20.74-44.44,50.71.23,156,.16,311.68.09,462.26,0,16.7,4.64,29.71,13.81,38.67,8.67,8.47,20.78,12.75,36,12.75.66,0,1.32,0,2,0,110.73-2.64,352.81-.9,432.36-.34,13.64.1,22.83.17,26.2.18,18.44.05,31.87-4.39,41-13.55s13.62-22.55,13.66-41c.13-57.34.13-115.64.13-172,0-63.3,0-128.76.19-193.12C795.54,394.57,793.44,378.41,777.5,363.8Zm-411-34.43q0-18.44,0-36.87,26.55,0,53.09-.13c72.2-.21,146.86-.42,220.22.51,1.93,0,3.81.13,5.67.3,0,7.34.08,29.74.07,31.45,0,16,0,32.24,0,47.95,0,20.51.05,41.72-.08,62.55-.07,12.44-1.82,20.2-5.33,23.72s-11.23,5.23-23.61,5.26c-73.33.19-147.69.19-221,0-12.39,0-20.12-1.75-23.63-5.27s-5.25-11.26-5.31-23.69C366.42,399.91,366.46,364.05,366.49,329.37ZM659,748.65q0,24.87,0,49.75c-78.34-.5-198.34-1.06-292.42-.42q0-24.65,0-49.3c0-43.44-.06-88.36.09-132.52,0-12.41,1.77-20.15,5.28-23.67s11.25-5.24,23.65-5.27c77.78-.19,156.65-.19,234.42,0,12.4,0,20.13,1.75,23.65,5.27s5.24,11.26,5.28,23.67C659,660.31,659,705.22,659,748.65ZM766.14,601.58c0,56.36,0,114.64-.14,171.95,0,10.18-1.73,17-5.1,20.4s-10.11,5-20.14,5h-.21c-3.35,0-12.49-.08-26.07-.17l-26.37-.19q0-25,0-49.92c0-43.46.06-88.39-.09-132.6-.14-40.58-17.5-57.94-58-58-77.82-.19-156.74-.19-234.56,0-40.56.1-57.92,17.46-58.05,58-.15,44.22-.11,89.16-.08,132.63q0,24.76,0,49.53c-20.88.21-39.89.51-56.1.89-8,.2-13.72-1.3-16.93-4.43-4.15-4.06-5-11.91-5-17.77.07-150.6.14-306.33-.08-462.32,0-21,11.72-21.36,16.15-21.5,8.52-.26,26.06-.55,62-.6q0,18.42,0,36.84c0,34.72-.07,70.62.09,105.94.17,40.56,17.53,57.91,58,58,36.69.1,73.64.14,110.59.14s73.9,0,110.59-.14c40.44-.11,57.8-17.45,58-58,.13-20.94.1-42.2.08-62.76,0-15.69,0-31.9,0-47.83,0-2.32,0-4.59-.11-6.78-.14-5.71-.19-10.22.53-14a58.59,58.59,0,0,1,8,7.07c28.23,29.91,51.93,53.51,74.58,74.27,6.58,6,8.57,11.41,8.54,23.06C766.14,472.78,766.14,538.26,766.14,601.58Z" transform="translate(-230.01 -263)"/><path d="M560.46,433.74c9.1,4,17.53,6,26,6s16.86-2,26-6a14.6,14.6,0,0,0,8.73-13.37c0-6.85-.21-54.84.12-72,.19-10-2.54-18-8.12-23.54-8.61-8.57-20.51-8.3-29.2-8.11,0,0-5.09,0-6.42.2-15.31,2.36-25.36,13.19-25.6,27.58-.32,18.81-.16,69.24-.16,75.84A14.59,14.59,0,0,0,560.46,433.74ZM581.06,346l.41-.09a14.94,14.94,0,0,0,1.9.08l1.2,0c2.27-.05,5.42-.12,7.43.07,0,.48.06,1.09,0,1.84-.34,17.47-.26,34.9-.19,51.74q0,5.24,0,10.38a25.67,25.67,0,0,1-11,0q0-4.86,0-9.79C580.82,382.51,580.76,364.27,581.06,346Z" transform="translate(-230.01 -263)"/></svg>