<svg id="Layer_1" data-name="Layer 1" xmlns="http://www.w3.org/2000/svg" viewBox="0 0 477.75 476.29"><path d="M541.35,768c-53.24,0-106.48.13-159.72,0-35.12-.11-45.67-10.24-45.72-44.49q-.26-161.07,0-322.15c.06-33.16,10.65-43.88,43.47-44,84.82-.21,169.65-.56,254.46.53C645,358,662.92,361.43,674,365c59,19,74,71,73.91,193.15C750,617,746.8,669.88,746.48,725.82c-.18,30.95-11.35,41.91-42.7,42.08C649.64,768.19,595.5,768,541.35,768ZM422.48,378.15c-12.43,0-20.52,0-28.61,0-37.1-.08-37.12-.08-37.13,36.7q0,138,0,276c0,61.27,0,61.28,60.86,55.23.71-.07,1.34-1.06,4.89-4.05,0-36-.17-74.58,0-113.11.19-33.28,10.6-44,43.21-44.2q74.41-.4,148.83,0c34.81.13,45.13,10.36,45.32,44.89.21,38.47.05,76.95.05,117.5h29.83c35.85,0,35.89,0,35.9-35.26,0-68.55,2.49-137.26,1.46-205.53C726,431,701,387,659.94,380.36c0,35.07.23,77.79-.07,106.5-.32,31.42-11.09,42.59-42,42.79q-75.76.51-151.53,0c-33-.16-43.59-10.74-43.83-43.63C422.28,451.08,422.48,416.11,422.48,378.15ZM443.42,745.2H639c0-41.4.9-81-.87-120.39-.3-6.67-11.92-18.17-18.57-18.36q-78.31-2.3-156.72,0c-6.65.19-18.26,11.69-18.55,18.35C442.52,664.24,443.42,703.8,443.42,745.2Zm0-365.94c0,39-1,75,.9,110.83.34,6.56,12.2,17.71,19,17.91,52.22,1.5,104.5,1.3,156.73.18,6.34-.14,17.72-8.65,17.92-13.62,1.51-38.28.83-76.64.83-115.3Z" transform="translate(-270.87 -291.76)"/><path d="M315.82,702.75c-32.46.13-44.9-12.82-44.91-38.12Q270.85,497,271,329.37c0-24.08,12.59-36.92,36.73-37,89.22-.2,178.52-2,267.6,1.5,18.15.71,35.49,21.82,53.2,33.52-1.53,2.9-5.46,8.19-7,11.09-8.9-2.15-29.66-25.43-48.51-25.4-75.7.15-253.66-.35-253.66-.35s-28.34-3.76-28,27.75c1.1,103.63.3,207.28.6,310.92,0,12.42-5.38,28.18,15.56,31.83C310.66,683.82,312.18,693.8,315.82,702.75Z" transform="translate(-270.87 -291.76)"/><path d="M575.83,401.22H604V485H575.83Z" transform="translate(-270.87 -291.76)"/></svg>