<svg id="Layer_1" data-name="Layer 1" xmlns="http://www.w3.org/2000/svg" viewBox="0 0 582.56 607"><defs><style>.cls-1{fill:#010002;}</style></defs><path class="cls-1" d="M660.87,240.5C571.67,167.4,440.1,180.45,367,269.65c-66.17,80.74-61.75,196.19,5.83,271.58l-165,201.29a12.93,12.93,0,0,0,1.8,18.18l29.78,24.4a12.92,12.92,0,0,0,18.17-1.8l165-201.3c87.19,51.46,201.26,33.11,267.43-47.63C763.12,445.17,750.07,313.6,660.87,240.5ZM640.45,493.75a144.73,144.73,0,1,1-20.2-203.68A144.73,144.73,0,0,1,640.45,493.75Z" transform="translate(-179.22 -184)"/><path d="M202.91,371.4h-6.64a17.05,17.05,0,0,1-17.05-17V201.05A17,17,0,0,1,196.27,184H345.49a17,17,0,0,1,17.05,17.05v6.64a17.05,17.05,0,0,1-17.05,17.05H237a17,17,0,0,0-17,17V354.35A17.05,17.05,0,0,1,202.91,371.4Z" transform="translate(-179.22 -184)"/><path d="M738.09,603.6h6.64a17.05,17.05,0,0,1,17,17V774a17,17,0,0,1-17,17H595.51a17,17,0,0,1-17-17v-6.64a17.05,17.05,0,0,1,17-17H704a17,17,0,0,0,17-17V620.65A17.05,17.05,0,0,1,738.09,603.6Z" transform="translate(-179.22 -184)"/></svg>