<svg id="Layer_1" data-name="Layer 1" xmlns="http://www.w3.org/2000/svg" viewBox="0 0 609.61 597.11"><defs><style>.cls-1{fill:#2a5598;}</style></defs><path class="cls-1" d="M781.33,295.5v-.76c.21-13.37-11.74-22.13-21.84-22.44-9.46-.29-18.94-.54-28.4-.55q-95.6-.18-191.18-.07c-1.27,0-2.54,0-3.8,0a2.68,2.68,0,0,1-2.84-2.9c0-1.1,0-2.2,0-3.3,0-14.81,0-29.62,0-44.42,0-3.47-.36-3.72-3.8-3.72-9.48,0-19,.18-28.44-.05C489,217,196.09,267.62,175.68,271.2c-1.17.21-2.36.38-3.06,1.53a7.7,7.7,0,0,0-.36,3.5L172,584.66a5.29,5.29,0,0,1,.24,2.73q0,12.81,0,25.61,0,70.75,0,141.49c0,1.33-.26,2.73.77,3.86a6.34,6.34,0,0,0,3.05,1.14q42.61,7.46,85.26,14.79Q301,781.17,340.62,788c45.76,7.95,91.51,15.93,137.2,24.25,4.65.85,9.25,2.12,14,2.13q17.64,0,35.29,0c5.68,0,6.06-.39,6.07-6.08,0-14.47,0-28.94,0-43.41,0-6.35,0-6.39,6.33-6.35,47.46.28,94.93-.36,142.4.4,23.51.38,47,.64,70.55-.42a52.1,52.1,0,0,0,14.72-2.44c3.19-1.1,6.66-2.19,8.68-5a25.85,25.85,0,0,0,4.87-11.87,111.8,111.8,0,0,0,.77-14.16C781.5,581.86,781.82,438.68,781.33,295.5ZM449,410.15c-11.32,49.74-22.49,99.52-33.84,149.26-3.66,16.05-7.78,32-11.65,48a3.51,3.51,0,0,1-2.5,2.79c-6.76,2.44-13.67,1.82-20.58,1.13-6.06-.61-12.09-1.65-18.2-1.31-1.63.08-2-.62-2.26-1.92q-5.87-28.15-11.8-56.3c-5.37-25.38-10.81-50.74-15.37-76.27-.1-.57-.29-1.13-.62-2.37-1.49,7.66-2.86,14.64-4.22,21.63-6,31-13.06,61.82-19.71,92.7-1.16,5.37-2.31,10.74-3.35,16.13-.34,1.74-.89,2.51-2.91,2.37-11.81-.82-23.64-1.5-35.46-2.14-1.81-.1-2.37-.81-2.71-2.51q-10.94-55.2-22-110.37-6.77-33.8-12.93-67.71c-.3-1.61,0-2.14,1.79-2.21,10.32-.36,20.63-.83,30.94-1.33,1.75-.09,2.6.09,2.94,2.22,5.79,35.79,12.2,71.47,17.66,107.32,1,6.76,2,13.54,3,20.31.3.41.6.42.9,0l15.54-71.82q6.45-29.73,12.84-59.45c.37-1.76,1-2.31,2.75-2.39q17.51-.8,35-1.84c1.86-.11,2.38.46,2.73,2.22q9.72,48.58,19.6,97.14c2.64,13,5.45,26,8.19,39,.84-.22.76-.88.84-1.38,6.43-39.71,13.55-79.29,20.44-118.92,1.18-6.74,2.41-13.48,3.53-20.23.24-1.44.81-1.88,2.28-1.95,12.34-.56,24.67-1.22,37-1.88C448.48,408,449.58,407.7,449,410.15ZM757.39,736.88q-111.2-.12-222.4,0c-2.4,0-3.1-.52-3.08-3q.2-24.75,0-49.5c0-2.44.57-3.06,3-3.06q86.84.12,173.65.05c3.82,0,3.33.43,3.35-3.4,0-7.2-.11-14.39.07-21.58.06-2.36-.72-2.71-2.84-2.71q-87,.09-173.91,0c-3.29,0-3.29,0-3.29-3.39,0-9.39.08-18.79-.06-28.18,0-2.39.47-3.07,3-3.06q86.69.12,173.39.05c4.12,0,3.63.65,3.65-3.61,0-7-.14-14,.08-21.07.08-2.69-.81-3.14-3.27-3.13q-86.82.11-173.65.11c-2.47,0-3.26-.47-3.21-3.12.19-9.56.15-19.12,0-28.68,0-2.27.51-2.92,2.87-2.92q78.45.12,156.9.06c6.09,0,12.19,0,18.28,0,1.53,0,2-.37,2-2q-.12-11.94,0-23.87c0-1.43-.45-2-1.88-1.87a21.87,21.87,0,0,1-2.29,0H535.18c-3.74,0-3.19.35-3.19-3.28,0-9.48.09-19-.08-28.43,0-2.56.76-3,3.11-3q86.7.11,173.4.05c4.05,0,3.51.55,3.52-3.46,0-7.2-.07-14.39.07-21.58,0-2.11-.53-2.66-2.65-2.65q-63.35.09-126.69.05c-16.08,0-32.16,0-48.24.05-2,0-2.52-.56-2.5-2.54.1-9.81.14-19.63,0-29.44,0-2.36.73-2.71,2.84-2.71q86.82.09,173.65,0c3.93,0,3.54.52,3.55-3.48,0-7.2-.1-14.39.06-21.58.06-2.32-.68-2.74-2.84-2.74q-87,.09-173.91.05c-3.28,0-3.28,0-3.28-3.4,0-9.4.08-18.79-.06-28.18,0-2.37.44-3.08,3-3.07q86.82.12,173.65.05c3.82,0,3.39.62,3.41-3.3,0-7.2-.1-14.39.06-21.58.06-2.42-.73-2.9-3-2.89q-86.82.09-173.65,0c-3.39,0-3.39,0-3.39-3.32,0-14.21,0-28.43-.05-42.65,0-2,.54-2.48,2.51-2.48q111.7.07,223.41,0c2.41,0,2.67.8,2.67,2.86q-.07,109.41,0,218.83,0,109.15.06,218.32C760.54,736.17,760,736.88,757.39,736.88Z" transform="translate(-172 -217.25)"/></svg>