<?xml version="1.0" encoding="UTF-8"?>
<!DOCTYPE svg PUBLIC "-//W3C//DTD SVG 1.1//EN" "http://www.w3.org/Graphics/SVG/1.1/DTD/svg11.dtd">
<!-- Creator: CorelDRAW -->
<svg xmlns="http://www.w3.org/2000/svg" xml:space="preserve" width="16.8932mm" height="16.8932mm" version="1.1" style="shape-rendering:geometricPrecision; text-rendering:geometricPrecision; image-rendering:optimizeQuality; fill-rule:evenodd; clip-rule:evenodd"
viewBox="0 0 23.12 23.12"
 xmlns:xlink="http://www.w3.org/1999/xlink"
 xmlns:xodm="http://www.corel.com/coreldraw/odm/2003">
 <defs>
  <style type="text/css">
   <![CDATA[
    .fil0 {fill:white;fill-rule:nonzero}
    .fil1 {fill:#C4C4C4;fill-rule:nonzero}
   ]]>
  </style>
 </defs>
 <g id="Слой_x0020_1">
  <metadata id="CorelCorpID_0Corel-Layer"/>
  <circle class="fil0" cx="11.56" cy="11.56" r="11.56"/>
  <path class="fil1" d="M16.83 6.29l0 0c0.51,0.51 0.51,1.34 0,1.84l-3.42 3.42 3.42 3.42c0.51,0.51 0.51,1.34 0,1.84l-0 0c-0.51,0.51 -1.34,0.51 -1.84,0l-3.42 -3.42 -3.42 3.42c-0.51,0.51 -1.34,0.51 -1.84,0l0 -0c-0.51,-0.51 -0.51,-1.34 0,-1.84l3.42 -3.42 -3.42 -3.42c-0.51,-0.51 -0.51,-1.34 0,-1.84l0 0c0.51,-0.51 1.34,-0.51 1.84,0l3.42 3.42 3.42 -3.42c0.51,-0.51 1.34,-0.51 1.84,0z"/>
 </g>
</svg>
