<?xml version="1.0" encoding="UTF-8"?>
<!DOCTYPE svg PUBLIC "-//W3C//DTD SVG 1.1//EN" "http://www.w3.org/Graphics/SVG/1.1/DTD/svg11.dtd">
<!-- Creator: CorelDRAW -->
<svg xmlns="http://www.w3.org/2000/svg" xml:space="preserve" width="15.3215mm" height="21.5653mm" version="1.1" style="shape-rendering:geometricPrecision; text-rendering:geometricPrecision; image-rendering:optimizeQuality; fill-rule:evenodd; clip-rule:evenodd"
viewBox="0 0 29.63 41.71"
 xmlns:xlink="http://www.w3.org/1999/xlink"
 xmlns:xodm="http://www.corel.com/coreldraw/odm/2003">
 <defs>
  <style type="text/css">
   <![CDATA[
    .str0 {stroke:#2B2B2A;stroke-width:0.39;stroke-miterlimit:22.9256}
    .fil0 {fill:#2B2B2A}
   ]]>
  </style>
 </defs>
 <g id="Слой_x0020_1">
  <metadata id="CorelCorpID_0Corel-Layer"/>
  <path class="fil0 str0" d="M29.44 38.15l0 -34.6c0,-1.85 -1.51,-3.36 -3.36,-3.36l-22.52 0c-1.85,0 -3.36,1.51 -3.36,3.36l0 34.6c0,1.85 1.51,3.36 3.36,3.36l22.52 0c1.85,0 3.36,-1.51 3.36,-3.36zm-10.11 -32.8c0,0.95 -0.77,1.72 -1.72,1.72l-10.77 0c-0.95,0 -1.72,-0.77 -1.72,-1.72 0,-0.95 0.77,-1.72 1.72,-1.72l10.77 0c0.95,0 1.72,0.77 1.72,1.72zm-13.12 8.25l17.22 0c0.95,0 1.72,0.77 1.72,1.72 0,0.95 -0.77,1.72 -1.72,1.72l-17.22 0c-0.95,0 -1.72,-0.77 -1.72,-1.72 0,-0.95 0.77,-1.72 1.72,-1.72zm0 6.95l17.22 0c0.95,0 1.72,0.77 1.72,1.72 0,0.95 -0.77,1.72 -1.72,1.72l-17.22 0c-0.95,0 -1.72,-0.77 -1.72,-1.72 0,-0.95 0.77,-1.72 1.72,-1.72zm0 6.87l17.22 0c0.95,0 1.72,0.77 1.72,1.72 0,0.95 -0.77,1.72 -1.72,1.72l-17.22 0c-0.95,0 -1.72,-0.77 -1.72,-1.72 0,-0.95 0.77,-1.72 1.72,-1.72zm0 6.87l17.22 0c0.95,0 1.72,0.77 1.72,1.72 0,0.95 -0.77,1.72 -1.72,1.72l-17.22 0c-0.95,0 -1.72,-0.77 -1.72,-1.72 0,-0.95 0.77,-1.72 1.72,-1.72z"/>
 </g>
</svg>
