<?xml version="1.0" encoding="UTF-8"?>
<!DOCTYPE svg PUBLIC "-//W3C//DTD SVG 1.1//EN" "http://www.w3.org/Graphics/SVG/1.1/DTD/svg11.dtd">
<!-- Creator: CorelDRAW -->
<svg xmlns="http://www.w3.org/2000/svg" xml:space="preserve" width="16.8932mm" height="16.8932mm" version="1.1" style="shape-rendering:geometricPrecision; text-rendering:geometricPrecision; image-rendering:optimizeQuality; fill-rule:evenodd; clip-rule:evenodd"
viewBox="0 0 23.12 23.12"
 xmlns:xlink="http://www.w3.org/1999/xlink"
 xmlns:xodm="http://www.corel.com/coreldraw/odm/2003">
 <defs>
  <style type="text/css">
   <![CDATA[
    .fil0 {fill:white;fill-rule:nonzero}
    .fil1 {fill:#C4C4C4;fill-rule:nonzero}
   ]]>
  </style>
 </defs>
 <g id="Слой_x0020_1">
  <metadata id="CorelCorpID_0Corel-Layer"/>
  <circle class="fil0" cx="11.56" cy="11.56" r="11.56"/>
  <path class="fil1" d="M11.56 4.11l0 0c0.72,0 1.3,0.59 1.3,1.3l0 4.84 4.84 0c0.72,0 1.3,0.59 1.3,1.3l0 0c0,0.72 -0.59,1.3 -1.3,1.3l-4.84 0 0 4.84c0,0.72 -0.59,1.3 -1.3,1.3l-0 0c-0.72,0 -1.3,-0.59 -1.3,-1.3l0 -4.84 -4.84 0c-0.72,0 -1.3,-0.59 -1.3,-1.3l0 -0c0,-0.72 0.59,-1.3 1.3,-1.3l4.84 0 0 -4.84c0,-0.72 0.59,-1.3 1.3,-1.3z"/>
 </g>
</svg>
