<?xml version="1.0" encoding="UTF-8"?>
<!DOCTYPE svg PUBLIC "-//W3C//DTD SVG 1.1//EN" "http://www.w3.org/Graphics/SVG/1.1/DTD/svg11.dtd">
<!-- Creator: CorelDRAW -->
<svg xmlns="http://www.w3.org/2000/svg" xml:space="preserve" width="25.7175mm" height="22.2175mm" version="1.1" style="shape-rendering:geometricPrecision; text-rendering:geometricPrecision; image-rendering:optimizeQuality; fill-rule:evenodd; clip-rule:evenodd"
viewBox="0 0 56.69 48.97"
 xmlns:xlink="http://www.w3.org/1999/xlink"
 xmlns:xodm="http://www.corel.com/coreldraw/odm/2003">
 <defs>
  <style type="text/css">
   <![CDATA[
    .fil0 {fill:#2B2B2A}
   ]]>
  </style>
 </defs>
 <g id="Слой_x0020_1">
  <metadata id="CorelCorpID_0Corel-Layer"/>
  <path class="fil0" d="M15.52 42.81l0 -14.66c0,-0.5 0.18,-0.92 0.55,-1.29 0.36,-0.36 0.79,-0.54 1.29,-0.54l21.99 0c0.5,0 0.92,0.18 1.29,0.54 0.36,0.36 0.54,0.79 0.54,1.29l0 14.66c0,0.5 -0.18,0.93 -0.54,1.29 -0.36,0.36 -0.79,0.54 -1.29,0.54l-21.99 0c-0.5,0 -0.92,-0.18 -1.29,-0.54 -0.36,-0.36 -0.55,-0.79 -0.55,-1.29zm29.32 -14.66c0,-0.5 0.18,-0.92 0.55,-1.29 0.36,-0.36 0.79,-0.54 1.29,-0.54l3.66 0c0.5,0 0.93,0.18 1.29,0.54 0.36,0.36 0.54,0.79 0.54,1.29l0 3.67c0,0.5 -0.18,0.93 -0.54,1.29 -0.36,0.36 -0.79,0.54 -1.29,0.54l-3.66 0c-0.5,0 -0.93,-0.18 -1.29,-0.54 -0.36,-0.36 -0.55,-0.79 -0.55,-1.29l0 -3.67zm11.85 15.69l0 -38.7c0,-2.83 -2.3,-5.13 -5.13,-5.13l-46.42 0c-2.83,0 -5.13,2.3 -5.13,5.13l0 38.7c0,2.84 2.3,5.14 5.13,5.14l46.42 0c2.83,0 5.13,-2.3 5.13,-5.14zm-44.84 -37.68l0 3.66c0,0.5 -0.18,0.93 -0.54,1.29 -0.36,0.36 -0.79,0.55 -1.29,0.55l-3.66 0c-0.5,0 -0.93,-0.18 -1.29,-0.55 -0.36,-0.36 -0.54,-0.79 -0.54,-1.29l0 -3.66c0,-0.5 0.18,-0.92 0.54,-1.29 0.36,-0.36 0.79,-0.54 1.29,-0.54l3.66 0c0.5,0 0.92,0.18 1.29,0.54 0.36,0.36 0.54,0.79 0.54,1.29zm0 11l0 3.66c0,0.5 -0.18,0.92 -0.54,1.29 -0.36,0.36 -0.79,0.54 -1.29,0.54l-3.66 0c-0.5,0 -0.93,-0.18 -1.29,-0.54 -0.36,-0.36 -0.54,-0.79 -0.54,-1.29l0 -3.66c0,-0.5 0.18,-0.93 0.54,-1.29 0.36,-0.36 0.79,-0.55 1.29,-0.55l3.66 0c0.5,0 0.92,0.18 1.29,0.55 0.36,0.36 0.54,0.79 0.54,1.29zm0 10.99l0 3.67c0,0.5 -0.18,0.93 -0.54,1.29 -0.36,0.36 -0.79,0.54 -1.29,0.54l-3.66 0c-0.5,0 -0.93,-0.18 -1.29,-0.54 -0.36,-0.36 -0.54,-0.79 -0.54,-1.29l0 -3.67c0,-0.5 0.18,-0.92 0.54,-1.29 0.36,-0.36 0.79,-0.54 1.29,-0.54l3.66 0c0.5,0 0.92,0.18 1.29,0.54 0.36,0.36 0.54,0.79 0.54,1.29zm0 11l0 3.66c0,0.5 -0.18,0.93 -0.54,1.29 -0.36,0.36 -0.79,0.54 -1.29,0.54l-3.66 0c-0.5,0 -0.93,-0.18 -1.29,-0.54 -0.36,-0.36 -0.54,-0.79 -0.54,-1.29l0 -3.66c0,-0.5 0.18,-0.93 0.54,-1.29 0.36,-0.36 0.79,-0.55 1.29,-0.55l3.66 0c0.5,0 0.92,0.18 1.29,0.55 0.36,0.36 0.54,0.79 0.54,1.29zm27.49 -16.49l-21.99 0c-0.5,0 -0.92,-0.18 -1.29,-0.54 -0.36,-0.36 -0.55,-0.79 -0.55,-1.29l0 -14.66c0,-0.5 0.18,-0.92 0.55,-1.29 0.36,-0.36 0.79,-0.54 1.29,-0.54l21.99 0c0.5,0 0.92,0.18 1.29,0.54 0.36,0.36 0.54,0.79 0.54,1.29l0 14.66c0,0.5 -0.18,0.92 -0.54,1.29 -0.36,0.36 -0.79,0.54 -1.29,0.54zm10.99 -11l-3.66 0c-0.5,0 -0.93,-0.18 -1.29,-0.55 -0.36,-0.36 -0.55,-0.79 -0.55,-1.29l0 -3.66c0,-0.5 0.18,-0.92 0.55,-1.29 0.36,-0.36 0.79,-0.54 1.29,-0.54l3.66 0c0.5,0 0.93,0.18 1.29,0.54 0.36,0.36 0.54,0.79 0.54,1.29l0 3.66c0,0.5 -0.18,0.93 -0.54,1.29 -0.36,0.36 -0.79,0.55 -1.29,0.55zm-4.95 10.45c-0.36,-0.36 -0.55,-0.79 -0.55,-1.29l0 -3.66c0,-0.5 0.18,-0.93 0.55,-1.29 0.36,-0.36 0.79,-0.55 1.29,-0.55l3.66 0c0.5,0 0.93,0.18 1.29,0.55 0.36,0.36 0.54,0.79 0.54,1.29l0 3.66c0,0.5 -0.18,0.92 -0.54,1.29 -0.36,0.36 -0.79,0.54 -1.29,0.54l-3.66 0c-0.5,0 -0.93,-0.18 -1.29,-0.54zm-0.55 20.7l0 -3.66c0,-0.5 0.18,-0.93 0.55,-1.29 0.36,-0.36 0.79,-0.55 1.29,-0.55l3.66 0c0.5,0 0.93,0.18 1.29,0.55 0.36,0.36 0.54,0.79 0.54,1.29l0 3.66c0,0.5 -0.18,0.93 -0.54,1.29 -0.36,0.36 -0.79,0.54 -1.29,0.54l-3.66 0c-0.5,0 -0.93,-0.18 -1.29,-0.54 -0.36,-0.36 -0.55,-0.79 -0.55,-1.29z"/>
 </g>
</svg>
