<svg width="111" height="32" viewBox="0 0 111 32" fill="none" xmlns="http://www.w3.org/2000/svg">
<path d="M19.2352 4.82099C19.2352 5.2355 19.005 5.44276 18.5444 5.44276C18.3141 5.44276 18.0147 5.18945 17.6386 4.67515C17.2608 4.1389 16.8507 3.62621 16.4105 3.13994C16.2564 2.97563 16.0695 2.84559 15.8618 2.75831C15.6542 2.67102 15.4305 2.62843 15.2053 2.63332H11.8048V19.8814C11.7903 20.1187 11.8591 20.3535 11.9992 20.5455C12.1394 20.7374 12.3421 20.8745 12.5724 20.9331C13.0714 21.1173 13.34 21.3936 13.34 21.7774C13.34 22.1612 13.1097 22.3838 12.6645 22.3838H7.52925C7.06868 22.3838 6.8384 22.1766 6.8384 21.7774C6.8384 21.3783 7.09171 21.1173 7.60601 20.9331C7.83562 20.8732 8.03748 20.7358 8.17737 20.5441C8.31727 20.3525 8.3866 20.1184 8.37361 19.8814V2.65635H4.88101C4.65358 2.65168 4.42766 2.69431 4.21757 2.78152C4.00748 2.86872 3.81778 2.99862 3.66051 3.16297C3.21334 3.6433 2.8028 4.15647 2.43234 4.69818C2.07924 5.19712 1.77988 5.46578 1.54192 5.46578C1.08136 5.46578 0.851074 5.25853 0.851074 4.84402V2.04226C0.851074 1.39747 0.989242 0.990641 1.2579 0.829443C1.79024 0.612877 2.36645 0.52605 2.93896 0.576133H17.1474C17.7362 0.522914 18.3294 0.604285 18.8821 0.814091C19.1201 0.967612 19.2352 1.37444 19.2352 2.04226V4.82099Z" fill="white"/>
<path d="M34.1571 21.2397L30.5494 22.5599C30.245 22.6775 29.9235 22.7449 29.5975 22.7595H28.9681C28.2217 22.7266 27.4891 22.547 26.8121 22.2309C26.1351 21.9148 25.527 21.4684 25.0226 20.9173C23.924 19.7698 23.2544 18.2788 23.1266 16.6954C23.1266 16.2732 23.1266 15.8587 23.1266 15.4596C23.1276 14.946 23.1636 14.4331 23.2341 13.9244C23.3874 12.9732 23.7406 12.0654 24.2703 11.2608C24.6462 10.6841 25.1281 10.184 25.6904 9.78697C25.9492 9.61028 26.2242 9.45863 26.5118 9.33408L28.9451 8.43598L31.3784 7.53021C31.5797 7.45397 31.7926 7.41244 32.0078 7.40739H32.0999C32.9404 7.46934 33.7689 7.64228 34.5639 7.92169C34.6295 7.93588 34.6919 7.96189 34.7482 7.99845C34.9478 8.07521 35.2011 8.16732 35.5158 8.26711C35.5864 8.29636 35.6619 8.31198 35.7384 8.31317C35.7931 8.3143 35.8468 8.29819 35.8919 8.26711C36.0339 8.14867 36.1649 8.01765 36.2834 7.87563C36.3432 7.79415 36.4221 7.7285 36.513 7.68436C36.604 7.64022 36.7043 7.61893 36.8054 7.62232C36.9087 7.6182 37.0114 7.63928 37.1047 7.68373C37.4809 7.81422 37.6651 7.99845 37.6651 8.25176V19.881C37.6524 20.1169 37.722 20.35 37.862 20.5404C38.002 20.7307 38.2037 20.8666 38.4327 20.9249C38.9316 21.1015 39.2003 21.3855 39.2003 21.7616C39.2003 22.1378 38.97 22.3834 38.5094 22.3834H34.7866C34.372 22.3834 34.1571 22.2145 34.1571 21.8844V21.2397ZM34.1571 10.616C33.7301 10.247 33.2517 9.94185 32.737 9.71021C32.2283 9.44518 31.6731 9.28098 31.102 9.22662H31.056C30.9007 9.2298 30.7473 9.261 30.6031 9.31873L28.4538 10.117C28.2854 10.1874 28.1317 10.289 28.0009 10.4164C27.4112 11.0656 27.0057 11.8607 26.8265 12.7192C26.6605 13.4003 26.5755 14.0985 26.5732 14.7994C26.5732 15.0067 26.5732 15.2293 26.5732 15.4596C26.6265 16.6758 27.0289 17.851 27.7323 18.8447C28.2766 19.6617 29.0923 20.2599 30.0351 20.5335C30.3717 20.6318 30.7207 20.6809 31.0713 20.6793H31.4014C31.6339 20.6484 31.8628 20.5944 32.0846 20.5181L33.1669 20.1189L34.1418 19.7505L34.1571 10.616Z" fill="white"/>
<path d="M49.2787 8.86628L52.7022 7.6074C52.9979 7.49377 53.3079 7.42144 53.6233 7.39247H54.2681C55.0216 7.42348 55.7613 7.60441 56.4441 7.92469C57.1268 8.24496 57.7388 8.69815 58.2443 9.25775C59.3037 10.4218 59.9487 11.9034 60.0789 13.4719C60.0789 13.8864 60.1403 14.2933 60.1403 14.6924C60.1405 15.2213 60.1046 15.7496 60.0329 16.2737C59.8724 17.2156 59.5253 18.116 59.0119 18.9219C58.6172 19.4839 58.1322 19.9767 57.5765 20.3804C57.3213 20.5628 57.0456 20.7148 56.7552 20.8333C54.9897 21.4934 53.37 22.0896 51.8962 22.6218C51.6871 22.6989 51.4666 22.7404 51.2438 22.7446H51.167C50.526 22.7105 49.8917 22.5971 49.2787 22.4068V28.5477C49.2617 28.7769 49.323 29.005 49.4528 29.1947C49.5825 29.3844 49.7728 29.5244 49.9926 29.5916C50.4992 29.7759 50.7602 30.0599 50.7602 30.4514C50.7602 30.8428 50.5299 31.0578 50.077 31.0578H45.0031C44.5426 31.0578 44.3123 30.8505 44.3123 30.4514C44.3123 30.0522 44.5579 29.7759 45.0799 29.5916C45.3075 29.5336 45.5082 29.3988 45.648 29.2101C45.7879 29.0213 45.8583 28.7901 45.8475 28.5554V10.2556C45.8565 10.0223 45.7852 9.79283 45.6455 9.60564C45.5058 9.41846 45.3062 9.28483 45.0799 9.22705C44.5733 9.0505 44.3123 8.76649 44.3123 8.37501C44.3123 7.98353 44.5349 7.75325 44.9878 7.75325C45.621 7.72054 46.2489 7.62018 46.8607 7.45388C47.4902 7.28501 48.2885 7.0317 49.2787 6.68628V8.86628ZM49.2787 19.7202C49.6905 20.0507 50.1449 20.3244 50.6297 20.5339C51.1063 20.7792 51.6296 20.9205 52.1649 20.9484H52.257C52.3961 20.9412 52.5333 20.9127 52.6638 20.864L53.7385 20.4725L54.8131 20.0657C54.991 20.005 55.1517 19.9023 55.2814 19.7663C55.8607 19.1121 56.2601 18.3185 56.4405 17.4635C56.6073 16.7826 56.6924 16.0843 56.6938 15.3833C56.7052 15.1634 56.7052 14.943 56.6938 14.7231C56.6444 13.5109 56.2532 12.3374 55.5654 11.338C55.0131 10.5287 54.2005 9.93272 53.2626 9.64923C52.9152 9.55237 52.5562 9.5033 52.1956 9.50339C52.096 9.49513 51.9958 9.49513 51.8962 9.50339C51.6626 9.52803 51.433 9.58219 51.2131 9.66459L50.2612 10.0177L49.2787 10.4015V19.7202Z" fill="white"/>
<path d="M66.8338 9.68004L65.5059 9.74145H65.4138C65.3285 9.75515 65.2413 9.74975 65.1583 9.72564C65.0754 9.70153 64.9989 9.65931 64.9342 9.60203C64.8696 9.54475 64.8185 9.47384 64.7846 9.39441C64.7507 9.31498 64.7349 9.22901 64.7383 9.14272C64.7439 8.99978 64.7934 8.86204 64.8798 8.74809C64.9663 8.63415 65.0857 8.54951 65.2219 8.5056C65.4138 8.42117 65.8129 8.20624 66.4424 7.86082L66.9336 7.63821H66.9797C66.9797 7.63821 66.9336 7.63821 66.8338 7.63821V5.33539C66.8107 5.11828 66.8321 4.89873 66.8968 4.69019C66.9615 4.48164 67.068 4.2885 67.21 4.12257C67.6779 3.75192 68.1945 3.44716 68.7452 3.2168C69.0056 3.07502 69.2937 2.99123 69.5895 2.97117C70.0731 2.97117 70.3111 3.20145 70.3111 3.66201V7.5461L73.5197 7.48469C73.9188 7.48469 74.1184 7.71497 74.1184 8.17553C74.1133 8.36369 74.0928 8.55111 74.057 8.73589C73.9188 9.38068 73.5657 9.6954 73.0054 9.6954H70.2957V18.7685C70.2714 19.1214 70.3368 19.4746 70.4857 19.7954C70.6347 20.1162 70.8625 20.394 71.1478 20.6031C71.6573 20.9836 72.2535 21.2316 72.8826 21.3246V22.3686C71.4126 22.4016 69.9445 22.2442 68.5149 21.9003C67.3865 21.5856 66.8262 20.3651 66.8262 18.3156L66.8338 9.68004Z" fill="white"/>
<path d="M89.0488 21.2399L85.441 22.5602C85.1366 22.6777 84.8152 22.7451 84.4892 22.7597H83.8598C82.3581 22.6877 80.9457 22.0256 79.9296 20.9175C78.8423 19.7657 78.1837 18.2752 78.0644 16.6957C78.026 16.2735 78.0106 15.859 78.0106 15.4598C78.0091 14.9464 78.0425 14.4335 78.1104 13.9246C78.2663 12.967 78.6248 12.0536 79.162 11.2457C79.5379 10.669 80.0198 10.1689 80.5821 9.77185C80.8426 9.59355 81.1203 9.44183 81.4111 9.31897L83.8367 8.42086L86.2701 7.51509C86.4714 7.43885 86.6842 7.39732 86.8995 7.39228H86.9916C87.8322 7.45342 88.6608 7.62637 89.4556 7.90657C89.5212 7.92077 89.5836 7.94677 89.6398 7.98333C89.8394 8.06009 90.0927 8.1522 90.4075 8.25199C90.4781 8.28124 90.5536 8.29687 90.6301 8.29805C90.6848 8.29918 90.7385 8.28307 90.7836 8.25199C90.9256 8.13356 91.0566 8.00253 91.1751 7.86051C91.2715 7.74231 91.4045 7.65939 91.5531 7.62467C91.7016 7.58996 91.8575 7.6054 91.9964 7.66861C92.3725 7.7991 92.5568 7.98333 92.5568 8.23664V19.8812C92.5441 20.1172 92.6137 20.3502 92.7537 20.5406C92.8937 20.731 93.0954 20.8669 93.3244 20.9252C93.8233 21.1017 94.092 21.3857 94.092 21.7619C94.092 22.138 93.8617 22.3836 93.4011 22.3836H89.6782C89.2637 22.3836 89.0488 22.2147 89.0488 21.8847V21.2399ZM89.0488 10.6162C88.616 10.2435 88.1295 9.9381 87.6057 9.71044C87.0969 9.44542 86.5418 9.28121 85.9707 9.22685H85.9246C85.7718 9.22922 85.6207 9.26047 85.4794 9.31897L84.3971 9.71812L83.3224 10.1173C83.154 10.1877 83.0003 10.2892 82.8696 10.4166C82.2792 11.0643 81.8759 11.8603 81.7028 12.7195C81.5307 13.3995 81.443 14.0982 81.4418 14.7997C81.4418 15.0069 81.4418 15.2295 81.4418 15.4598C81.5091 16.677 81.9189 17.8505 82.6239 18.845C83.1683 19.6619 83.9839 20.2601 84.9267 20.5337C85.2635 20.6315 85.6124 20.6806 85.963 20.6795H86.2931C86.5256 20.6486 86.7544 20.5946 86.9762 20.5183L88.0586 20.1192L89.0334 19.7507L89.0488 10.6162Z" fill="white"/>
<path d="M104.332 13.1265V19.8814C104.319 20.1174 104.389 20.3504 104.529 20.5408C104.669 20.7312 104.871 20.8671 105.1 20.9254C105.599 21.1019 105.867 21.3859 105.867 21.7621C105.867 22.1382 105.645 22.3838 105.192 22.3838H100.095C99.6343 22.3838 99.3963 22.1766 99.3963 21.7621C99.3963 21.3476 99.6496 21.1019 100.164 20.9254C100.394 20.8684 100.596 20.7328 100.736 20.5421C100.877 20.3514 100.946 20.1177 100.932 19.8814V10.2556C100.942 10.0219 100.871 9.79181 100.731 9.60432C100.591 9.41683 100.391 9.28353 100.164 9.22705C99.665 9.0505 99.3963 8.76649 99.3963 8.37501C99.3963 7.98353 99.6266 7.75325 100.079 7.75325C100.713 7.72054 101.341 7.62018 101.952 7.45388C102.574 7.28501 103.388 7.0317 104.378 6.68628V8.64367L105.913 8.06029L107.733 7.39247C107.929 7.34769 108.13 7.32707 108.331 7.33106C108.95 7.37485 109.558 7.51201 110.135 7.7379L109.759 12.0135H108.408C108.017 10.5473 107.364 9.81811 106.458 9.81811H106.167C105.87 9.85186 105.587 9.96527 105.349 10.1463C105.112 10.3274 104.927 10.5694 104.816 10.8467C104.5 11.5656 104.336 12.3415 104.332 13.1265Z" fill="white"/>
<path fill-rule="evenodd" clip-rule="evenodd" d="M31.041 5.08188C30.9148 5.08188 30.7938 5.03174 30.7045 4.94249C30.6153 4.85324 30.5651 4.73219 30.5651 4.60596V2.65624C30.5651 2.53002 30.6153 2.40897 30.7045 2.31972C30.7938 2.23047 30.9148 2.18033 31.041 2.18033H32.0236C32.2846 2.18033 32.5609 2.39526 32.4995 2.65624C32.3383 3.34709 31.302 5.08188 31.041 5.08188Z" fill="white"/>
</svg>
