<svg width="16" height="63" viewBox="0 0 16 63" fill="none" xmlns="http://www.w3.org/2000/svg">
<path d="M6.03338 6.47068L0 13.6478H0.767606L5.11993 12.0282L6.03338 6.47068Z" fill="white"/>
<path d="M4.93593 42.817V42.3027L3.53889 22.2989L3.50051 18.3764L3.93037 22.3065L4.97431 42.3411V42.7632L5.90312 41.8114L5.12784 12.8957L0.952059 14.4309L4.03784 43.7535L4.93593 42.817ZM2.63312 16.8412L2.57171 16.2118V16.1196C2.54699 15.9602 2.58522 15.7974 2.67832 15.6656C2.77143 15.5338 2.91211 15.4434 3.07065 15.4134C3.15094 15.4061 3.2319 15.4148 3.30877 15.4391C3.38565 15.4634 3.45691 15.5028 3.51838 15.555C3.57984 15.6072 3.63029 15.6711 3.66676 15.743C3.70324 15.8149 3.72501 15.8934 3.73079 15.9738V16.0736L3.7922 16.6954L3.86129 17.3248L2.7022 17.8621L2.63312 16.8412Z" fill="white"/>
<path d="M9.87911 6.47068L10.7849 12.0282L15.1449 13.6478H15.9048L9.87911 6.47068Z" fill="white"/>
<path d="M10.1478 36.3077L9.9789 41.8037L10.9154 42.7632V42.3334L11.9593 22.2989L12.3892 18.3687L12.3431 22.2989L10.9998 42.295V42.817L11.8749 43.7535L14.9453 14.4616L10.7465 12.8957L10.1478 36.3077ZM12.1128 16.6954L12.1819 16.0659V15.9661C12.1886 15.8857 12.2114 15.8073 12.2487 15.7358C12.2861 15.6642 12.3374 15.6008 12.3996 15.5493C12.4618 15.4979 12.5337 15.4593 12.611 15.436C12.6883 15.4127 12.7695 15.405 12.8497 15.4134C13.0124 15.4363 13.1594 15.5226 13.2586 15.6535C13.3579 15.7844 13.4013 15.9492 13.3794 16.112V16.2118L13.3103 16.8412L13.2028 17.8621L12.0514 17.3248L12.1128 16.6954Z" fill="white"/>
<path d="M4.60557 62.3295L4.76677 61.5619C5.05846 60.2877 5.34247 59.0135 5.63416 57.7239C5.63805 57.6959 5.63805 57.6675 5.63416 57.6395V54.0241H10.9153V58.9367C10.9085 58.98 10.9085 59.024 10.9153 59.0672C11.2761 60.0958 11.6445 61.1321 12.0053 62.1376V62.2221H7.06959L7.18473 61.2933C7.23078 60.9095 7.28452 60.5257 7.33057 60.1265C7.37663 59.7274 7.43036 59.3589 7.48409 58.9598C7.48409 58.6911 7.55318 58.4301 7.57621 58.1922C7.58761 58.1004 7.58761 58.0076 7.57621 57.9158L7.43804 56.68C7.43804 56.4267 7.38431 56.1733 7.34593 55.9124C7.34593 55.9124 7.34593 55.9124 7.34593 55.9661C7.34593 56.6569 7.34593 57.3555 7.29987 58.0463C7.28582 58.2009 7.25229 58.353 7.20008 58.4992L6.14078 62.3065L4.60557 62.3295Z" fill="white"/>
<path d="M9.02674 49.3413V51.3601H4.7742C4.7502 51.3621 4.72617 51.3565 4.70552 51.3441C4.68486 51.3317 4.66862 51.3132 4.65906 51.291C4.52857 51.0147 4.3904 50.746 4.25991 50.4774C4.25208 50.4446 4.25208 50.4104 4.25991 50.3776V49.3797C4.25632 49.3646 4.25632 49.3488 4.25991 49.3336L9.02674 49.3413Z" fill="white"/>
<path d="M9.01955 51.6829V53.7324H5.94912C5.90306 53.7324 5.87236 53.7324 5.84933 53.6864C5.52694 53.0416 5.20454 52.3968 4.88982 51.7443L9.01955 51.6829Z" fill="white"/>
<path d="M4.23681 46.9927H6.06371L5.46498 47.9675L6.64709 49.0115H4.23681V46.9927Z" fill="white"/>
<path d="M3.56965 51.6673H4.49846C4.49846 51.6673 4.55986 51.6673 4.57522 51.6673L5.5424 53.6017C5.5393 53.6169 5.5393 53.6325 5.5424 53.6477H5.47331L4.06092 52.5808C4.03674 52.5644 4.0159 52.5435 3.99951 52.5194L3.585 51.7517C3.585 51.7517 3.57733 51.6827 3.56965 51.6673Z" fill="white"/>
<path d="M9.28042 42.1262L9.37253 36.3769L10.0173 12.4659L8.25183 1.71176L8.08295 0.821338L7.92176 0L7.56866 2.30282L5.90295 12.4352L6.54774 36.3385L6.64753 42.0878L5.11232 43.8457H10.8617L9.28042 42.1262ZM8.05993 36.0775L7.96014 42.0418H7.91408L7.81429 36.0238L7.17718 12.2817L7.94479 7.63768L8.71239 12.3201L8.05993 36.0775Z" fill="white"/>
<path d="M11.9673 45.0741L11.6142 44.6826H7.91432C7.89433 44.6814 7.8744 44.6858 7.85676 44.6953C7.83913 44.7047 7.8245 44.719 7.81453 44.7363C7.16974 45.7726 6.52495 46.8242 5.88784 47.8835C5.88637 47.904 5.88637 47.9245 5.88784 47.9449C6.24861 48.275 6.65544 48.5897 6.97784 48.9121L9.45721 46.878L9.64143 47.1082L7.23882 49.0503H9.24228C9.34206 49.0503 9.34206 49.0503 9.34206 49.1501V53.7557H11.0078C11.0207 53.7529 11.0329 53.7473 11.0435 53.7394C11.0541 53.7314 11.0629 53.7213 11.0692 53.7097C11.6909 52.3126 12.3127 50.9232 12.9268 49.5262C12.9325 49.5129 12.9354 49.4985 12.9354 49.484C12.9354 49.4695 12.9325 49.4551 12.9268 49.4418L11.9673 45.0741Z" fill="white"/>
<path d="M4.46709 44.6517L4.23681 44.9127V46.6705H6.20956C6.2325 46.672 6.25532 46.6661 6.27467 46.6537C6.29401 46.6413 6.30886 46.6229 6.31702 46.6014L7.46075 44.7055C7.45841 44.6851 7.45841 44.6644 7.46075 44.644L4.46709 44.6517Z" fill="white"/>
<path d="M3.96102 50.501C3.94944 50.4427 3.94944 50.3827 3.96102 50.3245C3.96102 48.6409 3.96102 46.9598 3.96102 45.2813L3.19341 46.2024V50.8618C3.19716 50.8821 3.19716 50.9029 3.19341 50.9232C3.2625 51.0537 3.33158 51.1765 3.39299 51.307C3.39991 51.3272 3.41365 51.3444 3.43186 51.3556C3.45007 51.3668 3.4716 51.3713 3.49278 51.3684H4.41391C4.39958 51.3436 4.38677 51.318 4.37552 51.2916C4.22968 51.0307 4.09151 50.7697 3.96102 50.501Z" fill="white"/>
</svg>
