<svg width="111" height="4" viewBox="0 0 111 4" fill="none" xmlns="http://www.w3.org/2000/svg">
<path d="M3.4266 2.90119V3.89907H3.14258V3.1852H0.601807V0.114771H0.908847V2.90886H2.66667V0.1071H2.96603V2.90119H3.4266Z" fill="white"/>
<path d="M6.12807 0.1071H6.43512V2.65555L8.3004 0.1071H8.57674V3.17752H8.27737V0.636744L6.43512 3.1852H6.12807V0.1071Z" fill="white"/>
<path d="M13.1978 2.97063V3.28535H12.9061V2.97063C11.9312 2.97063 11.3709 2.45634 11.3709 1.64268C11.3709 0.829014 11.9466 0.345418 12.9061 0.307038V0H13.1978V0.307038C14.165 0.307038 14.733 0.829014 14.733 1.64268C14.733 2.45634 14.1727 2.93993 13.1978 2.97063ZM12.9061 2.70965V0.575705C12.1385 0.575705 11.6472 0.982535 11.6472 1.64268C11.6472 2.30282 12.1155 2.67127 12.9061 2.70965ZM14.4413 1.64268C14.4413 0.982535 13.9731 0.606409 13.1824 0.575705V2.70965C13.9961 2.67894 14.4567 2.30282 14.4567 1.64268H14.4413Z" fill="white"/>
<path d="M19.8151 1.1588C19.8151 1.81894 19.3622 2.21042 18.6253 2.21042H17.8577V3.18528H17.5507V0.114855H18.6407C19.3622 0.107179 19.8151 0.483306 19.8151 1.1588ZM19.5081 1.1588C19.5081 0.667532 19.1933 0.391194 18.6176 0.391194H17.85V1.92641H18.6176C19.1933 1.92641 19.485 1.64239 19.485 1.1588H19.5081Z" fill="white"/>
<path d="M22.3175 1.64231C22.3175 1.33868 22.4075 1.04186 22.5762 0.789392C22.7449 0.536927 22.9846 0.340156 23.2652 0.223959C23.5457 0.107763 23.8544 0.0773632 24.1522 0.1366C24.45 0.195836 24.7235 0.34205 24.9382 0.556753C25.1529 0.771457 25.2991 1.04501 25.3584 1.34281C25.4176 1.64061 25.3872 1.94929 25.271 2.22981C25.1548 2.51034 24.9581 2.7501 24.7056 2.91879C24.4531 3.08748 24.1563 3.17753 23.8527 3.17753C23.4455 3.17753 23.055 3.01578 22.7671 2.72787C22.4792 2.43997 22.3175 2.04948 22.3175 1.64231ZM25.0655 1.64231C25.0564 1.40125 24.9766 1.16818 24.8359 0.972204C24.6952 0.776228 24.5 0.626023 24.2745 0.540326C24.049 0.45463 23.8032 0.437237 23.5679 0.490325C23.3326 0.543413 23.1181 0.664629 22.9512 0.838843C22.7844 1.01306 22.6725 1.23255 22.6296 1.46994C22.5867 1.70733 22.6146 1.95211 22.71 2.17371C22.8053 2.39531 22.9638 2.58393 23.1656 2.71604C23.3675 2.84814 23.6038 2.91787 23.845 2.91654C24.0099 2.9167 24.1731 2.88344 24.3248 2.81877C24.4765 2.7541 24.6135 2.65937 24.7276 2.54028C24.8416 2.4212 24.9304 2.28023 24.9885 2.12589C25.0466 1.97156 25.0727 1.80705 25.0655 1.64231Z" fill="white"/>
<path d="M30.5381 2.34848C30.5381 2.87812 30.185 3.18516 29.4788 3.18516H28.1892V0.11474H29.4021C30.0161 0.11474 30.3923 0.383402 30.3923 0.882346C30.4006 1.03581 30.3586 1.1878 30.2727 1.31525C30.1869 1.4427 30.0617 1.53866 29.9164 1.58855C30.0983 1.60982 30.2649 1.70098 30.3809 1.84277C30.4969 1.98457 30.5533 2.1659 30.5381 2.34848ZM28.4963 1.49643H29.3867C29.8319 1.49643 30.0852 1.30453 30.0852 0.936078C30.0852 0.567627 29.8319 0.368051 29.3867 0.368051H28.4963V1.49643ZM30.2311 2.33313C30.2311 1.9263 29.9701 1.74974 29.4635 1.74974H28.4963V2.92418H29.4635C29.9701 2.92418 30.2311 2.73228 30.2311 2.33313Z" fill="white"/>
<path d="M35.2514 2.36383H33.6317L33.3017 3.18516H32.9793L34.3072 0.11474H34.6143L35.9422 3.18516H35.6045L35.2514 2.36383ZM35.1439 2.09517L34.4454 0.483193L33.7469 2.13355L35.1439 2.09517Z" fill="white"/>
<path d="M40.4941 0.1071V3.17752H40.2101V2.24872H39.1585L38.5444 3.19287H38.222L38.8821 2.19499C38.6759 2.12952 38.4982 1.99577 38.3782 1.81577C38.2582 1.63578 38.2031 1.42028 38.222 1.20478C38.212 1.05438 38.2352 0.903616 38.2899 0.763171C38.3447 0.622727 38.4296 0.496031 38.5387 0.392041C38.6478 0.288052 38.7785 0.209313 38.9214 0.1614C39.0643 0.113487 39.216 0.0975675 39.3657 0.114771L40.4941 0.1071ZM39.3504 1.97238H40.2101V0.39111H39.3811C39.2734 0.379193 39.1644 0.390199 39.0613 0.423402C38.9582 0.456605 38.8633 0.511252 38.7828 0.583755C38.7024 0.656259 38.6381 0.744975 38.5944 0.844071C38.5506 0.943167 38.5284 1.0504 38.529 1.15872C38.5135 1.26988 38.5241 1.38315 38.5599 1.48951C38.5958 1.59586 38.6561 1.69238 38.7358 1.77137C38.8155 1.85037 38.9126 1.90968 39.0193 1.94457C39.126 1.97947 39.2394 1.98899 39.3504 1.97238Z" fill="white"/>
<path d="M49.1834 0.1071V3.17752H48.8763V0.39111H47.0341V3.1852H46.7347V0.114771L49.1834 0.1071Z" fill="white"/>
<path d="M54.1113 2.36383H52.4916L52.1385 3.18516H51.8238L53.1518 0.11474H53.4511L54.7868 3.18516H54.4644L54.1113 2.36383ZM54.0268 2.09517L53.2976 0.483193L52.5991 2.13355L54.0268 2.09517Z" fill="white"/>
<path d="M60.4516 0.1071V3.17752H60.1676V0.721181L59.0085 2.78604H58.8627L57.719 0.728859V3.17752H57.4273V0.1071H57.6806L58.9471 2.40992L60.1983 0.1071H60.4516Z" fill="white"/>
<path d="M65.5797 0.1071V3.17752H65.2727V2.24872H64.2364L63.63 3.19287H63.2999L63.9601 2.19499C63.7546 2.12831 63.5777 1.99429 63.4579 1.81459C63.3381 1.63489 63.2825 1.42004 63.2999 1.20478C63.2899 1.05438 63.3131 0.903616 63.3679 0.763171C63.4226 0.622727 63.5075 0.496031 63.6166 0.392041C63.7257 0.288052 63.8564 0.209313 63.9993 0.1614C64.1422 0.113487 64.2939 0.0975675 64.4436 0.114771L65.5797 0.1071ZM64.4283 1.97238H65.2727V0.39111H64.459C64.3513 0.379193 64.2424 0.390199 64.1393 0.423402C64.0362 0.456605 63.9412 0.511252 63.8608 0.583755C63.7803 0.656259 63.7161 0.744975 63.6723 0.844071C63.6286 0.943167 63.6063 1.0504 63.607 1.15872C63.5914 1.26988 63.602 1.38315 63.6379 1.48951C63.6738 1.59586 63.734 1.69238 63.8137 1.77137C63.8935 1.85037 63.9905 1.90968 64.0972 1.94457C64.2039 1.97947 64.3173 1.98899 64.4283 1.97238Z" fill="white"/>
<path d="M70.5459 0.39111H69.525V3.1852H69.2256V0.39111H68.197V0.1071H70.5459V0.39111Z" fill="white"/>
<path d="M75.4511 2.17192C75.4511 2.83207 75.0443 3.18516 74.3304 3.18516H73.1713V0.11474H73.4784V1.21242H74.3918C75.075 1.20474 75.4511 1.53481 75.4511 2.17192ZM75.1441 2.17192C75.1441 1.69601 74.8678 1.46573 74.3227 1.46573H73.4784V2.92418H74.3227C74.8601 2.92418 75.1441 2.67087 75.1441 2.17192Z" fill="white"/>
<path d="M83.8097 0.1071V3.17752H83.5104V1.76513H81.6604V3.1852H81.3534V0.114771H81.6604V1.48112H83.4873V0.1071H83.8097Z" fill="white"/>
<path d="M88.7382 2.36383H87.1186L86.7731 3.18516H86.4508L87.7787 0.11474H88.0857L89.4137 3.18516H89.0913L88.7382 2.36383ZM88.6308 2.09517L87.9322 0.483193L87.2337 2.13355L88.6308 2.09517Z" fill="white"/>
<path d="M94.3336 1.1588C94.3336 1.81894 93.8807 2.21042 93.1438 2.21042H92.3762V3.18528H92.0692V0.114855H93.1745C93.8807 0.107179 94.3336 0.483306 94.3336 1.1588ZM94.0266 1.1588C94.0266 0.667532 93.7195 0.391194 93.1361 0.391194H92.3685V1.92641H93.1361C93.7195 1.92641 94.0266 1.64239 94.0266 1.1588Z" fill="white"/>
<path d="M96.836 1.64231C96.836 1.33868 96.926 1.04186 97.0947 0.789392C97.2634 0.536927 97.5032 0.340156 97.7837 0.223959C98.0642 0.107763 98.3729 0.0773632 98.6707 0.1366C98.9685 0.195836 99.242 0.34205 99.4567 0.556753C99.6714 0.771457 99.8176 1.04501 99.8769 1.34281C99.9361 1.64061 99.9057 1.94929 99.7895 2.22981C99.6733 2.51034 99.4765 2.7501 99.2241 2.91879C98.9716 3.08748 98.6748 3.17753 98.3712 3.17753C97.964 3.17753 97.5735 3.01578 97.2856 2.72787C96.9977 2.43997 96.836 2.04948 96.836 1.64231ZM99.584 1.64231C99.5735 1.40349 99.493 1.17302 99.3527 0.979501C99.2123 0.785984 99.0183 0.637941 98.7945 0.553749C98.5708 0.469557 98.3272 0.452921 98.0941 0.505908C97.861 0.558895 97.6486 0.679173 97.4833 0.851809C97.3179 1.02445 97.2069 1.24184 97.164 1.47701C97.1211 1.71218 97.1482 1.95477 97.2419 2.17468C97.3357 2.39458 97.492 2.58211 97.6913 2.71399C97.8907 2.84588 98.1244 2.91631 98.3635 2.91654C98.5284 2.9167 98.6916 2.88344 98.8433 2.81877C98.995 2.7541 99.132 2.65937 99.2461 2.54028C99.3601 2.4212 99.4489 2.28023 99.507 2.12589C99.565 1.97156 99.5913 1.80705 99.584 1.64231Z" fill="white"/>
<path d="M105.303 2.90119V3.86837H105.019V3.1852H102.478V3.86837H102.194V2.90119H102.34C102.755 2.90119 102.847 2.07984 102.87 1.10498L102.908 0.1071H104.865V2.90119H105.303ZM102.77 2.90119H104.566V0.39111H103.154V1.15872C103.154 1.934 103.054 2.67858 102.77 2.90119Z" fill="white"/>
<path d="M109.886 2.36383H108.266L107.913 3.18516H107.598L108.926 0.11474H109.233L110.561 3.18516H110.239L109.886 2.36383ZM109.778 2.09517L109.08 0.483193L108.381 2.13355L109.778 2.09517Z" fill="white"/>
</svg>
