<svg width="23" height="23" viewBox="0 0 23 23" fill="none" xmlns="http://www.w3.org/2000/svg">
<path fill-rule="evenodd" clip-rule="evenodd" d="M11.7955 4.67823C15.0201 4.67823 17.6331 7.27022 17.6331 10.469C17.6331 13.6678 15.0201 16.2598 11.7955 16.2598C11.1026 16.2598 10.4399 16.1399 9.82442 15.9227L6.48081 18.3236L7.41724 14.6005L7.45123 14.3383C6.52234 13.312 5.95784 11.9579 5.95784 10.469C5.95784 7.27022 8.5708 4.67823 11.7955 4.67823ZM1 7.86391V15.1361C1 18.9716 4.1416 22 7.91945 22H15.0806C18.8735 22 22 18.9585 22 15.1361V7.86391C22 4.02087 18.8508 1 15.0806 1H7.91945C4.10195 1 1 4.07143 1 7.86391ZM16.793 10.469C16.793 7.73094 14.5538 5.50977 11.7936 5.50977C9.03335 5.50977 6.79421 7.73094 6.79421 10.469C6.79421 11.8905 7.39836 13.1734 8.36501 14.0779C8.17999 15.005 8.06671 15.4545 7.80806 16.4077C8.66897 15.7897 8.9635 15.5856 9.77155 15.005C10.3889 15.2766 11.0743 15.4283 11.7936 15.4283C14.5538 15.4283 16.793 13.2071 16.793 10.469ZM9.25614 8.1954H14.5274C14.7671 8.1954 14.9616 8.39017 14.9616 8.62615C14.9616 8.864 14.7671 9.0569 14.5274 9.0569H9.25614C9.01636 9.0569 8.8219 8.86212 8.8219 8.62615C8.8219 8.3883 9.01636 8.1954 9.25614 8.1954ZM9.25614 9.98956H14.5274C14.7671 9.98956 14.9616 10.1843 14.9616 10.4203C14.9616 10.6582 14.7671 10.8511 14.5274 10.8511H9.25614C9.01636 10.8511 8.8219 10.6563 8.8219 10.4203C8.8219 10.1825 9.01636 9.98956 9.25614 9.98956ZM9.25614 11.7463H11.5236C11.7634 11.7463 11.9578 11.941 11.9578 12.177C11.9578 12.4149 11.7615 12.6078 11.5236 12.6078H9.25614C9.01636 12.6078 8.8219 12.413 8.8219 12.177C8.8219 11.9392 9.01825 11.7463 9.25614 11.7463Z" fill="#2B2B2A" stroke="#2B2B2A" stroke-width="0.197559" stroke-miterlimit="22.9256"/>
</svg>
