<svg width="25" height="25" viewBox="0 0 25 25" fill="none" xmlns="http://www.w3.org/2000/svg">
<path fill-rule="evenodd" clip-rule="evenodd" d="M1 8.51757V16.4824C1 20.6844 4.44142 24 8.5798 24H16.4223C20.5772 24 24 20.668 24 16.4824V8.51757C24 4.30946 20.5503 1 16.4223 1H8.5798C4.40005 1 1 4.36485 1 8.51757ZM6.8136 7.52658H9.57045C9.78347 6.09857 11.0244 5.02346 12.501 5.02346C13.9777 5.02346 15.2186 6.10062 15.4316 7.52658H18.1885C18.4739 7.52658 18.7076 7.75843 18.7076 8.04157C18.7076 8.27752 18.5442 8.47859 18.325 8.53809V17.7791C18.325 18.9897 17.326 19.9806 16.1058 19.9806H8.8983C7.67809 19.9806 6.67917 18.9897 6.67917 17.7791V8.53809C6.45994 8.47859 6.29656 8.27752 6.29656 8.04157C6.29656 7.75843 6.53026 7.52658 6.81566 7.52658H6.8136ZM12.501 6.05343C11.5972 6.05343 10.8258 6.67511 10.6273 7.52658H14.3769C14.1762 6.67511 13.4069 6.05343 12.5031 6.05343H12.501ZM15.3737 10.319V17.1882C15.3737 17.4714 15.14 17.7032 14.8546 17.7032C14.5692 17.7032 14.3355 17.4714 14.3355 17.1882V10.319C14.3355 10.0359 14.5692 9.80401 14.8546 9.80401C15.14 9.80401 15.3737 10.0359 15.3737 10.319ZM17.2847 8.55656H7.71531V17.7791C7.71531 18.4234 8.24683 18.9507 8.89623 18.9507H16.1038C16.7532 18.9507 17.2847 18.4234 17.2847 17.7791V8.55656ZM13.0201 10.319V17.1882C13.0201 17.4714 12.7864 17.7032 12.501 17.7032C12.2156 17.7032 11.9819 17.4714 11.9819 17.1882V10.319C11.9819 10.0359 12.2156 9.80401 12.501 9.80401C12.7864 9.80401 13.0201 10.0359 13.0201 10.319ZM10.6666 10.319V17.1882C10.6666 17.4714 10.4329 17.7032 10.1475 17.7032C9.86206 17.7032 9.62836 17.4714 9.62836 17.1882V10.319C9.62836 10.0359 9.86206 9.80401 10.1475 9.80401C10.4329 9.80401 10.6666 10.0359 10.6666 10.319Z" fill="#2B2B2A" stroke="#2B2B2A" stroke-width="0.197594" stroke-miterlimit="22.9256"/>
</svg>
