<svg width="21" height="21" viewBox="0 0 21 21" fill="none" xmlns="http://www.w3.org/2000/svg">
<path fill-rule="evenodd" clip-rule="evenodd" d="M4.48919 10.7713L8.10022 14.5845C8.38978 14.8906 8.79101 15.0633 9.21305 15.0633C9.59724 15.0633 9.96251 14.9225 10.2445 14.6653C12.5194 12.5944 14.7943 10.5216 17.0691 8.45069L17.0597 8.44131L17.1846 8.32114C17.4382 8.07895 17.4457 7.67528 17.2035 7.42369L15.9544 6.13196C15.7103 5.88038 15.3034 5.87287 15.0497 6.11319C13.1969 7.87617 11.2987 9.59034 9.40798 11.3139L9.29065 11.419C8.1816 10.2475 7.10472 9.05901 5.98432 7.90058C5.74018 7.64899 5.33327 7.64148 5.07967 7.88181L3.77758 9.12097C3.56182 9.32561 3.52019 9.65606 3.67538 9.90952L3.68106 9.91891C3.9498 10.2024 4.21476 10.4878 4.48729 10.7694L4.48919 10.7713ZM6.69782 7.22468C7.60436 8.16156 8.45224 9.10219 9.34553 10.0466C11.0318 8.51265 12.72 6.9806 14.3703 5.40912C15.0157 4.79329 16.0471 4.81582 16.6679 5.45606L17.917 6.74779C18.6456 7.50067 18.4583 8.28359 17.8735 9.04211L17.864 9.05338L17.8545 9.06276C15.5399 11.1693 13.2253 13.2778 10.9126 15.3844C10.4489 15.8068 9.84517 16.0415 9.21494 16.0415C8.52037 16.0415 7.85986 15.758 7.38482 15.2548L3.77758 11.4453C3.49558 11.1543 3.21927 10.8539 2.93917 10.5591L2.93349 10.5535L2.9297 10.5479C2.44142 9.92454 2.53226 8.96138 3.10193 8.41878L4.40402 7.17962C5.04939 6.56379 6.08084 6.58632 6.7016 7.22655L6.69782 7.22468ZM0 6.86419V14.1358C0 17.9716 3.14167 21 6.91925 21H14.0808C17.8735 21 21 17.9584 21 14.1358V6.86419C21 3.0228 17.8508 0 14.0808 0H6.91925C3.10193 0 0 3.07161 0 6.86419Z" fill="#2B2B2A"/>
</svg>
