<svg width="29" height="29" viewBox="0 0 29 29" fill="none" xmlns="http://www.w3.org/2000/svg">
<path fill-rule="evenodd" clip-rule="evenodd" d="M7.53982 12.6681L8.86762 14.5516H8.03805L8.06949 14.9619C8.33312 18.4457 11.2741 21.1522 14.798 21.1522C18.5202 21.1522 21.5506 18.1482 21.5506 14.4556C21.5506 10.763 18.5226 7.7566 14.798 7.7566C13.1219 7.7566 11.5232 8.36843 10.2801 9.48174C10.0358 9.70008 9.65366 9.75766 9.39245 9.53932C9.17478 9.35937 9.10222 9.01626 9.31989 8.80752C10.7952 7.39669 12.747 6.6121 14.8004 6.6121C19.1587 6.6121 22.7043 10.1296 22.7043 14.4532C22.7043 18.7769 19.1587 22.2943 14.8004 22.2943C10.6211 22.2943 7.15043 19.0456 6.911 14.9091L6.88923 14.5492H6.21203L7.53982 12.6657V12.6681ZM1 9.79605V19.1176C1 24.0339 5.02693 27.9136 9.86891 27.9136H19.0474C23.9087 27.9136 27.9139 24.0147 27.9139 19.1176V9.79605C27.9139 4.87257 23.8773 1 19.0474 1H9.86891C4.97614 1 1 4.93735 1 9.79605ZM11.828 12.7521C11.5668 12.7521 11.3515 12.4881 11.3515 12.1666C11.3515 11.8451 11.5643 11.5812 11.828 11.5812H18.0243C18.2855 11.5812 18.5008 11.8451 18.5008 12.1666C18.5008 12.4881 18.288 12.7521 18.0243 12.7521H11.828ZM11.3515 14.4892C11.3515 14.1677 11.5643 13.9038 11.828 13.9038H18.0243C18.2855 13.9038 18.5008 14.1677 18.5008 14.4892C18.5008 14.8107 18.288 15.0746 18.0243 15.0746H11.828C11.5668 15.0746 11.3515 14.8107 11.3515 14.4892ZM11.828 16.164H18.0243C18.2855 16.164 18.5008 16.4279 18.5008 16.7494C18.5008 17.0709 18.288 17.3348 18.0243 17.3348H11.828C11.5668 17.3348 11.3515 17.0709 11.3515 16.7494C11.3515 16.4279 11.5643 16.164 11.828 16.164Z" fill="#2B2B2A" stroke="#2B2B2A" stroke-width="0.197477" stroke-miterlimit="22.9256"/>
</svg>
