<svg width="29" height="30" viewBox="0 0 29 30" fill="none" xmlns="http://www.w3.org/2000/svg">
<path fill-rule="evenodd" clip-rule="evenodd" d="M9.31647 15.0893L8.08481 13.2767L6.85315 15.0893H7.48105L7.50081 15.4373C7.72475 19.4173 10.9433 22.5452 14.8183 22.5452C18.8602 22.5452 22.1469 19.1597 22.1469 15.0011C22.1469 10.8403 18.858 7.45476 14.8183 7.45476C12.9171 7.45476 11.1058 8.20962 9.73801 9.56792C9.53602 9.76907 9.60189 10.099 9.80607 10.2731C10.0498 10.481 10.4054 10.4268 10.6294 10.2166C11.782 9.14529 13.2661 8.55541 14.8183 8.55541C18.2718 8.55541 21.0798 11.446 21.0798 15.0011C21.0798 18.554 18.2718 21.4446 14.8183 21.4446C11.5493 21.4446 8.82249 18.8387 8.57879 15.487L8.55025 15.0915H9.31867L9.31647 15.0893ZM2.0209 19.4828V10.5149C2.0209 8.93736 2.44243 7.45928 3.17352 6.19364C4.14393 4.51441 5.661 3.21035 7.47447 2.54363C8.33949 2.22496 9.27256 2.05093 10.2452 2.05093H18.7548C19.7296 2.05093 20.6649 2.22496 21.5321 2.54589C24.7068 3.71886 26.9791 6.84454 26.9791 10.5149V19.4828C26.9791 19.7789 26.9637 20.0705 26.9352 20.3575C26.933 20.3869 26.9286 20.4185 26.9264 20.4479C26.922 20.4773 26.9198 20.5067 26.9154 20.5383C26.5817 23.325 24.9044 25.7681 22.4696 27.0383C22.4125 27.0676 22.3554 27.097 22.2961 27.1264C22.2369 27.1558 22.1754 27.1852 22.1161 27.2123C21.0908 27.6846 19.9536 27.9491 18.757 27.9491H10.2474C8.8203 27.9491 7.48105 27.5762 6.31086 26.9185C6.25817 26.8891 6.20328 26.8575 6.15059 26.8258C6.0979 26.7942 6.04741 26.7648 5.99691 26.7309C3.5248 25.1918 2.02309 22.4503 2.02309 19.4828H2.0209ZM1 10.5149V19.4828C1 22.3125 2.2119 24.9726 4.32176 26.7897C4.35689 26.8213 4.39421 26.8507 4.42934 26.8823C5.10115 27.4428 5.84323 27.9016 6.64458 28.2519C7.78622 28.7491 8.99593 29 10.2452 29H18.7548C20.0019 29 21.2138 28.7491 22.3532 28.2519C22.9745 27.983 23.5563 27.6462 24.1008 27.2507C24.1403 27.2213 24.1799 27.1919 24.2172 27.1626C24.2567 27.1332 24.294 27.1038 24.3335 27.0744C26.3512 25.4992 27.6597 23.1487 27.9429 20.5586C27.9451 20.5293 27.9495 20.4999 27.9517 20.4682C27.9539 20.4389 27.9583 20.4072 27.9605 20.3778C27.9868 20.0818 28 19.7834 28 19.4851V10.5172C28 9.23343 27.7541 7.98587 27.2733 6.8129C27.0691 6.31794 26.8276 5.84333 26.5488 5.39583C26.1909 4.81726 25.7694 4.28162 25.293 3.78893C24.4433 2.91654 23.4554 2.22948 22.3532 1.75034C21.9295 1.56728 21.497 1.41585 21.0579 1.29833C20.3114 1.09944 19.5408 1 18.7548 1H10.2452C10.1244 1 10.0037 1.00226 9.88291 1.00678C9.22207 1.03164 8.5744 1.13108 7.93991 1.29833C7.93771 1.29833 7.93552 1.30059 7.93332 1.30059C7.67865 1.36839 7.42836 1.44749 7.18027 1.5379C7.01781 1.59666 6.85754 1.65994 6.69727 1.72774C6.6797 1.73452 6.66214 1.74356 6.64458 1.75034C5.54464 2.22948 4.55448 2.91428 3.70703 3.78893C3.22841 4.28162 2.80688 4.81952 2.44682 5.40035C2.28436 5.66252 2.13287 5.93373 1.99675 6.21172C1.94845 6.31116 1.90015 6.41061 1.85624 6.51231C1.81233 6.61175 1.76842 6.71346 1.7267 6.8129C1.61034 7.09767 1.50716 7.38696 1.41714 7.6785C1.33152 7.96101 1.25907 8.24578 1.19979 8.53507C1.06586 9.18145 1 9.84365 1 10.5149ZM12.063 12.2325H17.8086C18.0501 12.2325 18.2499 12.4857 18.2499 12.7953C18.2499 13.1049 18.0523 13.3581 17.8086 13.3581H12.063C11.8215 13.3581 11.6217 13.1049 11.6217 12.7953C11.6217 12.4857 11.8193 12.2325 12.063 12.2325ZM12.063 14.4678H17.8086C18.0501 14.4678 18.2499 14.7209 18.2499 15.0305C18.2499 15.3401 18.0523 15.5933 17.8086 15.5933H12.063C11.8215 15.5933 11.6217 15.3401 11.6217 15.0305C11.6217 14.7209 11.8193 14.4678 12.063 14.4678ZM12.063 16.6419H17.8086C18.0501 16.6419 18.2499 16.8951 18.2499 17.2047C18.2499 17.5143 18.0523 17.7675 17.8086 17.7675H12.063C11.8215 17.7675 11.6217 17.5143 11.6217 17.2047C11.6217 16.8951 11.8193 16.6419 12.063 16.6419Z" fill="white" stroke="white" stroke-width="0.198843" stroke-miterlimit="22.9256"/>
</svg>
