<svg width="23" height="23" viewBox="0 0 23 23" fill="none" xmlns="http://www.w3.org/2000/svg">
<path fill-rule="evenodd" clip-rule="evenodd" d="M1.79465 14.8634V8.13657C1.79465 6.95337 2.12176 5.84498 2.69206 4.89468C3.4456 3.63669 4.6273 2.65749 6.03678 2.15769C6.70984 1.918 7.43598 1.7888 8.19295 1.7888H14.8122C15.5709 1.7888 16.297 1.9197 16.9718 2.15939C19.4414 3.03829 21.2071 5.38428 21.2071 8.13657V14.8634C21.2071 15.0844 21.1951 15.3037 21.1728 15.5196C21.1711 15.5417 21.1677 15.5638 21.166 15.5876C21.1642 15.6097 21.1608 15.6318 21.1574 15.6539C20.8988 17.7432 19.5921 19.5775 17.6996 20.5295C17.6551 20.5516 17.6106 20.5737 17.5643 20.5958C17.5181 20.6179 17.4701 20.64 17.4239 20.6604C16.6258 21.0157 15.7421 21.2129 14.8105 21.2129H8.19124C7.08147 21.2129 6.03849 20.9324 5.1291 20.4394C5.088 20.4173 5.04518 20.3935 5.00408 20.3697C4.96297 20.3459 4.92358 20.3238 4.88419 20.3C2.96265 19.1457 1.79465 17.0887 1.79465 14.8634ZM1 8.13657V14.8634C1 16.9867 1.94193 18.9808 3.58433 20.3442C3.61173 20.368 3.64084 20.3901 3.66824 20.4122C4.19059 20.8338 4.76774 21.1772 5.39113 21.439C6.27826 21.8113 7.22019 22 8.19124 22H14.8105C15.7815 22 16.7217 21.8113 17.6089 21.439C18.0918 21.2367 18.5457 20.9851 18.9687 20.6876C18.9995 20.6655 19.0303 20.6434 19.0595 20.6213C19.0903 20.5992 19.1194 20.5771 19.1485 20.555C20.7173 19.3735 21.7345 17.6106 21.9555 15.6675C21.9572 15.6454 21.9606 15.6233 21.9623 15.6012C21.964 15.5791 21.9675 15.5553 21.9692 15.5332C21.9897 15.3122 22 15.0878 22 14.8634V8.13657C22 7.17437 21.8099 6.23938 21.4331 5.35878C21.2756 4.98648 21.0872 4.63118 20.8697 4.29458C20.5905 3.86109 20.2634 3.45819 19.8935 3.08929C19.2324 2.43479 18.4652 1.9197 17.6072 1.561C17.2783 1.4233 16.9427 1.3094 16.6001 1.2227C16.0196 1.0748 15.4202 1 14.8088 1H8.18953C8.09533 1 8.00114 1.0017 7.90866 1.0051C7.39488 1.0238 6.88966 1.0969 6.39814 1.2227C6.39643 1.2227 6.39472 1.2244 6.393 1.2244C6.19605 1.2754 5.9991 1.3349 5.80729 1.4012C5.68056 1.4454 5.55554 1.493 5.43223 1.544C5.41853 1.5491 5.40483 1.5559 5.39113 1.561C4.53482 1.9197 3.76586 2.43479 3.10651 3.08929C2.73487 3.45819 2.40605 3.86279 2.1269 4.29798C2.00016 4.49518 1.88371 4.69748 1.77752 4.90658C1.73985 4.98138 1.70388 5.05618 1.66792 5.13268C1.63366 5.20748 1.59941 5.28228 1.56687 5.35878C1.4761 5.57298 1.39561 5.78888 1.32711 6.00818C1.26032 6.22067 1.2038 6.43487 1.15756 6.65077C1.05309 7.13527 1.00171 7.63167 1.00171 8.13657H1Z" fill="#BED1E6"/>
<path fill-rule="evenodd" clip-rule="evenodd" d="M11.5 5.39958C8.10561 5.39958 5.35345 8.13147 5.35345 11.5008C5.35345 14.8702 8.10561 17.6021 11.5 17.6021C14.8944 17.6021 17.6465 14.8702 17.6465 11.5008C17.6465 8.13147 14.8944 5.39958 11.5 5.39958ZM15.6788 8.14847C16.4255 9.06476 16.8724 10.231 16.8724 11.5008C16.8724 14.4469 14.4662 16.8354 11.4983 16.8354C10.2292 16.8354 9.06467 16.3985 8.145 15.6692C10.6831 13.1498 13.151 10.6594 15.6788 8.15017V8.14847ZM7.56614 15.1337C6.67387 14.1817 6.12584 12.905 6.12584 11.5008C6.12584 8.55476 8.53205 6.16628 11.5 6.16628C12.9026 6.16628 14.1802 6.70007 15.1376 7.57557C12.5875 10.1069 10.1059 12.6109 7.56614 15.1337Z" fill="#BED1E6"/>
<path fill-rule="evenodd" clip-rule="evenodd" d="M1.79465 14.8634V8.13657C1.79465 6.95337 2.12176 5.84498 2.69206 4.89468C3.4456 3.63669 4.6273 2.65749 6.03678 2.15769C6.70984 1.918 7.43598 1.7888 8.19295 1.7888H14.8122C15.5709 1.7888 16.297 1.9197 16.9718 2.15939C19.4414 3.03829 21.2071 5.38428 21.2071 8.13657V14.8634C21.2071 15.0844 21.1951 15.3037 21.1728 15.5196C21.1711 15.5417 21.1677 15.5638 21.166 15.5876C21.1642 15.6097 21.1608 15.6318 21.1574 15.6539C20.8988 17.7432 19.5921 19.5775 17.6996 20.5295C17.6551 20.5516 17.6106 20.5737 17.5643 20.5958C17.5181 20.6179 17.4701 20.64 17.4239 20.6604C16.6258 21.0157 15.7421 21.2129 14.8105 21.2129H8.19124C7.08147 21.2129 6.03849 20.9324 5.1291 20.4394C5.088 20.4173 5.04518 20.3935 5.00408 20.3697C4.96297 20.3459 4.92358 20.3238 4.88419 20.3C2.96265 19.1457 1.79465 17.0887 1.79465 14.8634ZM1 8.13657V14.8634C1 16.9867 1.94193 18.9808 3.58433 20.3442C3.61173 20.368 3.64084 20.3901 3.66824 20.4122C4.19059 20.8338 4.76774 21.1772 5.39113 21.439C6.27826 21.8113 7.22019 22 8.19124 22H14.8105C15.7815 22 16.7217 21.8113 17.6089 21.439C18.0918 21.2367 18.5457 20.9851 18.9687 20.6876C18.9995 20.6655 19.0303 20.6434 19.0595 20.6213C19.0903 20.5992 19.1194 20.5771 19.1485 20.555C20.7173 19.3735 21.7345 17.6106 21.9555 15.6675C21.9572 15.6454 21.9606 15.6233 21.9623 15.6012C21.964 15.5791 21.9675 15.5553 21.9692 15.5332C21.9897 15.3122 22 15.0878 22 14.8634V8.13657C22 7.17437 21.8099 6.23938 21.4331 5.35878C21.2756 4.98648 21.0872 4.63118 20.8697 4.29458C20.5905 3.86109 20.2634 3.45819 19.8935 3.08929C19.2324 2.43479 18.4652 1.9197 17.6072 1.561C17.2783 1.4233 16.9427 1.3094 16.6001 1.2227C16.0196 1.0748 15.4202 1 14.8088 1H8.18953C8.09533 1 8.00114 1.0017 7.90866 1.0051C7.39488 1.0238 6.88966 1.0969 6.39814 1.2227C6.39643 1.2227 6.39472 1.2244 6.393 1.2244C6.19605 1.2754 5.9991 1.3349 5.80729 1.4012C5.68056 1.4454 5.55554 1.493 5.43223 1.544C5.41853 1.5491 5.40483 1.5559 5.39113 1.561C4.53482 1.9197 3.76586 2.43479 3.10651 3.08929C2.73487 3.45819 2.40605 3.86279 2.1269 4.29798C2.00016 4.49518 1.88371 4.69748 1.77752 4.90658C1.73985 4.98138 1.70388 5.05618 1.66792 5.13268C1.63366 5.20748 1.59941 5.28228 1.56687 5.35878C1.4761 5.57298 1.39561 5.78888 1.32711 6.00818C1.26032 6.22067 1.2038 6.43487 1.15756 6.65077C1.05309 7.13527 1.00171 7.63167 1.00171 8.13657H1Z" stroke="#BED1E6" stroke-width="0.5" stroke-miterlimit="22.9256"/>
<path fill-rule="evenodd" clip-rule="evenodd" d="M11.5 5.39958C8.10561 5.39958 5.35345 8.13147 5.35345 11.5008C5.35345 14.8702 8.10561 17.6021 11.5 17.6021C14.8944 17.6021 17.6465 14.8702 17.6465 11.5008C17.6465 8.13147 14.8944 5.39958 11.5 5.39958ZM15.6788 8.14847C16.4255 9.06476 16.8724 10.231 16.8724 11.5008C16.8724 14.4469 14.4662 16.8354 11.4983 16.8354C10.2292 16.8354 9.06467 16.3985 8.145 15.6692C10.6831 13.1498 13.151 10.6594 15.6788 8.15017V8.14847ZM7.56614 15.1337C6.67387 14.1817 6.12584 12.905 6.12584 11.5008C6.12584 8.55476 8.53205 6.16628 11.5 6.16628C12.9026 6.16628 14.1802 6.70007 15.1376 7.57557C12.5875 10.1069 10.1059 12.6109 7.56614 15.1337Z" stroke="#BED1E6" stroke-width="0.5" stroke-miterlimit="22.9256"/>
</svg>
