<svg width="25" height="25" viewBox="0 0 25 25" fill="none" xmlns="http://www.w3.org/2000/svg">
<path fill-rule="evenodd" clip-rule="evenodd" d="M5.21884 12.5C5.21884 8.50945 8.47857 5.27559 12.501 5.27559C16.5235 5.27559 19.7832 8.50945 19.7832 12.5C19.7832 16.4905 16.5235 19.7244 12.501 19.7244C8.47857 19.7244 5.21884 16.4905 5.21884 12.5ZM1 8.51765V16.4823C1 20.6841 4.44163 24 8.57985 24H16.4222C20.577 24 24 20.6677 24 16.4823V8.51765C24 4.30974 20.5501 1 16.4222 1H8.57985C4.40029 1 1 4.36305 1 8.51765V8.51765ZM12.501 6.18402C8.98499 6.18402 6.13454 9.01186 6.13454 12.5C6.13454 14.1631 6.78152 15.6744 7.83985 16.8022C10.8495 13.8165 13.7888 10.8513 16.8108 7.85325C15.676 6.81767 14.1629 6.18402 12.501 6.18402V6.18402ZM17.4537 8.52996C14.4585 11.5013 11.5357 14.4502 8.52817 17.4338C9.61751 18.2972 10.9983 18.816 12.501 18.816C16.0171 18.816 18.8675 15.9881 18.8675 12.5C18.8675 10.9969 18.3384 9.61475 17.4537 8.52996Z" fill="#2B2B2A" stroke="#2B2B2A" stroke-width="0.197495" stroke-miterlimit="22.9256"/>
</svg>
