<svg width="21" height="21" viewBox="0 0 21 21" fill="none" xmlns="http://www.w3.org/2000/svg">
<path fill-rule="evenodd" clip-rule="evenodd" d="M0 14.1251C0 17.9497 3.13122 20.9665 6.89808 20.9665H14.0369C17.8169 20.9665 20.9331 17.9348 20.9331 14.1251V6.87511C20.9331 3.04488 17.7943 0.0336914 14.0369 0.0336914H6.89808C3.09361 0.0336914 0 3.09526 0 6.87511V14.1251ZM7.44722 17.0971C6.73259 17.0971 6.01984 17.1419 5.32213 16.9404C4.26335 16.6344 3.70292 15.8415 3.70292 14.7408C3.70292 11.9106 3.70292 9.0822 3.70292 6.25197C3.70292 4.9516 4.76547 3.8975 6.07626 3.8975H7.44534C8.07535 3.8975 8.67902 4.14563 9.12473 4.5878C9.57043 5.02996 9.82056 5.62884 9.82056 6.25384C9.82056 9.08406 9.82056 11.9124 9.82056 14.7426C9.82056 16.043 8.75801 17.0971 7.44722 17.0971ZM11.1125 6.25384C11.1125 4.95347 12.1751 3.89936 13.4859 3.89936H14.855C15.485 3.89936 16.0886 4.1475 16.5343 4.58966C16.98 5.03183 17.2302 5.63071 17.2302 6.25571C17.2302 9.08593 17.2302 11.9143 17.2302 14.7445C17.2302 16.0449 16.1676 17.099 14.8568 17.099C14.1422 17.099 13.4294 17.1438 12.7317 16.9423C11.673 16.6363 11.1125 15.8434 11.1125 14.7426C11.1125 11.9124 11.1125 9.08406 11.1125 6.25384ZM11.9456 6.25384C11.9456 9.08406 11.9456 11.9124 11.9456 14.7426C11.9456 16.4516 13.6909 16.2706 14.855 16.2706C15.705 16.2706 16.3952 15.5859 16.3952 14.7426C16.3952 11.9124 16.3952 9.08406 16.3952 6.25384C16.3952 5.84712 16.2334 5.46093 15.9438 5.17362C15.6542 4.8863 15.263 4.72586 14.855 4.72586H13.4859C12.6358 4.72586 11.9456 5.41056 11.9456 6.25384ZM8.98744 14.7426C8.98744 11.9124 8.98744 9.08406 8.98744 6.25384C8.98744 5.84712 8.82571 5.46093 8.5361 5.17362C8.24648 4.8863 7.85532 4.72586 7.44722 4.72586H6.07814C5.2281 4.72586 4.53792 5.41056 4.53792 6.25384C4.53792 9.08406 4.53792 11.9124 4.53792 14.7426C4.53792 16.4516 6.28312 16.2706 7.44722 16.2706C8.29726 16.2706 8.98744 15.5859 8.98744 14.7426Z" fill="#4686CC"/>
</svg>
