<svg width="23" height="23" viewBox="0 0 23 23" fill="none" xmlns="http://www.w3.org/2000/svg">
<path fill-rule="evenodd" clip-rule="evenodd" d="M1.79106 14.853V8.1468C1.79106 6.96634 2.11769 5.86188 2.68419 4.91447C3.43612 3.65971 4.61334 2.68359 6.01853 2.1854C6.69051 1.94728 7.41352 1.81725 8.16715 1.81725H14.7661C15.5214 1.81725 16.2461 1.94728 16.9198 2.18709C19.3814 3.06357 21.1439 5.40253 21.1439 8.1468V14.853C21.1439 15.0742 21.132 15.292 21.1099 15.5065C21.1082 15.5285 21.1048 15.5521 21.1031 15.5741C21.0997 15.596 21.098 15.618 21.0946 15.6416C20.836 17.7256 19.5346 19.5528 17.6462 20.5019C17.602 20.5239 17.5578 20.5458 17.5118 20.5678C17.4659 20.5897 17.4183 20.6117 17.3723 20.632C16.5762 20.9849 15.6949 21.1825 14.7678 21.1825H8.16885C7.06307 21.1825 6.02364 20.9039 5.1169 20.4124C5.07437 20.3905 5.03354 20.3668 4.99271 20.3432C4.95188 20.3195 4.91276 20.2976 4.87363 20.2723C2.95638 19.1222 1.79276 17.0703 1.79276 14.853H1.79106ZM1 8.1468V14.853C1 16.969 1.93906 18.9584 3.57561 20.3178C3.60283 20.3415 3.63175 20.3634 3.65897 20.3871C4.17954 20.8076 4.75624 21.1504 5.37718 21.4105C6.26181 21.782 7.20087 21.9695 8.16885 21.9695H14.7678C15.7358 21.9695 16.6748 21.782 17.5578 21.4105C18.0392 21.2095 18.4917 20.9579 18.9136 20.6607C18.9442 20.6387 18.9749 20.6168 19.0055 20.5948C19.0361 20.5729 19.065 20.5509 19.0956 20.5289C20.659 19.3502 21.6747 17.5922 21.8941 15.6568C21.8958 15.6349 21.8992 15.6129 21.9009 15.5893C21.9026 15.5673 21.906 15.5437 21.9077 15.5217C21.9281 15.3005 21.9383 15.0776 21.9383 14.853V8.1468C21.9383 7.18757 21.7478 6.25367 21.3735 5.3772C21.2153 5.00735 21.0282 4.65271 20.8122 4.31664C20.5332 3.88431 20.2082 3.48238 19.8391 3.11592C19.1807 2.46236 18.4152 1.95066 17.5595 1.59095C17.2311 1.45247 16.896 1.34101 16.5541 1.25319C15.9739 1.10458 15.3768 1.03027 14.7678 1.03027H8.16885C8.07528 1.03027 7.98172 1.03196 7.88815 1.03534C7.37609 1.05561 6.87254 1.12822 6.38259 1.25319L6.37749 1.25488C6.18015 1.30554 5.98621 1.36465 5.79227 1.4322C5.66639 1.47611 5.5422 1.5234 5.41801 1.57406C5.4044 1.57913 5.39079 1.58588 5.37718 1.59095C4.52318 1.94897 3.75764 2.46236 3.09928 3.11592C2.72842 3.48407 2.40179 3.88769 2.12279 4.32002C1.9969 4.51592 1.87952 4.71857 1.77405 4.92629C1.73662 5.0006 1.69919 5.07491 1.66517 5.1509C1.63114 5.22521 1.59712 5.3012 1.5648 5.37551C1.47463 5.58829 1.39468 5.80446 1.32493 6.024C1.25858 6.2351 1.20244 6.44957 1.15651 6.66574C1.05274 7.14873 1.0017 7.64523 1.0017 8.1468H1Z" fill="black"/>
<path fill-rule="evenodd" clip-rule="evenodd" d="M12.0661 7.57111C12.0661 6.36869 13.0493 5.39258 14.2606 5.39258H15.5263C16.1081 5.39258 16.6661 5.62225 17.0778 6.03094C17.4895 6.43962 17.7208 6.99354 17.7208 7.57111C17.7208 10.1887 17.7208 12.8063 17.7208 15.4239C17.7208 16.6264 16.7375 17.6025 15.5263 17.6025C14.8662 17.6025 14.2062 17.6447 13.5614 17.4572C12.5815 17.1735 12.0644 16.4406 12.0644 15.4223C12.0644 12.8046 12.0644 10.187 12.0644 7.56942L12.0661 7.57111ZM12.8367 7.57111C12.8367 6.79089 13.4746 6.1576 14.2606 6.1576H15.5263C15.904 6.1576 16.2663 6.30621 16.5334 6.57135C16.8005 6.83649 16.9502 7.1962 16.9502 7.57111C16.9502 10.1887 16.9502 12.8063 16.9502 15.4239C16.9502 16.2042 16.3122 16.8375 15.5263 16.8375C14.4511 16.8375 12.8367 17.0046 12.8367 15.4223C12.8367 12.8046 12.8367 10.187 12.8367 7.56942V7.57111ZM5.21703 7.57111C5.21703 6.36869 6.20033 5.39258 7.41158 5.39258H8.67727C9.25908 5.39258 9.81707 5.62225 10.2288 6.03094C10.6405 6.43962 10.8718 6.99354 10.8718 7.57111C10.8718 10.1887 10.8718 12.8063 10.8718 15.4239C10.8718 16.6264 9.88852 17.6025 8.67727 17.6025C8.01721 17.6025 7.35714 17.6447 6.71239 17.4572C5.7325 17.1735 5.21533 16.4406 5.21533 15.4223C5.21533 12.8046 5.21533 10.187 5.21533 7.56942L5.21703 7.57111ZM5.98768 7.57111C5.98768 6.79089 6.62563 6.1576 7.41158 6.1576H8.67727C9.05494 6.1576 9.41729 6.30621 9.68438 6.57135C9.95147 6.83649 10.1012 7.1962 10.1012 7.57111C10.1012 10.1887 10.1012 12.8063 10.1012 15.4239C10.1012 16.2042 9.46322 16.8375 8.67727 16.8375C7.60211 16.8375 5.98768 17.0046 5.98768 15.4223C5.98768 12.8046 5.98768 10.187 5.98768 7.56942V7.57111Z" fill="black"/>
<path fill-rule="evenodd" clip-rule="evenodd" d="M1.79106 14.853V8.1468C1.79106 6.96634 2.11769 5.86188 2.68419 4.91447C3.43612 3.65971 4.61334 2.68359 6.01853 2.1854C6.69051 1.94728 7.41352 1.81725 8.16715 1.81725H14.7661C15.5214 1.81725 16.2461 1.94728 16.9198 2.18709C19.3814 3.06357 21.1439 5.40253 21.1439 8.1468V14.853C21.1439 15.0742 21.132 15.292 21.1099 15.5065C21.1082 15.5285 21.1048 15.5521 21.1031 15.5741C21.0997 15.596 21.098 15.618 21.0946 15.6416C20.836 17.7256 19.5346 19.5528 17.6462 20.5019C17.602 20.5239 17.5578 20.5458 17.5118 20.5678C17.4659 20.5897 17.4183 20.6117 17.3723 20.632C16.5762 20.9849 15.6949 21.1825 14.7678 21.1825H8.16885C7.06307 21.1825 6.02364 20.9039 5.1169 20.4124C5.07437 20.3905 5.03354 20.3668 4.99271 20.3432C4.95188 20.3195 4.91276 20.2976 4.87363 20.2723C2.95638 19.1222 1.79276 17.0703 1.79276 14.853H1.79106ZM1 8.1468V14.853C1 16.969 1.93906 18.9584 3.57561 20.3178C3.60283 20.3415 3.63175 20.3634 3.65897 20.3871C4.17954 20.8076 4.75624 21.1504 5.37718 21.4105C6.26181 21.782 7.20087 21.9695 8.16885 21.9695H14.7678C15.7358 21.9695 16.6748 21.782 17.5578 21.4105C18.0392 21.2095 18.4917 20.9579 18.9136 20.6607C18.9442 20.6387 18.9749 20.6168 19.0055 20.5948C19.0361 20.5729 19.065 20.5509 19.0956 20.5289C20.659 19.3502 21.6747 17.5922 21.8941 15.6568C21.8958 15.6349 21.8992 15.6129 21.9009 15.5893C21.9026 15.5673 21.906 15.5437 21.9077 15.5217C21.9281 15.3005 21.9383 15.0776 21.9383 14.853V8.1468C21.9383 7.18757 21.7478 6.25367 21.3735 5.3772C21.2153 5.00735 21.0282 4.65271 20.8122 4.31664C20.5332 3.88431 20.2082 3.48238 19.8391 3.11592C19.1807 2.46236 18.4152 1.95066 17.5595 1.59095C17.2311 1.45247 16.896 1.34101 16.5541 1.25319C15.9739 1.10458 15.3768 1.03027 14.7678 1.03027H8.16885C8.07528 1.03027 7.98172 1.03196 7.88815 1.03534C7.37609 1.05561 6.87254 1.12822 6.38259 1.25319L6.37749 1.25488C6.18015 1.30554 5.98621 1.36465 5.79227 1.4322C5.66639 1.47611 5.5422 1.5234 5.41801 1.57406C5.4044 1.57913 5.39079 1.58588 5.37718 1.59095C4.52318 1.94897 3.75764 2.46236 3.09928 3.11592C2.72842 3.48407 2.40179 3.88769 2.12279 4.32002C1.9969 4.51592 1.87952 4.71857 1.77405 4.92629C1.73662 5.0006 1.69919 5.07491 1.66517 5.1509C1.63114 5.22521 1.59712 5.3012 1.5648 5.37551C1.47463 5.58829 1.39468 5.80446 1.32493 6.024C1.25858 6.2351 1.20244 6.44957 1.15651 6.66574C1.05274 7.14873 1.0017 7.64523 1.0017 8.1468H1Z" stroke="black" stroke-width="0.198683" stroke-miterlimit="22.9256"/>
<path fill-rule="evenodd" clip-rule="evenodd" d="M12.0661 7.57111C12.0661 6.36869 13.0493 5.39258 14.2606 5.39258H15.5263C16.1081 5.39258 16.6661 5.62225 17.0778 6.03094C17.4895 6.43962 17.7208 6.99354 17.7208 7.57111C17.7208 10.1887 17.7208 12.8063 17.7208 15.4239C17.7208 16.6264 16.7375 17.6025 15.5263 17.6025C14.8662 17.6025 14.2062 17.6447 13.5614 17.4572C12.5815 17.1735 12.0644 16.4406 12.0644 15.4223C12.0644 12.8046 12.0644 10.187 12.0644 7.56942L12.0661 7.57111ZM12.8367 7.57111C12.8367 6.79089 13.4746 6.1576 14.2606 6.1576H15.5263C15.904 6.1576 16.2663 6.30621 16.5334 6.57135C16.8005 6.83649 16.9502 7.1962 16.9502 7.57111C16.9502 10.1887 16.9502 12.8063 16.9502 15.4239C16.9502 16.2042 16.3122 16.8375 15.5263 16.8375C14.4511 16.8375 12.8367 17.0046 12.8367 15.4223C12.8367 12.8046 12.8367 10.187 12.8367 7.56942V7.57111ZM5.21703 7.57111C5.21703 6.36869 6.20033 5.39258 7.41158 5.39258H8.67727C9.25908 5.39258 9.81707 5.62225 10.2288 6.03094C10.6405 6.43962 10.8718 6.99354 10.8718 7.57111C10.8718 10.1887 10.8718 12.8063 10.8718 15.4239C10.8718 16.6264 9.88852 17.6025 8.67727 17.6025C8.01721 17.6025 7.35714 17.6447 6.71239 17.4572C5.7325 17.1735 5.21533 16.4406 5.21533 15.4223C5.21533 12.8046 5.21533 10.187 5.21533 7.56942L5.21703 7.57111ZM5.98768 7.57111C5.98768 6.79089 6.62563 6.1576 7.41158 6.1576H8.67727C9.05494 6.1576 9.41729 6.30621 9.68438 6.57135C9.95147 6.83649 10.1012 7.1962 10.1012 7.57111C10.1012 10.1887 10.1012 12.8063 10.1012 15.4239C10.1012 16.2042 9.46322 16.8375 8.67727 16.8375C7.60211 16.8375 5.98768 17.0046 5.98768 15.4223C5.98768 12.8046 5.98768 10.187 5.98768 7.56942V7.57111Z" stroke="black" stroke-width="0.198683" stroke-miterlimit="22.9256"/>
</svg>
