<svg width="24" height="29" viewBox="0 0 24 29" fill="none" xmlns="http://www.w3.org/2000/svg">
<path d="M14.0123 0.000244141H3.20145C1.43739 0.000244141 0 1.41143 0 3.15288V19.5938C0 21.331 1.43739 22.7464 3.20145 22.7464H6.78621V25.8476C6.78621 27.5848 8.22359 29.0002 9.98766 29.0002H20.7985C22.5626 29.0002 24 27.5848 24 25.8476V12.4693C24 12.0746 23.8388 11.6972 23.5557 11.4184L22.0269 9.91283L19.3394 7.26633L19.3263 7.25346L18.7601 6.69585C18.477 6.41705 18.0936 6.25834 17.6929 6.25834H17.2181V3.15717C17.2181 1.42 15.7808 0.00453345 14.0167 0.00453345L14.0123 0.000244141ZM5.31833 3.07139H12.122C12.5488 3.07139 12.8973 3.41453 12.8973 3.83488C12.8973 4.25524 12.5488 4.59838 12.122 4.59838H5.31833C4.89147 4.59838 4.54301 4.25524 4.54301 3.83488C4.54301 3.41453 4.89147 3.07139 5.31833 3.07139ZM11.5165 8.86624H14.5742C15.0011 8.86624 15.3495 9.20938 15.3495 9.62974C15.3495 10.0501 15.0011 10.3932 14.5742 10.3932H11.5165C11.0897 10.3932 10.7412 10.0501 10.7412 9.62974C10.7412 9.20938 11.0897 8.86624 11.5165 8.86624ZM11.547 14.0949H19.2653C19.6922 14.0949 20.0407 14.438 20.0407 14.8584C20.0407 15.2788 19.6922 15.6219 19.2653 15.6219H11.547C11.1201 15.6219 10.7717 15.2788 10.7717 14.8584C10.7717 14.438 11.1201 14.0949 11.547 14.0949ZM11.547 16.9945H19.2653C19.6922 16.9945 20.0407 17.3376 20.0407 17.758C20.0407 18.1783 19.6922 18.5215 19.2653 18.5215H11.547C11.1201 18.5215 10.7717 18.1783 10.7717 17.758C10.7717 17.3376 11.1201 16.9945 11.547 16.9945ZM11.547 19.7954H19.2653C19.6922 19.7954 20.0407 20.1385 20.0407 20.5589C20.0407 20.9792 19.6922 21.3224 19.2653 21.3224H11.547C11.1201 21.3224 10.7717 20.9792 10.7717 20.5589C10.7717 20.1385 11.1201 19.7954 11.547 19.7954ZM11.547 22.5963H19.2653C19.6922 22.5963 20.0407 22.9395 20.0407 23.3598C20.0407 23.7802 19.6922 24.1233 19.2653 24.1233H11.547C11.1201 24.1233 10.7717 23.7802 10.7717 23.3598C10.7717 22.9395 11.1201 22.5963 11.547 22.5963ZM6.78621 21.258H3.20145C2.26933 21.258 1.51143 20.5117 1.51143 19.5938V3.15288C1.51143 2.23497 2.26933 1.48863 3.20145 1.48863H14.0123C14.9445 1.48863 15.7024 2.23497 15.7024 3.15288V6.25405H9.98766C8.22359 6.25405 6.78621 7.66952 6.78621 9.4024V21.258ZM16.874 7.73815C16.8 7.91401 16.7564 8.10703 16.7564 8.30863V10.1402C16.7564 11.8688 18.1851 13.2756 19.9405 13.2756H21.796C22.0399 13.2756 22.2751 13.2199 22.4799 13.1127V25.8433C22.4799 26.7612 21.7263 27.5076 20.7898 27.5076H9.97895C9.04682 27.5076 8.28893 26.7612 8.28893 25.8433V9.4024C8.28893 8.48449 9.04682 7.73815 9.97895 7.73815H16.8653H16.874ZM19.8882 9.90425L21.8004 11.7873H19.9448C19.0214 11.7873 18.2679 11.0495 18.2679 10.1359V8.30434L19.8882 9.89996V9.90425Z" fill="#7D7D7D"/>
</svg>
