<svg width="29" height="29" viewBox="0 0 29 29" fill="none" xmlns="http://www.w3.org/2000/svg">
<path fill-rule="evenodd" clip-rule="evenodd" d="M18.5506 20.9166C21.5568 19.0576 22.9422 15.2993 21.6564 11.8645C20.1965 7.94517 15.8069 5.94396 11.8616 7.40588C7.90959 8.84841 5.89847 13.1982 7.35004 17.1233C7.88977 18.5726 8.82711 19.7573 9.99265 20.6038V24.5154L9.56764 24.3667L7.50713 26.18C6.58494 25.6367 5.74582 24.9905 4.99195 24.2697L6.21171 21.8207L4.66408 19.5959L1.92683 19.8562C1.50996 18.8931 1.20812 17.8768 1.02186 16.8365L3.45868 15.5692L3.52854 12.8671L1.16136 11.4799C1.27395 10.9964 1.41087 10.5149 1.57656 10.0338C1.76145 9.50789 1.97847 9.00359 2.21699 8.52019L4.93663 8.91396L6.59393 6.76988L5.50478 4.26825C6.30551 3.57193 7.18234 2.9773 8.11277 2.48912L10.0778 4.39551L12.6924 3.63068L13.2926 0.966417C14.3347 0.872552 15.3965 0.899246 16.4595 1.05055L16.9164 3.74497L19.4826 4.65454L21.5478 2.84915C22.4415 3.37864 23.2577 4.00435 23.9886 4.70162L22.7797 7.15406L24.3338 9.37435L27.0693 9.10513C27.4866 10.0662 27.7946 11.0751 27.9794 12.1142L25.5521 13.3903L25.491 16.0926L27.8601 17.4723C27.7492 17.9713 27.6098 18.4711 27.4352 18.964C27.2588 19.4722 27.0492 19.9639 26.8187 20.4404L24.0957 20.0499L22.4445 22.2047L23.547 24.7031C22.7503 25.3999 21.8745 25.9964 20.9419 26.4897L18.9719 24.5888L18.5506 24.714V20.9166L18.5506 20.9166ZM10.7747 21.1022C12.6576 22.1477 14.9724 22.3962 17.1506 21.5965C17.3623 21.5189 17.5681 21.4325 17.7685 21.3388V24.9465L16.3608 25.3649L15.7685 28.0305C14.7262 28.1265 13.6642 28.1052 12.6001 27.9585L12.1376 25.2656L10.7747 24.7889V21.1022V21.1022ZM17.1506 20.7134C15.0061 21.5008 12.7293 21.2721 10.8625 20.2672L13.0661 13.8046C13.8735 14.0792 14.6875 14.0794 15.4951 13.8049L17.7609 20.4558L17.7512 20.4639C17.5562 20.5545 17.3562 20.6381 17.1506 20.7134ZM15.2531 13.0944C14.6014 13.3172 13.96 13.3171 13.3084 13.0939L13.9888 11.0984C14.0545 10.9067 14.2292 10.8908 14.2811 10.8908C14.333 10.8908 14.5074 10.9058 14.573 11.0982L15.2531 13.0944L15.2531 13.0944ZM17.1304 26.0743L17.6451 25.9213L18.7221 25.6012L20.7845 27.5913L21.3677 27.2829C22.3638 26.756 23.2985 26.1182 24.1456 25.3774L24.6415 24.9435L23.4875 22.3281L24.4937 21.0151L27.3471 21.4242L27.6348 20.8295C27.8821 20.3185 28.1025 19.7948 28.2903 19.2594C28.4732 18.7378 28.6244 18.2052 28.7442 17.6659L28.8861 17.0278L26.4082 15.5847L26.4454 13.9376L28.9856 12.6022L28.871 11.9579C28.6749 10.8551 28.3473 9.77777 27.9009 8.74942L27.6388 8.14593L24.7738 8.4279L23.8268 7.07483L25.0922 4.50785L24.6161 4.05364C23.8262 3.30012 22.9527 2.63484 22.0118 2.07743L21.4449 1.74151L19.2846 3.63004L17.7212 3.07588L17.2426 0.254098L16.588 0.160927C15.47 0.00178995 14.3358 -0.0299606 13.2108 0.0713617L12.5531 0.130601L11.9251 2.91819L10.3311 3.3845L8.27343 1.38828L7.68964 1.69457C6.69215 2.21792 5.75686 2.8542 4.90813 3.59225L4.41196 4.02373L5.55178 6.64172L4.54165 7.94853L1.69429 7.53626L1.40385 8.12488C1.14486 8.64978 0.913142 9.18769 0.720791 9.74025C0.545304 10.2443 0.400176 10.7579 0.279196 11.2775L0.129812 11.919L2.60975 13.3723L2.5672 15.0182L0.0144043 16.3458L0.130403 16.9937C0.328032 18.0976 0.648947 19.1805 1.09492 20.211L1.35565 20.8134L4.22114 20.5409L5.16401 21.8963L3.88673 24.4608L4.36379 24.9169C5.17662 25.6941 6.07419 26.3809 7.04497 26.9528L7.61329 27.2877L9.76946 25.3902L11.3345 25.9376L11.8189 28.7582L12.4755 28.8487C13.594 29.0029 14.7277 29.0289 15.8521 28.9254L16.5104 28.8648L17.1304 26.0743H17.1304ZM18.5125 19.8564L15.4308 10.8103C15.2617 10.314 14.8051 9.9922 14.2813 9.99206C13.7579 9.99193 13.3002 10.3144 13.1312 10.8102L10.142 19.5768C9.2659 18.8379 8.59955 17.8919 8.19984 16.8131C6.919 13.3561 8.69678 9.52824 12.1762 8.2486C15.6495 6.97121 19.5195 8.7274 20.8074 12.1768C21.8488 14.9662 20.8886 18.1105 18.5125 19.8564H18.5125Z" fill="#7D7D7D" stroke="#7D7D7D" stroke-width="0.200017" stroke-miterlimit="22.9256"/>
</svg>
