<svg width="33" height="34" viewBox="0 0 33 34" fill="none" xmlns="http://www.w3.org/2000/svg">
<path d="M10.9647 19.5388H10.2798L5.21291 24.9592V19.5388C4.16832 19.5388 3.16651 19.1234 2.42787 18.3839C1.68923 17.6444 1.27427 16.6415 1.27427 15.5957V5.20362C1.27427 4.15786 1.68923 3.15493 2.42787 2.41546C3.16651 1.676 4.16832 1.26057 5.21291 1.26057H15.5959C16.533 1.26107 17.4391 1.59624 18.1514 2.2058C18.8637 2.81537 19.3354 3.65933 19.4817 4.58594H20.7534C20.6015 3.32286 19.9931 2.15912 19.043 1.31429C18.0928 0.469458 16.8667 0.00195951 15.5959 0H5.19781C3.81967 0.00133496 2.49836 0.55 1.52388 1.52558C0.549389 2.50116 0.00133346 3.82394 0 5.20362V15.5957C0.00330292 16.7553 0.392631 17.8806 1.10641 18.7938C1.82019 19.707 2.81769 20.356 3.94116 20.638V28.1459L10.8136 20.7943H10.9647V19.5388Z" fill="#4382C8"/>
<path d="M7.87225 12.5855H6.27564L5.99863 13.8234H4.75458L6.42926 6.99866H7.7136L9.38828 13.8234H8.14171L7.87225 12.5855ZM7.62042 11.4434L7.34844 10.1829C7.25023 9.71393 7.14446 8.96263 7.07647 8.5063H7.04625C6.98833 8.96263 6.88004 9.71393 6.79442 10.1829L6.51992 11.4434H7.62042Z" fill="#4382C8"/>
<path d="M11.6497 8.53908C10.5593 8.53908 9.88691 9.17188 9.83906 10.2156H10.9874C10.9919 10.1359 11.0122 10.0578 11.0472 9.98603C11.0822 9.91424 11.1311 9.85017 11.1912 9.79757C11.2512 9.74497 11.3211 9.7049 11.3968 9.67971C11.4726 9.65453 11.5525 9.64473 11.6321 9.6509C11.7184 9.64948 11.8041 9.66578 11.8839 9.69879C11.9736 9.32592 12.1019 8.96344 12.2667 8.61723C12.0655 8.5636 11.858 8.53731 11.6497 8.53908Z" fill="#4382C8"/>
<path d="M11.5137 12.9561C11.4295 12.9674 11.3439 12.9599 11.2629 12.9342C11.1819 12.9085 11.1076 12.8652 11.0453 12.8073C10.983 12.7495 10.9342 12.6787 10.9024 12.5998C10.8706 12.5209 10.8567 12.4359 10.8615 12.351C10.8615 11.9325 11.1435 11.7081 11.6321 11.7081H11.7202V11.0501C11.7202 10.9442 11.7202 10.8383 11.7202 10.7325H11.6019C10.4712 10.7325 9.68292 11.2594 9.68292 12.351C9.68292 13.2965 10.2873 13.9595 11.2317 13.9595C11.3943 13.9612 11.556 13.9357 11.7102 13.8839V12.9284C11.646 12.9451 11.5801 12.9544 11.5137 12.9561Z" fill="#4382C8"/>
<path d="M22.6119 19.864C24.1669 19.864 25.4274 18.6021 25.4274 17.0454C25.4274 15.4887 24.1669 14.2268 22.6119 14.2268C21.057 14.2268 19.7965 15.4887 19.7965 17.0454C19.7965 18.6021 21.057 19.864 22.6119 19.864Z" fill="#4382C8"/>
<path d="M27.8022 5.8465H17.4217C16.0436 5.84784 14.7223 6.39651 13.7478 7.37209C12.7733 8.34767 12.2252 9.67045 12.2239 11.0501V21.4448C12.2252 22.8244 12.7733 24.1472 13.7478 25.1228C14.7223 26.0984 16.0436 26.647 17.4217 26.6484H22.1864L29.0613 34V26.4946C30.1844 26.2121 31.1813 25.5629 31.8946 24.6498C32.6079 23.7366 32.9968 22.6115 33 21.4523V11.0501C32.9987 9.67045 32.4506 8.34767 31.4761 7.37209C30.5016 6.39651 29.1803 5.84784 27.8022 5.8465ZM26.606 13.0191H24.7727C25.4492 13.4814 25.96 14.1484 26.2302 14.9225C26.5004 15.6965 26.5159 16.5369 26.2743 17.3204C26.0326 18.1039 25.5467 18.7893 24.8876 19.2761C24.2285 19.763 23.431 20.0256 22.6119 20.0256C21.7929 20.0256 20.9954 19.763 20.3363 19.2761C19.6772 18.7893 19.1913 18.1039 18.9496 17.3204C18.708 16.5369 18.7235 15.6965 18.9937 14.9225C19.2639 14.1484 19.7747 13.4814 20.4512 13.0191H18.6204V12.351H26.606V13.0191Z" fill="#4382C8"/>
</svg>
