<svg width="20" height="22" viewBox="0 0 20 22" fill="none" xmlns="http://www.w3.org/2000/svg">
<path fill-rule="evenodd" clip-rule="evenodd" d="M16.9499 16.3432H3.07055C2.74662 16.3432 2.47543 16.1049 2.42808 15.7904C2.40871 15.7293 2.39902 15.666 2.39902 15.6016V3.09069C2.39902 2.73222 2.69066 2.44137 3.0501 2.44137H16.9488C17.3083 2.44137 17.5999 2.73222 17.5999 3.09069V15.6939C17.5999 16.0523 17.3083 16.3432 16.9488 16.3432H16.9499ZM18.5685 1H1.43154C1.19479 1 1 1.19318 1 1.43037V20.5696C1 20.8057 1.19371 21 1.43154 21H18.5685C18.8052 21 19 20.8068 19 20.5696V1.43037C19 1.19426 18.8063 1 18.5685 1ZM3.72163 15.0445H16.2977V11.8935L12.4709 8.19077L9.04006 12.6812C8.81406 12.9775 8.38359 13.0236 8.10056 12.7821L5.66304 10.7161L3.72163 13.1105V15.0456V15.0445ZM8.42126 11.3483L11.8811 6.8213C12.1168 6.51328 12.5742 6.47894 12.8529 6.74832L16.2988 10.0829V3.74001H3.70118V11.0692L5.07115 9.381C5.30037 9.09766 5.72115 9.05903 5.9988 9.29514L8.42126 11.3483ZM8.92814 5.83499C9.78261 6.69037 9.17243 8.15428 7.96281 8.15428C7.20734 8.15428 6.59823 7.54467 6.59931 6.79233C6.60146 5.58277 8.07689 4.98283 8.92814 5.83499ZM7.47746 6.7934C7.47638 7.43091 8.44709 7.43306 8.44817 6.79447C8.44817 6.52616 8.23185 6.30936 7.96281 6.30936C7.69592 6.30936 7.47746 6.52616 7.47746 6.7934Z" fill="#2B2B2A" stroke="#2B2B2A" stroke-width="0.199317" stroke-miterlimit="22.9256"/>
</svg>
