<svg width="18" height="20" viewBox="0 0 18 20" fill="none" xmlns="http://www.w3.org/2000/svg">
<path fill-rule="evenodd" clip-rule="evenodd" d="M2.46483 14.214C2.44852 14.1604 2.43935 14.1047 2.43935 14.0491V3.09659C2.43935 2.78219 2.69113 2.52861 3.00204 2.52861H15.001C15.3109 2.52861 15.5637 2.78322 15.5637 3.09659V14.1295C15.5637 14.4428 15.3119 14.6985 15.001 14.6985H3.01835C2.73904 14.6985 2.50459 14.4903 2.46381 14.214H2.46483ZM14.4393 10.802L11.1356 7.56005L8.17329 11.4906C8.07951 11.6143 7.93986 11.6947 7.78695 11.7112C7.63405 11.7277 7.4791 11.6802 7.36188 11.5792L5.2579 9.77013L3.58104 11.8668V13.5605H14.4393V10.802ZM3.56371 3.66457V10.0804L4.74618 8.60221C4.842 8.48263 4.98063 8.40738 5.1315 8.39398C5.28236 8.38058 5.43221 8.428 5.5474 8.52696L7.63914 10.3247L10.6259 6.3612C10.7238 6.23132 10.8716 6.15091 11.0316 6.13854C11.1916 6.1272 11.3496 6.1839 11.4648 6.29729L14.4393 9.21658V3.66457H3.56371ZM7.24261 7.52809C7.24261 7.52809 7.24159 7.52809 7.24057 7.52809C6.92661 7.52809 6.63099 7.40336 6.40877 7.17864C6.18654 6.95392 6.06422 6.65395 6.06524 6.33543C6.06626 5.67983 6.59429 5.14689 7.24363 5.14689C7.55759 5.14689 7.85321 5.27162 8.07543 5.49737C8.29664 5.72209 8.41896 6.02206 8.41896 6.33955C8.41896 6.65705 8.29562 6.95598 8.07339 7.1807C7.85117 7.40439 7.55556 7.52809 7.24261 7.52809ZM6.82365 6.33749C6.82365 6.45088 6.86748 6.55706 6.94597 6.63746C7.02548 6.71786 7.13048 6.76116 7.24261 6.76116C7.35474 6.76116 7.45973 6.71786 7.53925 6.63746C7.61876 6.55706 7.66157 6.45191 7.66157 6.33852C7.66157 6.22513 7.61876 6.11896 7.53925 6.03855C7.45973 5.95815 7.35576 5.91382 7.24363 5.91382H7.24261C7.01223 5.91382 6.82365 6.10349 6.82263 6.33749H6.82365ZM0.616718 0L17.3863 0.0350479C17.7258 0.0360788 18 0.314401 18 0.657664V19.3774C18 19.5423 17.9348 19.7011 17.8196 19.8175C17.7034 19.9351 17.5474 20 17.3833 20L0.61366 19.9639C0.27421 19.9629 0 19.6846 0 19.3423V0.622616C0 0.457685 0.0652395 0.298938 0.180428 0.182455C0.296636 0.0659726 0.452599 0.00103082 0.615698 0.00103082L0.616718 0ZM1.60449 1.26585H16.3996C16.6045 1.26585 16.7717 1.4349 16.7717 1.6421V18.3971C16.7717 18.6043 16.6045 18.7733 16.3996 18.7733H1.60449C1.39959 18.7733 1.23242 18.6043 1.23242 18.3971V1.6421C1.23242 1.4349 1.39959 1.26585 1.60449 1.26585Z" fill="white"/>
</svg>
