<svg width="22" height="23" viewBox="0 0 22 23" fill="none" xmlns="http://www.w3.org/2000/svg">
<path fill-rule="evenodd" clip-rule="evenodd" d="M16.7462 1.12557V10.3851C17.099 10.4154 17.4443 10.4716 17.7798 10.5529V1.12557C17.7798 0.506989 17.2679 0 16.6416 0H3.31442L0 3.43511V21.8744C0 22.493 0.511923 23 1.13819 23H12.5754C12.0963 22.7125 11.6554 22.3689 11.2623 21.9779H1.13819C1.08289 21.9779 1.03356 21.9291 1.03356 21.8744V3.84454L3.75684 1.02211H16.6416C16.6969 1.02211 16.7462 1.07088 16.7462 1.12557ZM9.2632 16.8311H4.37564C4.13574 16.8311 3.93994 17.0558 3.93994 17.3307C3.93994 17.6057 4.13574 17.8303 4.37564 17.8303H9.28636C9.26544 17.6138 9.25423 17.3943 9.25423 17.1726C9.25423 17.058 9.25722 16.945 9.2632 16.8319V16.8311ZM4.37564 13.9437H10.0763C10.2684 13.5911 10.4918 13.2571 10.7414 12.9445H4.37564C4.13574 12.9445 3.93994 13.1691 3.93994 13.4441C3.93994 13.719 4.13574 13.9437 4.37564 13.9437ZM4.37564 10.057H13.4034C13.6433 10.057 13.8391 9.83233 13.8391 9.55741C13.8391 9.28248 13.6433 9.05781 13.4034 9.05781H4.37564C4.13574 9.05781 3.93994 9.28248 3.93994 9.55741C3.93994 9.83233 4.13574 10.057 4.37564 10.057ZM4.37564 6.17033H13.4034C13.6433 6.17033 13.8391 5.94566 13.8391 5.67074C13.8391 5.39581 13.6433 5.17114 13.4034 5.17114H4.37564C4.13574 5.17114 3.93994 5.39581 3.93994 5.67074C3.93994 5.94566 4.13574 6.17033 4.37564 6.17033ZM16.1439 11.3814C12.9094 11.3814 10.2878 13.974 10.2878 17.1726C10.2878 20.3712 12.9094 22.9638 16.1439 22.9638C19.3784 22.9638 22 20.3712 22 17.1726C22 13.974 19.3784 11.3814 16.1439 11.3814ZM16.1439 12.4035C18.8074 12.4035 20.9664 14.5386 20.9664 17.1726C20.9664 19.8066 18.8074 21.9417 16.1439 21.9417C13.4804 21.9417 11.3214 19.8066 11.3214 17.1726C11.3214 14.5386 13.4804 12.4035 16.1439 12.4035ZM15.5064 17.6589L17.5997 15.5681C17.803 15.3649 18.137 15.3634 18.3426 15.5644C18.5481 15.7654 18.5496 16.0958 18.3463 16.299L15.8651 18.7771C15.7075 18.9345 15.4646 18.9751 15.2628 18.8791L15.2359 18.8665L13.9408 17.5724C13.7375 17.3692 13.739 17.0388 13.9445 16.8378C14.15 16.6368 14.4841 16.6383 14.6873 16.8415L15.5057 17.6589H15.5064Z" fill="white"/>
</svg>
