<svg width="22" height="23" viewBox="0 0 22 23" fill="none" xmlns="http://www.w3.org/2000/svg">
<path fill-rule="evenodd" clip-rule="evenodd" d="M3.68866 4.55295H13.6527C13.9174 4.55295 14.1335 4.79954 14.1335 5.10129C14.1335 5.40303 13.9174 5.64962 13.6527 5.64962H3.68866C3.42389 5.64962 3.20778 5.40303 3.20778 5.10129C3.20778 4.79954 3.42389 4.55295 3.68866 4.55295ZM3.68866 8.81876H13.6527C13.9174 8.81876 14.1335 9.06535 14.1335 9.36709C14.1335 9.66884 13.9174 9.91543 13.6527 9.91543H3.68866C3.42389 9.91543 3.20778 9.66884 3.20778 9.36709C3.20778 9.06535 3.42389 8.81876 3.68866 8.81876ZM10.2139 17.7243C10.2139 14.2137 13.1075 11.3682 16.6773 11.3682C16.9017 11.3682 17.1236 11.3795 17.3422 11.4014V10.2756V9.22352V0.11356C17.3422 0.0535355 17.2877 0 17.2267 0H3.0057L0 3.09776V22.8864C0 22.9465 0.0544386 23 0.115476 23H10.0886H11.2895H13.0712C11.3473 21.8587 10.2139 19.9217 10.2139 17.7243ZM3.68866 13.0846H10.7146C10.4383 13.4269 10.1925 13.7935 9.9805 14.1812H3.68866C3.42389 14.1812 3.20778 13.9346 3.20778 13.6329C3.20778 13.3312 3.42389 13.0846 3.68866 13.0846ZM3.68866 17.3504H9.08308C9.07731 17.4745 9.07318 17.5994 9.07318 17.7243C9.07318 17.9677 9.08556 18.2086 9.10865 18.4462H3.68784C3.42306 18.4462 3.20696 18.1996 3.20696 17.8979C3.20696 17.5962 3.42306 17.3496 3.68784 17.3496L3.68866 17.3504ZM16.6773 12.49C13.7376 12.49 11.3547 14.8334 11.3547 17.7243C11.3547 20.6152 13.7376 22.9586 16.6773 22.9586C19.617 22.9586 22 20.6152 22 17.7243C22 14.8334 19.617 12.49 16.6773 12.49ZM16.3705 19.4853C16.1965 19.6581 15.9284 19.7027 15.7057 19.5972L15.676 19.5835L14.2466 18.1631C14.0222 17.9401 14.0238 17.5775 14.2507 17.3569C14.4775 17.1362 14.8462 17.1379 15.0706 17.3609L15.9738 18.258L18.2841 15.9633C18.5085 15.7403 18.8772 15.7386 19.104 15.9593C19.3308 16.1799 19.3325 16.5425 19.1081 16.7655L16.3697 19.4853H16.3705Z" fill="#2B2B2A"/>
</svg>
