<svg width="15" height="23" viewBox="0 0 15 23" fill="none" xmlns="http://www.w3.org/2000/svg">
<path fill-rule="evenodd" clip-rule="evenodd" d="M7.29848 0H7.1864H5.81105C4.4281 0 3.2978 1.1322 3.2978 2.51325V3.22182H4.79854V2.55504V2.51325C4.79854 2.12192 5.02459 1.77808 5.35133 1.61091C5.49001 1.54062 5.64578 1.49883 5.81295 1.49883H7.1883H7.30038H8.40219C8.67384 1.49883 8.92269 1.60711 9.10506 1.78378C9.19814 1.87306 9.27223 1.97754 9.32732 2.09532C9.38621 2.2226 9.4185 2.36507 9.4185 2.51325V3.22182H10.9192V2.51325C10.9192 1.1303 9.78703 0 8.40598 0H7.30418H7.29848ZM0 20.4859C0 21.6732 0.965028 22.6382 2.15421 22.6382H12.0571C13.2463 22.6382 14.2113 21.6732 14.2113 20.4859V4.4509H0.00190151V20.4859H0ZM7.89877 7.89307V19.2036C7.89877 19.6501 7.53404 20.0148 7.08762 20.0148C6.6412 20.0148 6.27647 19.6501 6.27647 19.2036V7.89307C6.27647 7.44666 6.6412 7.08192 7.08762 7.08192C7.53404 7.08192 7.89877 7.44666 7.89877 7.89307ZM3.94179 7.89307V19.2036C3.94179 19.6501 3.57706 20.0148 3.13064 20.0148C2.68422 20.0148 2.31948 19.6501 2.31948 19.2036V7.89307C2.31948 7.44666 2.68422 7.08192 3.13064 7.08192C3.57706 7.08192 3.94179 7.44666 3.94179 7.89307ZM11.0104 20.0148C10.564 20.0148 10.1993 19.6501 10.1993 19.2036V7.89307C10.1993 7.44666 10.564 7.08192 11.0104 7.08192C11.4568 7.08192 11.8216 7.44666 11.8216 7.89307V19.2036C11.8216 19.6501 11.4568 20.0148 11.0104 20.0148Z" fill="black"/>
</svg>
