<svg width="20" height="20" viewBox="0 0 20 20" fill="none" xmlns="http://www.w3.org/2000/svg">
<path fill-rule="evenodd" clip-rule="evenodd" d="M0 19.5313H2.78479C2.78479 16.7466 2.78479 13.9618 2.78479 11.177C2.78479 10.3648 2.74343 9.8698 3.48036 9.77455C3.86387 9.72442 12.8123 9.76578 13.924 9.76578C16.4506 9.76578 16.7463 9.4487 16.7463 11.1394C16.7463 13.9367 16.7463 16.734 16.7463 19.5313H19.5311V4.47944C19.5236 4.42931 19.4998 4.408 19.4284 4.33782L18.7967 3.71118C18.4195 3.33394 15.201 0.0503428 15.0582 0.0102378L12.5504 0.00146484L12.5516 3.36026C12.5529 3.73123 12.4188 3.99442 12.1556 4.10847C11.8673 4.23379 8.31928 4.15985 7.66757 4.15985C7.03091 4.15985 3.48287 4.23379 3.2084 4.11724C2.63064 3.87285 2.78479 2.94417 2.78479 2.28996C2.78479 1.52671 2.78479 0.764713 2.78479 0.00146484H0V19.5326V19.5313Z" fill="black"/>
<path fill-rule="evenodd" clip-rule="evenodd" d="M4.1582 11.2532V19.5311H15.3738V11.2532C15.3738 11.1655 15.3475 11.1392 15.2598 11.1392H4.2735C4.18578 11.1392 4.15946 11.1655 4.15946 11.2532H4.1582Z" fill="black"/>
<path fill-rule="evenodd" clip-rule="evenodd" d="M4.1582 2.78479H11.1766V0H4.1582V2.78479Z" fill="black"/>
</svg>
