<svg width="18" height="14" viewBox="0 0 18 14" fill="none" xmlns="http://www.w3.org/2000/svg">
<path fill-rule="evenodd" clip-rule="evenodd" d="M6.56311 8.93547L14.5662 0.611585C15.3443 -0.198525 16.6197 -0.204312 17.4062 0.597118C18.1927 1.39855 18.1984 2.71209 17.4202 3.5222L7.93676 13.3882C7.3328 14.016 6.4058 14.178 5.6333 13.7932L5.53218 13.7441L0.579749 8.59406C-0.198369 7.78395 -0.192751 6.47042 0.593795 5.66899C1.38034 4.86756 2.65567 4.87334 3.43379 5.68345L6.56311 8.93836V8.93547ZM6.29063 12.6128C6.53783 12.6967 6.81874 12.6301 7.00414 12.4363L16.4876 2.57032C16.7573 2.28967 16.7545 1.82964 16.482 1.55478C16.2095 1.27703 15.7629 1.27993 15.496 1.56057L6.56311 10.8537L2.50398 6.62955C2.2343 6.3489 1.78766 6.34601 1.51799 6.62376C1.2455 6.90151 1.24269 7.36154 1.51237 7.63929L6.29344 12.6128H6.29063Z" fill="white"/>
</svg>
