<?xml version="1.0" encoding="UTF-8"?>
<!DOCTYPE svg PUBLIC "-//W3C//DTD SVG 1.1//EN" "http://www.w3.org/Graphics/SVG/1.1/DTD/svg11.dtd">
<!-- Creator: CorelDRAW -->
<svg xmlns="http://www.w3.org/2000/svg" xml:space="preserve" width="18.7215mm" height="24.9653mm" version="1.1" style="shape-rendering:geometricPrecision; text-rendering:geometricPrecision; image-rendering:optimizeQuality; fill-rule:evenodd; clip-rule:evenodd"
viewBox="0 0 35.76 47.69"
 xmlns:xlink="http://www.w3.org/1999/xlink"
 xmlns:xodm="http://www.corel.com/coreldraw/odm/2003">
 <defs>
  <style type="text/css">
   <![CDATA[
    .fil0 {fill:#2B2B2A}
   ]]>
  </style>
 </defs>
 <g id="Слой_x0020_1">
  <metadata id="CorelCorpID_0Corel-Layer"/>
  <path class="fil0" d="M3.44 40.93l0 -34.17c0,-1.83 1.49,-3.32 3.32,-3.32l22.25 0c1.83,0 3.32,1.49 3.32,3.32l0 34.17c0,1.83 -1.49,3.32 -3.32,3.32l-22.25 0c-1.83,0 -3.32,-1.49 -3.32,-3.32zm25.57 -40.93l-22.25 0c-3.72,0 -6.76,3.04 -6.76,6.76l0 34.17c0,3.72 3.04,6.76 6.76,6.76l22.25 0c3.72,0 6.76,-3.04 6.76,-6.76l0 -34.17c0,-3.72 -3.04,-6.76 -6.76,-6.76zm-19.01 10.23l10.64 0c0.93,0 1.7,-0.76 1.7,-1.7 0,-0.93 -0.76,-1.7 -1.7,-1.7l-10.64 0c-0.93,0 -1.7,0.76 -1.7,1.7 0,0.93 0.76,1.7 1.7,1.7zm16.39 6.45l-17.01 0c-0.93,0 -1.7,0.76 -1.7,1.7 0,0.93 0.76,1.7 1.7,1.7l17.01 0c0.93,0 1.7,-0.76 1.7,-1.7 0,-0.93 -0.76,-1.7 -1.7,-1.7zm0 6.86l-17.01 0c-0.93,0 -1.7,0.76 -1.7,1.7 0,0.93 0.76,1.7 1.7,1.7l17.01 0c0.93,0 1.7,-0.76 1.7,-1.7 0,-0.93 -0.76,-1.7 -1.7,-1.7zm0 6.79l-17.01 0c-0.93,0 -1.7,0.76 -1.7,1.7 0,0.93 0.76,1.7 1.7,1.7l17.01 0c0.93,0 1.7,-0.76 1.7,-1.7 0,-0.93 -0.76,-1.7 -1.7,-1.7zm0 6.79l-17.01 0c-0.93,0 -1.7,0.76 -1.7,1.7 0,0.93 0.76,1.7 1.7,1.7l17.01 0c0.93,0 1.7,-0.76 1.7,-1.7 0,-0.93 -0.76,-1.7 -1.7,-1.7z"/>
 </g>
</svg>
