<?xml version="1.0" encoding="UTF-8"?>
<!DOCTYPE svg PUBLIC "-//W3C//DTD SVG 1.1//EN" "http://www.w3.org/Graphics/SVG/1.1/DTD/svg11.dtd">
<!-- Creator: CorelDRAW -->
<svg xmlns="http://www.w3.org/2000/svg" xml:space="preserve" width="25.7262mm" height="32.0699mm" version="1.1" style="shape-rendering:geometricPrecision; text-rendering:geometricPrecision; image-rendering:optimizeQuality; fill-rule:evenodd; clip-rule:evenodd"
viewBox="0 0 71.67 89.34"
 xmlns:xlink="http://www.w3.org/1999/xlink"
 xmlns:xodm="http://www.corel.com/coreldraw/odm/2003">
 <defs>
  <style type="text/css">
   <![CDATA[
    .fil0 {fill:#2B2B2A}
   ]]>
  </style>
 </defs>
 <g id="Слой_x0020_1">
  <metadata id="CorelCorpID_0Corel-Layer"/>
  <path class="fil0" d="M24.53 79.49l0 -49.84c0,-2.66 2.18,-4.84 4.84,-4.84l32.45 0c2.66,0 4.84,2.18 4.84,4.84l0 49.84c0,2.66 -2.18,4.84 -4.84,4.84l-32.45 0c-2.66,0 -4.84,-2.18 -4.84,-4.84zm37.29 -59.69l-32.45 0c-5.42,0 -9.85,4.43 -9.85,9.85l0 49.84c0,5.42 4.43,9.85 9.85,9.85l32.45 0c5.42,0 9.85,-4.43 9.85,-9.85l0 -49.84c0,-5.42 -4.43,-9.85 -9.85,-9.85zm-27.72 14.92l15.52 0c1.36,0 2.48,-1.11 2.48,-2.48 0,-1.36 -1.11,-2.48 -2.48,-2.48l-15.52 0c-1.36,0 -2.48,1.11 -2.48,2.48 0,1.36 1.11,2.48 2.48,2.48zm23.9 9.41l-24.81 0c-1.36,0 -2.48,1.11 -2.48,2.48 0,1.36 1.11,2.48 2.48,2.48l24.81 0c1.36,0 2.48,-1.11 2.48,-2.48 0,-1.36 -1.11,-2.48 -2.48,-2.48zm0 10.01l-24.81 0c-1.36,0 -2.48,1.11 -2.48,2.48 0,1.36 1.11,2.48 2.48,2.48l24.81 0c1.36,0 2.48,-1.11 2.48,-2.48 0,-1.36 -1.11,-2.48 -2.48,-2.48zm0 9.9l-24.81 0c-1.36,0 -2.48,1.11 -2.48,2.48 0,1.36 1.11,2.48 2.48,2.48l24.81 0c1.36,0 2.48,-1.11 2.48,-2.48 0,-1.36 -1.11,-2.47 -2.48,-2.47zm0 9.9l-24.81 0c-1.36,0 -2.48,1.11 -2.48,2.48 0,1.36 1.11,2.48 2.48,2.48l24.81 0c1.36,0 2.48,-1.11 2.48,-2.48 0,-1.36 -1.11,-2.48 -2.48,-2.48z"/>
  <path class="fil0" d="M24.53 79.49l0 -49.84c0,-2.66 2.18,-4.84 4.84,-4.84l32.45 0c2.66,0 4.84,2.18 4.84,4.84l0 49.84c0,2.66 -2.18,4.84 -4.84,4.84l-32.45 0c-2.66,0 -4.84,-2.18 -4.84,-4.84zm37.29 -59.69l-32.45 0c-5.42,0 -9.85,4.43 -9.85,9.85l0 49.84c0,5.42 4.43,9.85 9.85,9.85l32.45 0c5.42,0 9.85,-4.43 9.85,-9.85l0 -49.84c0,-5.42 -4.43,-9.85 -9.85,-9.85zm-27.72 14.92l15.52 0c1.36,0 2.48,-1.11 2.48,-2.48 0,-1.36 -1.11,-2.48 -2.48,-2.48l-15.52 0c-1.36,0 -2.48,1.11 -2.48,2.48 0,1.36 1.11,2.48 2.48,2.48zm23.9 9.41l-24.81 0c-1.36,0 -2.48,1.11 -2.48,2.48 0,1.36 1.11,2.48 2.48,2.48l24.81 0c1.36,0 2.48,-1.11 2.48,-2.48 0,-1.36 -1.11,-2.48 -2.48,-2.48zm0 10.01l-24.81 0c-1.36,0 -2.48,1.11 -2.48,2.48 0,1.36 1.11,2.48 2.48,2.48l24.81 0c1.36,0 2.48,-1.11 2.48,-2.48 0,-1.36 -1.11,-2.48 -2.48,-2.48zm0 9.9l-24.81 0c-1.36,0 -2.48,1.11 -2.48,2.48 0,1.36 1.11,2.48 2.48,2.48l24.81 0c1.36,0 2.48,-1.11 2.48,-2.48 0,-1.36 -1.11,-2.47 -2.48,-2.47zm0 9.9l-24.81 0c-1.36,0 -2.48,1.11 -2.48,2.48 0,1.36 1.11,2.48 2.48,2.48l24.81 0c1.36,0 2.48,-1.11 2.48,-2.48 0,-1.36 -1.11,-2.48 -2.48,-2.48z"/>
  <path class="fil0" d="M14.77 69.66l0 -49.84c0,-2.66 2.18,-4.84 4.84,-4.84l32.45 0c2.65,0 4.83,2.16 4.84,4.81l4.92 0 0.09 0c-0.01,-5.41 -4.44,-9.83 -9.85,-9.83l-32.45 0c-5.42,0 -9.85,4.43 -9.85,9.85l0 49.84c0,5.39 4.38,9.8 9.76,9.85l-0 -0.02 0 -4.99c-2.62,-0.05 -4.75,-2.21 -4.75,-4.84z"/>
  <path class="fil0" d="M5.01 59.69l0 -49.84c0,-2.66 2.18,-4.84 4.84,-4.84l32.45 0c2.66,0 4.84,2.18 4.84,4.84l0 0.11 4.91 0 0.1 0 0 -0.11c0,-5.42 -4.43,-9.85 -9.85,-9.85l-32.45 0c-5.42,0 -9.85,4.43 -9.85,9.85l0 49.84c0,5.39 4.38,9.8 9.75,9.85l0 -5.01c-2.61,-0.06 -4.74,-2.21 -4.74,-4.84z"/>
 </g>
</svg>
