<?xml version="1.0" encoding="UTF-8"?>
<!DOCTYPE svg PUBLIC "-//W3C//DTD SVG 1.1//EN" "http://www.w3.org/Graphics/SVG/1.1/DTD/svg11.dtd">
<!-- Creator: CorelDRAW -->
<svg xmlns="http://www.w3.org/2000/svg" xml:space="preserve" width="22.3262mm" height="28.6699mm" version="1.1" style="shape-rendering:geometricPrecision; text-rendering:geometricPrecision; image-rendering:optimizeQuality; fill-rule:evenodd; clip-rule:evenodd"
viewBox="0 0 58.25 74.8"
 xmlns:xlink="http://www.w3.org/1999/xlink"
 xmlns:xodm="http://www.corel.com/coreldraw/odm/2003">
 <defs>
  <style type="text/css">
   <![CDATA[
    .str0 {stroke:#2B2B2A;stroke-width:0.52;stroke-miterlimit:22.9256}
    .fil0 {fill:#2B2B2A}
   ]]>
  </style>
 </defs>
 <g id="Слой_x0020_1">
  <metadata id="CorelCorpID_0Corel-Layer"/>
  <path class="fil0 str0" d="M13.93 4.9l25.79 0 0 -0.1c0,-2.49 -2.04,-4.53 -4.53,-4.53l-30.39 0c-2.49,0 -4.53,2.04 -4.53,4.53l0 46.68c0,2.46 1.99,4.48 4.44,4.53l0 -41.88c0,-5.08 4.15,-9.23 9.23,-9.23zm30.39 4.7l-30.39 0c-2.49,0 -4.53,2.04 -4.53,4.53l0 46.68c0,2.46 1.99,4.49 4.45,4.53l0 -42c0,-5.08 4.15,-9.23 9.23,-9.23l25.78 0c-0.01,-2.48 -2.05,-4.51 -4.53,-4.51zm9.14 9.2l-30.39 0c-2.49,0 -4.53,2.04 -4.53,4.53l0 46.68c0,2.49 2.04,4.53 4.53,4.53l30.39 0c2.49,0 4.53,-2.04 4.53,-4.53l0 -46.68c0,-2.49 -2.04,-4.53 -4.53,-4.53zm-9.11 6.95c0,1.28 -1.04,2.32 -2.32,2.32l-14.54 0c-1.28,0 -2.32,-1.04 -2.32,-2.32 0,-1.28 1.04,-2.32 2.32,-2.32l14.54 0c1.28,0 2.32,1.04 2.32,2.32zm-17.71 11.13l23.24 0c1.28,0 2.32,1.04 2.32,2.32 0,1.28 -1.04,2.32 -2.32,2.32l-23.24 0c-1.28,0 -2.32,-1.04 -2.32,-2.32 0,-1.28 1.04,-2.32 2.32,-2.32zm0 9.38l23.24 0c1.28,0 2.32,1.04 2.32,2.32 0,1.28 -1.04,2.32 -2.32,2.32l-23.24 0c-1.28,0 -2.32,-1.04 -2.32,-2.32 0,-1.28 1.04,-2.32 2.32,-2.32zm0 9.27l23.24 0c1.28,0 2.32,1.04 2.32,2.32 0,1.28 -1.04,2.32 -2.32,2.32l-23.24 0c-1.28,0 -2.32,-1.04 -2.32,-2.32 0,-1.28 1.04,-2.32 2.32,-2.32zm0 9.27l23.24 0c1.28,0 2.32,1.04 2.32,2.32 0,1.28 -1.04,2.32 -2.32,2.32l-23.24 0c-1.28,0 -2.32,-1.04 -2.32,-2.32 0,-1.28 1.04,-2.32 2.32,-2.32z"/>
 </g>
</svg>
